<svg xmlns="http://www.w3.org/2000/svg" xmlns:xlink="http://www.w3.org/1999/xlink" width="100" zoomAndPan="magnify" viewBox="0 0 75 74.999997" height="100" preserveAspectRatio="xMidYMid meet" version="1.0"><defs><g/><clipPath id="935284f070"><path d="M 24.378906 10.429688 L 50.628906 10.429688 L 50.628906 43.429688 L 24.378906 43.429688 Z M 24.378906 10.429688 " clip-rule="nonzero"/></clipPath><clipPath id="c69b87136c"><path d="M 42.6875 36.339844 L 42.6875 31.253906 L 30.453125 31.253906 L 30.453125 34.1875 C 31.199219 34.328125 31.816406 34.847656 32.085938 35.542969 L 36.613281 35.542969 C 36.859375 35.199219 37.261719 34.972656 37.71875 34.972656 C 38.472656 34.972656 39.082031 35.585938 39.082031 36.339844 C 39.082031 37.09375 38.472656 37.707031 37.71875 37.707031 C 37.261719 37.707031 36.859375 37.484375 36.613281 37.140625 L 32.085938 37.140625 C 31.925781 37.554688 31.640625 37.90625 31.277344 38.15625 C 31.476562 38.554688 31.738281 38.917969 32.050781 39.230469 C 32.789062 39.972656 33.808594 40.433594 34.929688 40.433594 L 43.113281 40.433594 C 43.429688 39.617188 44.222656 39.042969 45.148438 39.042969 C 46.070312 39.042969 46.863281 39.617188 47.179688 40.433594 C 47.277344 40.679688 47.332031 40.949219 47.332031 41.230469 C 47.332031 42.441406 46.351562 43.417969 45.148438 43.417969 C 44.222656 43.417969 43.429688 42.84375 43.113281 42.027344 L 34.929688 42.027344 C 33.371094 42.027344 31.953125 41.390625 30.921875 40.359375 C 30.394531 39.832031 29.972656 39.199219 29.683594 38.496094 C 28.773438 38.34375 28.058594 37.625 27.902344 36.710938 C 27.203125 36.421875 26.574219 35.996094 26.046875 35.46875 C 25.019531 34.4375 24.378906 33.015625 24.378906 31.449219 C 24.378906 30.398438 24.667969 29.410156 25.171875 28.5625 C 25.316406 28.320312 25.476562 28.089844 25.652344 27.871094 C 25.578125 27.648438 25.535156 27.410156 25.535156 27.160156 C 25.535156 26.792969 25.625 26.449219 25.785156 26.144531 C 25.554688 25.878906 25.351562 25.597656 25.171875 25.296875 C 24.667969 24.445312 24.378906 23.457031 24.378906 22.40625 C 24.378906 20.839844 25.019531 19.417969 26.046875 18.390625 C 26.574219 17.859375 27.203125 17.433594 27.902344 17.144531 C 28.058594 16.234375 28.773438 15.515625 29.683594 15.359375 C 29.972656 14.660156 30.394531 14.027344 30.921875 13.5 C 31.953125 12.46875 33.371094 11.828125 34.929688 11.828125 L 43.113281 11.828125 C 43.429688 11.015625 44.222656 10.4375 45.148438 10.4375 C 46.070312 10.4375 46.863281 11.015625 47.179688 11.828125 C 47.277344 12.074219 47.332031 12.34375 47.332031 12.625 C 47.332031 12.910156 47.277344 13.175781 47.179688 13.425781 C 46.863281 14.238281 46.070312 14.816406 45.148438 14.816406 C 44.222656 14.816406 43.429688 14.238281 43.113281 13.425781 L 34.929688 13.425781 C 33.808594 13.425781 32.789062 13.886719 32.050781 14.628906 C 31.738281 14.941406 31.476562 15.304688 31.277344 15.703125 C 31.640625 15.949219 31.925781 16.304688 32.085938 16.71875 L 36.613281 16.71875 C 36.859375 16.375 37.261719 16.148438 37.71875 16.148438 C 38.472656 16.148438 39.082031 16.761719 39.082031 17.515625 C 39.082031 18.269531 38.472656 18.882812 37.71875 18.882812 C 37.261719 18.882812 36.859375 18.660156 36.613281 18.316406 L 32.085938 18.316406 C 31.816406 19.007812 31.199219 19.53125 30.453125 19.667969 L 30.453125 22.605469 L 39.871094 22.605469 C 40.03125 22.167969 40.453125 21.855469 40.945312 21.855469 C 41.578125 21.855469 42.089844 22.367188 42.089844 23.003906 C 42.089844 23.144531 42.066406 23.277344 42.019531 23.402344 C 41.855469 23.839844 41.4375 24.152344 40.945312 24.152344 C 40.453125 24.152344 40.03125 23.839844 39.871094 23.402344 L 29.65625 23.402344 L 29.65625 19.667969 C 29.070312 19.5625 28.566406 19.21875 28.246094 18.742188 C 27.84375 18.941406 27.484375 19.203125 27.171875 19.515625 C 26.429688 20.257812 25.972656 21.28125 25.972656 22.40625 C 25.972656 23.164062 26.179688 23.875 26.539062 24.484375 C 26.671875 24.703125 26.820312 24.910156 26.984375 25.097656 C 27.214844 25.015625 27.460938 24.972656 27.71875 24.972656 C 28.789062 24.972656 29.679688 25.746094 29.867188 26.761719 L 44.707031 26.761719 L 44.707031 18.59375 C 44.269531 18.429688 43.960938 18.011719 43.960938 17.515625 C 43.960938 16.882812 44.472656 16.367188 45.105469 16.367188 C 45.738281 16.367188 46.25 16.882812 46.25 17.515625 C 46.25 18.011719 45.9375 18.429688 45.503906 18.59375 L 45.503906 22.605469 L 48.410156 22.605469 C 48.570312 22.167969 48.992188 21.855469 49.484375 21.855469 C 50.117188 21.855469 50.628906 22.367188 50.628906 23.003906 C 50.628906 23.636719 50.117188 24.152344 49.484375 24.152344 C 48.992188 24.152344 48.570312 23.839844 48.410156 23.402344 L 45.503906 23.402344 L 45.503906 27.5625 L 29.867188 27.5625 C 29.679688 28.578125 28.789062 29.351562 27.71875 29.351562 C 27.355469 29.351562 27.015625 29.261719 26.714844 29.105469 C 26.652344 29.191406 26.59375 29.28125 26.542969 29.371094 C 26.179688 29.980469 25.972656 30.691406 25.972656 31.449219 C 25.972656 32.574219 26.429688 33.597656 27.171875 34.339844 C 27.484375 34.652344 27.84375 34.914062 28.246094 35.117188 C 28.566406 34.640625 29.070312 34.296875 29.65625 34.1875 L 29.65625 30.457031 L 46.398438 30.457031 C 46.558594 30.019531 46.980469 29.707031 47.472656 29.707031 C 47.964844 29.707031 48.382812 30.019531 48.546875 30.457031 C 48.589844 30.578125 48.617188 30.714844 48.617188 30.855469 C 48.617188 30.996094 48.589844 31.128906 48.546875 31.253906 C 48.382812 31.691406 47.964844 32.003906 47.472656 32.003906 C 46.980469 32.003906 46.558594 31.691406 46.398438 31.253906 L 43.480469 31.253906 L 43.480469 35.941406 L 48.410156 35.941406 C 48.570312 35.503906 48.992188 35.191406 49.484375 35.191406 C 50.117188 35.191406 50.628906 35.707031 50.628906 36.339844 C 50.628906 36.976562 50.117188 37.488281 49.484375 37.488281 C 48.992188 37.488281 48.570312 37.175781 48.410156 36.738281 L 42.6875 36.738281 Z M 42.6875 36.339844 " clip-rule="evenodd"/></clipPath><linearGradient x1="1088.807625" gradientTransform="matrix(0.00375097, 0, 0, 0.00376038, 24.379798, 10.437758)" y1="9361.583917" x2="6356.906706" gradientUnits="userSpaceOnUse" y2="-347.951159" id="6cc4ba4976"><stop stop-opacity="1" stop-color="rgb(1.144409%, 1.96991%, 2.850342%)" offset="0"/><stop stop-opacity="1" stop-color="rgb(1.254272%, 2.159119%, 3.123474%)" offset="0.00390625"/><stop stop-opacity="1" stop-color="rgb(1.365662%, 2.348328%, 3.396606%)" offset="0.0078125"/><stop stop-opacity="1" stop-color="rgb(1.475525%, 2.537537%, 3.669739%)" offset="0.0117188"/><stop stop-opacity="1" stop-color="rgb(1.585388%, 2.726746%, 3.944397%)" offset="0.015625"/><stop stop-opacity="1" stop-color="rgb(1.695251%, 2.915955%, 4.217529%)" offset="0.0195313"/><stop stop-opacity="1" stop-color="rgb(1.805115%, 3.105164%, 4.492188%)" offset="0.0234375"/><stop stop-opacity="1" stop-color="rgb(1.914978%, 3.292847%, 4.76532%)" offset="0.0273438"/><stop stop-opacity="1" stop-color="rgb(2.024841%, 3.482056%, 5.039978%)" offset="0.03125"/><stop stop-opacity="1" stop-color="rgb(2.134705%, 3.671265%, 5.31311%)" offset="0.0351562"/><stop stop-opacity="1" stop-color="rgb(2.244568%, 3.860474%, 5.586243%)" offset="0.0390625"/><stop stop-opacity="1" stop-color="rgb(2.354431%, 4.049683%, 5.859375%)" offset="0.0429688"/><stop stop-opacity="1" stop-color="rgb(2.46582%, 4.238892%, 6.134033%)" offset="0.046875"/><stop stop-opacity="1" stop-color="rgb(2.575684%, 4.428101%, 6.407166%)" offset="0.0507813"/><stop stop-opacity="1" stop-color="rgb(2.685547%, 4.61731%, 6.681824%)" offset="0.0546875"/><stop stop-opacity="1" stop-color="rgb(2.79541%, 4.806519%, 6.954956%)" offset="0.0585938"/><stop stop-opacity="1" stop-color="rgb(2.905273%, 4.995728%, 7.229614%)" offset="0.0625"/><stop stop-opacity="1" stop-color="rgb(3.015137%, 5.184937%, 7.502747%)" offset="0.0664063"/><stop stop-opacity="1" stop-color="rgb(3.125%, 5.374146%, 7.775879%)" offset="0.0703125"/><stop stop-opacity="1" stop-color="rgb(3.234863%, 5.563354%, 8.049011%)" offset="0.0742188"/><stop stop-opacity="1" stop-color="rgb(3.344727%, 5.752563%, 8.323669%)" offset="0.078125"/><stop stop-opacity="1" stop-color="rgb(3.45459%, 5.941772%, 8.596802%)" offset="0.0820313"/><stop stop-opacity="1" stop-color="rgb(3.565979%, 6.130981%, 8.87146%)" offset="0.0859375"/><stop stop-opacity="1" stop-color="rgb(3.675842%, 6.32019%, 9.144592%)" offset="0.0898438"/><stop stop-opacity="1" stop-color="rgb(3.785706%, 6.509399%, 9.417725%)" offset="0.09375"/><stop stop-opacity="1" stop-color="rgb(3.895569%, 6.698608%, 9.690857%)" offset="0.0976562"/><stop stop-opacity="1" stop-color="rgb(4.005432%, 6.887817%, 9.965515%)" offset="0.101563"/><stop stop-opacity="1" stop-color="rgb(4.115295%, 7.077026%, 10.238647%)" offset="0.105469"/><stop stop-opacity="1" stop-color="rgb(4.225159%, 7.266235%, 10.513306%)" offset="0.109375"/><stop stop-opacity="1" stop-color="rgb(4.335022%, 7.455444%, 10.786438%)" offset="0.113281"/><stop stop-opacity="1" stop-color="rgb(4.444885%, 7.644653%, 11.061096%)" offset="0.117188"/><stop stop-opacity="1" stop-color="rgb(4.554749%, 7.833862%, 11.334229%)" offset="0.121094"/><stop stop-opacity="1" stop-color="rgb(4.666138%, 8.023071%, 11.607361%)" offset="0.125"/><stop stop-opacity="1" stop-color="rgb(4.776001%, 8.21228%, 11.880493%)" offset="0.128906"/><stop stop-opacity="1" stop-color="rgb(4.885864%, 8.401489%, 12.155151%)" offset="0.132812"/><stop stop-opacity="1" stop-color="rgb(4.995728%, 8.590698%, 12.428284%)" offset="0.136719"/><stop stop-opacity="1" stop-color="rgb(5.105591%, 8.779907%, 12.702942%)" offset="0.140625"/><stop stop-opacity="1" stop-color="rgb(5.215454%, 8.969116%, 12.976074%)" offset="0.144531"/><stop stop-opacity="1" stop-color="rgb(5.325317%, 9.158325%, 13.250732%)" offset="0.148438"/><stop stop-opacity="1" stop-color="rgb(5.435181%, 9.347534%, 13.523865%)" offset="0.152344"/><stop stop-opacity="1" stop-color="rgb(5.545044%, 9.536743%, 13.796997%)" offset="0.15625"/><stop stop-opacity="1" stop-color="rgb(5.654907%, 9.725952%, 14.070129%)" offset="0.160156"/><stop stop-opacity="1" stop-color="rgb(5.766296%, 9.915161%, 14.344788%)" offset="0.164062"/><stop stop-opacity="1" stop-color="rgb(5.87616%, 10.10437%, 14.61792%)" offset="0.167969"/><stop stop-opacity="1" stop-color="rgb(5.986023%, 10.293579%, 14.892578%)" offset="0.171875"/><stop stop-opacity="1" stop-color="rgb(6.095886%, 10.482788%, 15.16571%)" offset="0.175781"/><stop stop-opacity="1" stop-color="rgb(6.20575%, 10.671997%, 15.440369%)" offset="0.179688"/><stop stop-opacity="1" stop-color="rgb(6.315613%, 10.861206%, 15.713501%)" offset="0.183594"/><stop stop-opacity="1" stop-color="rgb(6.425476%, 11.050415%, 15.986633%)" offset="0.1875"/><stop stop-opacity="1" stop-color="rgb(6.535339%, 11.239624%, 16.259766%)" offset="0.191406"/><stop stop-opacity="1" stop-color="rgb(6.645203%, 11.428833%, 16.534424%)" offset="0.195313"/><stop stop-opacity="1" stop-color="rgb(6.755066%, 11.618042%, 16.807556%)" offset="0.199219"/><stop stop-opacity="1" stop-color="rgb(6.866455%, 11.807251%, 17.082214%)" offset="0.203125"/><stop stop-opacity="1" stop-color="rgb(6.976318%, 11.994934%, 17.355347%)" offset="0.207031"/><stop stop-opacity="1" stop-color="rgb(7.086182%, 12.184143%, 17.630005%)" offset="0.210938"/><stop stop-opacity="1" stop-color="rgb(7.196045%, 12.373352%, 17.903137%)" offset="0.214844"/><stop stop-opacity="1" stop-color="rgb(7.305908%, 12.562561%, 18.17627%)" offset="0.21875"/><stop stop-opacity="1" stop-color="rgb(7.415771%, 12.75177%, 18.449402%)" offset="0.222656"/><stop stop-opacity="1" stop-color="rgb(7.525635%, 12.940979%, 18.72406%)" offset="0.226562"/><stop stop-opacity="1" stop-color="rgb(7.635498%, 13.130188%, 18.997192%)" offset="0.230469"/><stop stop-opacity="1" stop-color="rgb(7.745361%, 13.319397%, 19.271851%)" offset="0.234375"/><stop stop-opacity="1" stop-color="rgb(7.855225%, 13.508606%, 19.544983%)" offset="0.238281"/><stop stop-opacity="1" stop-color="rgb(7.966614%, 13.697815%, 19.819641%)" offset="0.242188"/><stop stop-opacity="1" stop-color="rgb(8.076477%, 13.887024%, 20.092773%)" offset="0.246094"/><stop stop-opacity="1" stop-color="rgb(8.18634%, 14.076233%, 20.365906%)" offset="0.25"/><stop stop-opacity="1" stop-color="rgb(8.172607%, 14.353943%, 20.347595%)" offset="0.253906"/><stop stop-opacity="1" stop-color="rgb(8.1604%, 14.633179%, 20.330811%)" offset="0.257812"/><stop stop-opacity="1" stop-color="rgb(8.140564%, 14.916992%, 20.294189%)" offset="0.261719"/><stop stop-opacity="1" stop-color="rgb(8.120728%, 15.202332%, 20.259094%)" offset="0.265625"/><stop stop-opacity="1" stop-color="rgb(8.099365%, 15.486145%, 20.222473%)" offset="0.269531"/><stop stop-opacity="1" stop-color="rgb(8.079529%, 15.769958%, 20.185852%)" offset="0.273438"/><stop stop-opacity="1" stop-color="rgb(8.058167%, 16.053772%, 20.149231%)" offset="0.277344"/><stop stop-opacity="1" stop-color="rgb(8.03833%, 16.339111%, 20.114136%)" offset="0.28125"/><stop stop-opacity="1" stop-color="rgb(8.016968%, 16.622925%, 20.077515%)" offset="0.285156"/><stop stop-opacity="1" stop-color="rgb(7.997131%, 16.906738%, 20.042419%)" offset="0.289062"/><stop stop-opacity="1" stop-color="rgb(7.977295%, 17.190552%, 20.005798%)" offset="0.292969"/><stop stop-opacity="1" stop-color="rgb(7.957458%, 17.475891%, 19.969177%)" offset="0.296875"/><stop stop-opacity="1" stop-color="rgb(7.936096%, 17.759705%, 19.932556%)" offset="0.300781"/><stop stop-opacity="1" stop-color="rgb(7.91626%, 18.043518%, 19.897461%)" offset="0.304688"/><stop stop-opacity="1" stop-color="rgb(7.894897%, 18.327332%, 19.86084%)" offset="0.308594"/><stop stop-opacity="1" stop-color="rgb(7.875061%, 18.612671%, 19.824219%)" offset="0.3125"/><stop stop-opacity="1" stop-color="rgb(7.853699%, 18.896484%, 19.787598%)" offset="0.316406"/><stop stop-opacity="1" stop-color="rgb(7.833862%, 19.180298%, 19.752502%)" offset="0.320312"/><stop stop-opacity="1" stop-color="rgb(7.814026%, 19.464111%, 19.715881%)" offset="0.324219"/><stop stop-opacity="1" stop-color="rgb(7.794189%, 19.749451%, 19.67926%)" offset="0.328125"/><stop stop-opacity="1" stop-color="rgb(7.772827%, 20.033264%, 19.642639%)" offset="0.332031"/><stop stop-opacity="1" stop-color="rgb(7.752991%, 20.317078%, 19.607544%)" offset="0.335938"/><stop stop-opacity="1" stop-color="rgb(7.731628%, 20.600891%, 19.570923%)" offset="0.339844"/><stop stop-opacity="1" stop-color="rgb(7.711792%, 20.88623%, 19.535828%)" offset="0.34375"/><stop stop-opacity="1" stop-color="rgb(7.691956%, 21.170044%, 19.499207%)" offset="0.347656"/><stop stop-opacity="1" stop-color="rgb(7.672119%, 21.453857%, 19.462585%)" offset="0.351562"/><stop stop-opacity="1" stop-color="rgb(7.650757%, 21.737671%, 19.425964%)" offset="0.355469"/><stop stop-opacity="1" stop-color="rgb(7.63092%, 22.02301%, 19.390869%)" offset="0.359375"/><stop stop-opacity="1" stop-color="rgb(7.609558%, 22.306824%, 19.354248%)" offset="0.363281"/><stop stop-opacity="1" stop-color="rgb(7.589722%, 22.590637%, 19.317627%)" offset="0.367188"/><stop stop-opacity="1" stop-color="rgb(7.568359%, 22.874451%, 19.281006%)" offset="0.371094"/><stop stop-opacity="1" stop-color="rgb(7.548523%, 23.15979%, 19.245911%)" offset="0.375"/><stop stop-opacity="1" stop-color="rgb(7.528687%, 23.443604%, 19.20929%)" offset="0.378906"/><stop stop-opacity="1" stop-color="rgb(7.50885%, 23.727417%, 19.172668%)" offset="0.382813"/><stop stop-opacity="1" stop-color="rgb(7.487488%, 24.01123%, 19.136047%)" offset="0.386719"/><stop stop-opacity="1" stop-color="rgb(7.467651%, 24.29657%, 19.100952%)" offset="0.390625"/><stop stop-opacity="1" stop-color="rgb(7.446289%, 24.580383%, 19.064331%)" offset="0.394531"/><stop stop-opacity="1" stop-color="rgb(7.426453%, 24.864197%, 19.029236%)" offset="0.398438"/><stop stop-opacity="1" stop-color="rgb(7.40509%, 25.14801%, 18.992615%)" offset="0.402344"/><stop stop-opacity="1" stop-color="rgb(7.385254%, 25.43335%, 18.955994%)" offset="0.40625"/><stop stop-opacity="1" stop-color="rgb(7.365417%, 25.717163%, 18.919373%)" offset="0.410156"/><stop stop-opacity="1" stop-color="rgb(7.345581%, 26.000977%, 18.884277%)" offset="0.414063"/><stop stop-opacity="1" stop-color="rgb(7.324219%, 26.28479%, 18.847656%)" offset="0.417969"/><stop stop-opacity="1" stop-color="rgb(7.304382%, 26.570129%, 18.811035%)" offset="0.421875"/><stop stop-opacity="1" stop-color="rgb(7.28302%, 26.853943%, 18.774414%)" offset="0.425781"/><stop stop-opacity="1" stop-color="rgb(7.263184%, 27.137756%, 18.739319%)" offset="0.429687"/><stop stop-opacity="1" stop-color="rgb(7.243347%, 27.42157%, 18.702698%)" offset="0.433594"/><stop stop-opacity="1" stop-color="rgb(7.223511%, 27.706909%, 18.667603%)" offset="0.4375"/><stop stop-opacity="1" stop-color="rgb(7.202148%, 27.990723%, 18.630981%)" offset="0.441406"/><stop stop-opacity="1" stop-color="rgb(7.182312%, 28.274536%, 18.59436%)" offset="0.445313"/><stop stop-opacity="1" stop-color="rgb(7.16095%, 28.55835%, 18.557739%)" offset="0.449219"/><stop stop-opacity="1" stop-color="rgb(7.141113%, 28.843689%, 18.522644%)" offset="0.453125"/><stop stop-opacity="1" stop-color="rgb(7.119751%, 29.127502%, 18.486023%)" offset="0.457031"/><stop stop-opacity="1" stop-color="rgb(7.099915%, 29.411316%, 18.449402%)" offset="0.460938"/><stop stop-opacity="1" stop-color="rgb(7.080078%, 29.695129%, 18.412781%)" offset="0.464844"/><stop stop-opacity="1" stop-color="rgb(7.060242%, 29.980469%, 18.377686%)" offset="0.46875"/><stop stop-opacity="1" stop-color="rgb(7.038879%, 30.264282%, 18.341064%)" offset="0.472656"/><stop stop-opacity="1" stop-color="rgb(7.019043%, 30.548096%, 18.304443%)" offset="0.476562"/><stop stop-opacity="1" stop-color="rgb(6.997681%, 30.831909%, 18.267822%)" offset="0.480469"/><stop stop-opacity="1" stop-color="rgb(6.977844%, 31.117249%, 18.232727%)" offset="0.484375"/><stop stop-opacity="1" stop-color="rgb(6.956482%, 31.401062%, 18.196106%)" offset="0.488281"/><stop stop-opacity="1" stop-color="rgb(6.936646%, 31.684875%, 18.161011%)" offset="0.492188"/><stop stop-opacity="1" stop-color="rgb(6.916809%, 31.968689%, 18.12439%)" offset="0.496094"/><stop stop-opacity="1" stop-color="rgb(6.896973%, 32.254028%, 18.087769%)" offset="0.5"/><stop stop-opacity="1" stop-color="rgb(6.87561%, 32.537842%, 18.051147%)" offset="0.503906"/><stop stop-opacity="1" stop-color="rgb(6.855774%, 32.821655%, 18.016052%)" offset="0.507813"/><stop stop-opacity="1" stop-color="rgb(6.834412%, 33.105469%, 17.979431%)" offset="0.511719"/><stop stop-opacity="1" stop-color="rgb(6.814575%, 33.390808%, 17.94281%)" offset="0.515625"/><stop stop-opacity="1" stop-color="rgb(6.794739%, 33.674622%, 17.906189%)" offset="0.519531"/><stop stop-opacity="1" stop-color="rgb(6.774902%, 33.958435%, 17.871094%)" offset="0.523438"/><stop stop-opacity="1" stop-color="rgb(6.75354%, 34.242249%, 17.834473%)" offset="0.527344"/><stop stop-opacity="1" stop-color="rgb(6.733704%, 34.527588%, 17.797852%)" offset="0.53125"/><stop stop-opacity="1" stop-color="rgb(6.712341%, 34.811401%, 17.76123%)" offset="0.535156"/><stop stop-opacity="1" stop-color="rgb(6.692505%, 35.095215%, 17.726135%)" offset="0.539063"/><stop stop-opacity="1" stop-color="rgb(6.671143%, 35.379028%, 17.689514%)" offset="0.542969"/><stop stop-opacity="1" stop-color="rgb(6.651306%, 35.664368%, 17.654419%)" offset="0.546875"/><stop stop-opacity="1" stop-color="rgb(6.63147%, 35.948181%, 17.617798%)" offset="0.550781"/><stop stop-opacity="1" stop-color="rgb(6.611633%, 36.231995%, 17.581177%)" offset="0.554688"/><stop stop-opacity="1" stop-color="rgb(6.590271%, 36.515808%, 17.544556%)" offset="0.558594"/><stop stop-opacity="1" stop-color="rgb(6.570435%, 36.799622%, 17.50946%)" offset="0.5625"/><stop stop-opacity="1" stop-color="rgb(6.549072%, 37.083435%, 17.472839%)" offset="0.566406"/><stop stop-opacity="1" stop-color="rgb(6.529236%, 37.368774%, 17.436218%)" offset="0.570312"/><stop stop-opacity="1" stop-color="rgb(6.507874%, 37.652588%, 17.399597%)" offset="0.574219"/><stop stop-opacity="1" stop-color="rgb(6.488037%, 37.936401%, 17.364502%)" offset="0.578125"/><stop stop-opacity="1" stop-color="rgb(6.468201%, 38.220215%, 17.327881%)" offset="0.582031"/><stop stop-opacity="1" stop-color="rgb(6.448364%, 38.505554%, 17.29126%)" offset="0.585938"/><stop stop-opacity="1" stop-color="rgb(6.427002%, 38.789368%, 17.254639%)" offset="0.589844"/><stop stop-opacity="1" stop-color="rgb(6.407166%, 39.073181%, 17.219543%)" offset="0.59375"/><stop stop-opacity="1" stop-color="rgb(6.385803%, 39.356995%, 17.182922%)" offset="0.597656"/><stop stop-opacity="1" stop-color="rgb(6.365967%, 39.642334%, 17.147827%)" offset="0.601563"/><stop stop-opacity="1" stop-color="rgb(6.344604%, 39.926147%, 17.111206%)" offset="0.605469"/><stop stop-opacity="1" stop-color="rgb(6.324768%, 40.209961%, 17.074585%)" offset="0.609375"/><stop stop-opacity="1" stop-color="rgb(6.304932%, 40.493774%, 17.037964%)" offset="0.613281"/><stop stop-opacity="1" stop-color="rgb(6.285095%, 40.779114%, 17.002869%)" offset="0.617188"/><stop stop-opacity="1" stop-color="rgb(6.263733%, 41.062927%, 16.966248%)" offset="0.621094"/><stop stop-opacity="1" stop-color="rgb(6.243896%, 41.346741%, 16.929626%)" offset="0.625"/><stop stop-opacity="1" stop-color="rgb(6.222534%, 41.630554%, 16.893005%)" offset="0.628906"/><stop stop-opacity="1" stop-color="rgb(6.202698%, 41.915894%, 16.85791%)" offset="0.632813"/><stop stop-opacity="1" stop-color="rgb(6.182861%, 42.199707%, 16.821289%)" offset="0.636719"/><stop stop-opacity="1" stop-color="rgb(6.163025%, 42.483521%, 16.784668%)" offset="0.640625"/><stop stop-opacity="1" stop-color="rgb(6.141663%, 42.767334%, 16.748047%)" offset="0.644531"/><stop stop-opacity="1" stop-color="rgb(6.121826%, 43.052673%, 16.712952%)" offset="0.648438"/><stop stop-opacity="1" stop-color="rgb(6.100464%, 43.336487%, 16.676331%)" offset="0.652344"/><stop stop-opacity="1" stop-color="rgb(6.080627%, 43.6203%, 16.641235%)" offset="0.65625"/><stop stop-opacity="1" stop-color="rgb(6.059265%, 43.904114%, 16.604614%)" offset="0.660156"/><stop stop-opacity="1" stop-color="rgb(6.039429%, 44.189453%, 16.567993%)" offset="0.664062"/><stop stop-opacity="1" stop-color="rgb(6.019592%, 44.473267%, 16.531372%)" offset="0.667969"/><stop stop-opacity="1" stop-color="rgb(5.999756%, 44.75708%, 16.496277%)" offset="0.671875"/><stop stop-opacity="1" stop-color="rgb(5.978394%, 45.040894%, 16.459656%)" offset="0.675781"/><stop stop-opacity="1" stop-color="rgb(5.958557%, 45.326233%, 16.423035%)" offset="0.679688"/><stop stop-opacity="1" stop-color="rgb(5.937195%, 45.610046%, 16.386414%)" offset="0.683594"/><stop stop-opacity="1" stop-color="rgb(5.917358%, 45.89386%, 16.351318%)" offset="0.6875"/><stop stop-opacity="1" stop-color="rgb(5.895996%, 46.177673%, 16.314697%)" offset="0.691406"/><stop stop-opacity="1" stop-color="rgb(5.87616%, 46.463013%, 16.279602%)" offset="0.695313"/><stop stop-opacity="1" stop-color="rgb(5.856323%, 46.746826%, 16.242981%)" offset="0.699219"/><stop stop-opacity="1" stop-color="rgb(5.836487%, 47.03064%, 16.20636%)" offset="0.703125"/><stop stop-opacity="1" stop-color="rgb(5.815125%, 47.314453%, 16.169739%)" offset="0.707031"/><stop stop-opacity="1" stop-color="rgb(5.795288%, 47.599792%, 16.134644%)" offset="0.710938"/><stop stop-opacity="1" stop-color="rgb(5.773926%, 47.883606%, 16.098022%)" offset="0.714844"/><stop stop-opacity="1" stop-color="rgb(5.754089%, 48.167419%, 16.061401%)" offset="0.71875"/><stop stop-opacity="1" stop-color="rgb(5.734253%, 48.451233%, 16.02478%)" offset="0.722656"/><stop stop-opacity="1" stop-color="rgb(5.714417%, 48.736572%, 15.989685%)" offset="0.726563"/><stop stop-opacity="1" stop-color="rgb(5.693054%, 49.020386%, 15.953064%)" offset="0.730469"/><stop stop-opacity="1" stop-color="rgb(5.673218%, 49.304199%, 15.916443%)" offset="0.734375"/><stop stop-opacity="1" stop-color="rgb(5.651855%, 49.588013%, 15.879822%)" offset="0.738281"/><stop stop-opacity="1" stop-color="rgb(5.632019%, 49.873352%, 15.844727%)" offset="0.742188"/><stop stop-opacity="1" stop-color="rgb(5.610657%, 50.157166%, 15.808105%)" offset="0.746094"/><stop stop-opacity="1" stop-color="rgb(5.59082%, 50.440979%, 15.77301%)" offset="0.75"/><stop stop-opacity="1" stop-color="rgb(5.570984%, 50.724792%, 15.736389%)" offset="0.753906"/><stop stop-opacity="1" stop-color="rgb(5.551147%, 51.010132%, 15.699768%)" offset="0.757812"/><stop stop-opacity="1" stop-color="rgb(5.529785%, 51.293945%, 15.663147%)" offset="0.761719"/><stop stop-opacity="1" stop-color="rgb(5.509949%, 51.577759%, 15.628052%)" offset="0.765625"/><stop stop-opacity="1" stop-color="rgb(5.488586%, 51.861572%, 15.591431%)" offset="0.769531"/><stop stop-opacity="1" stop-color="rgb(5.46875%, 52.146912%, 15.55481%)" offset="0.773438"/><stop stop-opacity="1" stop-color="rgb(5.447388%, 52.430725%, 15.518188%)" offset="0.777344"/><stop stop-opacity="1" stop-color="rgb(5.427551%, 52.714539%, 15.483093%)" offset="0.78125"/><stop stop-opacity="1" stop-color="rgb(5.407715%, 52.998352%, 15.446472%)" offset="0.785156"/><stop stop-opacity="1" stop-color="rgb(5.387878%, 53.283691%, 15.409851%)" offset="0.789063"/><stop stop-opacity="1" stop-color="rgb(5.366516%, 53.567505%, 15.37323%)" offset="0.792969"/><stop stop-opacity="1" stop-color="rgb(5.34668%, 53.851318%, 15.338135%)" offset="0.796875"/><stop stop-opacity="1" stop-color="rgb(5.325317%, 54.135132%, 15.301514%)" offset="0.800781"/><stop stop-opacity="1" stop-color="rgb(5.305481%, 54.420471%, 15.266418%)" offset="0.804688"/><stop stop-opacity="1" stop-color="rgb(5.285645%, 54.704285%, 15.229797%)" offset="0.808594"/><stop stop-opacity="1" stop-color="rgb(5.265808%, 54.988098%, 15.193176%)" offset="0.8125"/><stop stop-opacity="1" stop-color="rgb(5.244446%, 55.271912%, 15.156555%)" offset="0.816406"/><stop stop-opacity="1" stop-color="rgb(5.224609%, 55.557251%, 15.12146%)" offset="0.820313"/><stop stop-opacity="1" stop-color="rgb(5.203247%, 55.841064%, 15.084839%)" offset="0.824219"/><stop stop-opacity="1" stop-color="rgb(5.183411%, 56.124878%, 15.048218%)" offset="0.828125"/><stop stop-opacity="1" stop-color="rgb(5.162048%, 56.408691%, 15.011597%)" offset="0.832031"/><stop stop-opacity="1" stop-color="rgb(5.142212%, 56.694031%, 14.976501%)" offset="0.835938"/><stop stop-opacity="1" stop-color="rgb(5.122375%, 56.977844%, 14.93988%)" offset="0.839844"/><stop stop-opacity="1" stop-color="rgb(5.102539%, 57.261658%, 14.903259%)" offset="0.84375"/><stop stop-opacity="1" stop-color="rgb(5.101013%, 57.279968%, 14.900208%)" offset="0.875"/><stop stop-opacity="1" stop-color="rgb(5.099487%, 57.299805%, 14.898682%)" offset="1"/></linearGradient></defs><g clip-path="url(#935284f070)"><g clip-path="url(#c69b87136c)"><path fill="url(#6cc4ba4976)" d="M 24.378906 10.4375 L 24.378906 43.417969 L 50.628906 43.417969 L 50.628906 10.4375 Z M 24.378906 10.4375 " fill-rule="nonzero"/></g></g><g fill="#141d24" fill-opacity="1"><g transform="translate(13.238728, 55.026745)"><g><path d="M 2.4375 0.0625 C 2.019531 0.0625 1.640625 -0.0234375 1.296875 -0.203125 C 0.960938 -0.378906 0.703125 -0.628906 0.515625 -0.953125 C 0.328125 -1.273438 0.234375 -1.640625 0.234375 -2.046875 C 0.234375 -2.441406 0.328125 -2.800781 0.515625 -3.125 C 0.703125 -3.445312 0.960938 -3.695312 1.296875 -3.875 C 1.640625 -4.0625 2.019531 -4.15625 2.4375 -4.15625 C 2.789062 -4.15625 3.109375 -4.09375 3.390625 -3.96875 C 3.679688 -3.84375 3.925781 -3.660156 4.125 -3.421875 L 3.515625 -2.875 C 3.234375 -3.1875 2.890625 -3.34375 2.484375 -3.34375 C 2.234375 -3.34375 2.007812 -3.285156 1.8125 -3.171875 C 1.613281 -3.066406 1.457031 -2.914062 1.34375 -2.71875 C 1.238281 -2.519531 1.1875 -2.296875 1.1875 -2.046875 C 1.1875 -1.785156 1.238281 -1.554688 1.34375 -1.359375 C 1.457031 -1.160156 1.613281 -1.003906 1.8125 -0.890625 C 2.007812 -0.785156 2.234375 -0.734375 2.484375 -0.734375 C 2.890625 -0.734375 3.234375 -0.894531 3.515625 -1.21875 L 4.125 -0.65625 C 3.925781 -0.414062 3.679688 -0.234375 3.390625 -0.109375 C 3.109375 0.00390625 2.789062 0.0625 2.4375 0.0625 Z M 2.4375 0.0625 "/></g></g></g><g fill="#141d24" fill-opacity="1"><g transform="translate(19.383964, 55.026745)"><g><path d="M 2.453125 0.0625 C 2.035156 0.0625 1.65625 -0.0234375 1.3125 -0.203125 C 0.96875 -0.390625 0.703125 -0.640625 0.515625 -0.953125 C 0.328125 -1.273438 0.234375 -1.640625 0.234375 -2.046875 C 0.234375 -2.441406 0.328125 -2.800781 0.515625 -3.125 C 0.703125 -3.445312 0.96875 -3.695312 1.3125 -3.875 C 1.65625 -4.0625 2.035156 -4.15625 2.453125 -4.15625 C 2.878906 -4.15625 3.257812 -4.0625 3.59375 -3.875 C 3.9375 -3.695312 4.203125 -3.445312 4.390625 -3.125 C 4.585938 -2.800781 4.6875 -2.441406 4.6875 -2.046875 C 4.6875 -1.640625 4.585938 -1.273438 4.390625 -0.953125 C 4.203125 -0.640625 3.9375 -0.390625 3.59375 -0.203125 C 3.257812 -0.0234375 2.878906 0.0625 2.453125 0.0625 Z M 2.453125 -0.734375 C 2.703125 -0.734375 2.921875 -0.785156 3.109375 -0.890625 C 3.304688 -1.003906 3.457031 -1.160156 3.5625 -1.359375 C 3.675781 -1.554688 3.734375 -1.785156 3.734375 -2.046875 C 3.734375 -2.296875 3.675781 -2.519531 3.5625 -2.71875 C 3.457031 -2.914062 3.304688 -3.066406 3.109375 -3.171875 C 2.921875 -3.285156 2.703125 -3.34375 2.453125 -3.34375 C 2.210938 -3.34375 1.992188 -3.285156 1.796875 -3.171875 C 1.609375 -3.066406 1.457031 -2.914062 1.34375 -2.71875 C 1.238281 -2.519531 1.1875 -2.296875 1.1875 -2.046875 C 1.1875 -1.785156 1.238281 -1.554688 1.34375 -1.359375 C 1.457031 -1.160156 1.609375 -1.003906 1.796875 -0.890625 C 1.992188 -0.785156 2.210938 -0.734375 2.453125 -0.734375 Z M 2.453125 -0.734375 "/></g></g></g><g fill="#141d24" fill-opacity="1"><g transform="translate(26.175678, 55.026745)"><g><path d="M 4.203125 0 L 4.1875 -2.453125 L 2.984375 -0.4375 L 2.5625 -0.4375 L 1.375 -2.390625 L 1.375 0 L 0.484375 0 L 0.484375 -4.078125 L 1.265625 -4.078125 L 2.796875 -1.546875 L 4.296875 -4.078125 L 5.078125 -4.078125 L 5.078125 0 Z M 4.203125 0 "/></g></g></g><g fill="#141d24" fill-opacity="1"><g transform="translate(33.613874, 55.026745)"><g><path d="M 2.25 -4.078125 C 2.613281 -4.078125 2.925781 -4.015625 3.1875 -3.890625 C 3.457031 -3.773438 3.660156 -3.601562 3.796875 -3.375 C 3.941406 -3.15625 4.015625 -2.894531 4.015625 -2.59375 C 4.015625 -2.300781 3.941406 -2.039062 3.796875 -1.8125 C 3.660156 -1.59375 3.457031 -1.421875 3.1875 -1.296875 C 2.925781 -1.179688 2.613281 -1.125 2.25 -1.125 L 1.421875 -1.125 L 1.421875 0 L 0.484375 0 L 0.484375 -4.078125 Z M 2.203125 -1.890625 C 2.484375 -1.890625 2.695312 -1.953125 2.84375 -2.078125 C 2.988281 -2.203125 3.0625 -2.375 3.0625 -2.59375 C 3.0625 -2.820312 2.988281 -3 2.84375 -3.125 C 2.695312 -3.25 2.484375 -3.3125 2.203125 -3.3125 L 1.421875 -3.3125 L 1.421875 -1.890625 Z M 2.203125 -1.890625 "/></g></g></g><g fill="#141d24" fill-opacity="1"><g transform="translate(39.753285, 55.026745)"><g><path d="M 2.296875 0.0625 C 1.710938 0.0625 1.257812 -0.09375 0.9375 -0.40625 C 0.613281 -0.726562 0.453125 -1.191406 0.453125 -1.796875 L 0.453125 -4.078125 L 1.390625 -4.078125 L 1.390625 -1.828125 C 1.390625 -1.097656 1.691406 -0.734375 2.296875 -0.734375 C 2.597656 -0.734375 2.828125 -0.820312 2.984375 -1 C 3.140625 -1.175781 3.21875 -1.453125 3.21875 -1.828125 L 3.21875 -4.078125 L 4.140625 -4.078125 L 4.140625 -1.796875 C 4.140625 -1.191406 3.976562 -0.726562 3.65625 -0.40625 C 3.332031 -0.09375 2.878906 0.0625 2.296875 0.0625 Z M 2.296875 0.0625 "/></g></g></g><g fill="#141d24" fill-opacity="1"><g transform="translate(46.218848, 55.026745)"><g><path d="M 1.328125 -3.3125 L 0.015625 -3.3125 L 0.015625 -4.078125 L 3.578125 -4.078125 L 3.578125 -3.3125 L 2.265625 -3.3125 L 2.265625 0 L 1.328125 0 Z M 1.328125 -3.3125 "/></g></g></g><g fill="#141d24" fill-opacity="1"><g transform="translate(51.694308, 55.026745)"><g><path d="M 3.640625 -0.75 L 3.640625 0 L 0.484375 0 L 0.484375 -4.078125 L 3.5625 -4.078125 L 3.5625 -3.328125 L 1.421875 -3.328125 L 1.421875 -2.4375 L 3.3125 -2.4375 L 3.3125 -1.703125 L 1.421875 -1.703125 L 1.421875 -0.75 Z M 3.640625 -0.75 "/></g></g></g><g fill="#141d24" fill-opacity="1"><g transform="translate(57.47845, 55.026745)"><g><path d="M 3.078125 0 L 2.296875 -1.140625 L 1.421875 -1.140625 L 1.421875 0 L 0.484375 0 L 0.484375 -4.078125 L 2.25 -4.078125 C 2.613281 -4.078125 2.925781 -4.015625 3.1875 -3.890625 C 3.457031 -3.773438 3.660156 -3.601562 3.796875 -3.375 C 3.941406 -3.15625 4.015625 -2.894531 4.015625 -2.59375 C 4.015625 -2.289062 3.941406 -2.03125 3.796875 -1.8125 C 3.648438 -1.59375 3.445312 -1.425781 3.1875 -1.3125 L 4.09375 0 Z M 3.0625 -2.59375 C 3.0625 -2.820312 2.988281 -3 2.84375 -3.125 C 2.695312 -3.25 2.484375 -3.3125 2.203125 -3.3125 L 1.421875 -3.3125 L 1.421875 -1.890625 L 2.203125 -1.890625 C 2.484375 -1.890625 2.695312 -1.953125 2.84375 -2.078125 C 2.988281 -2.203125 3.0625 -2.375 3.0625 -2.59375 Z M 3.0625 -2.59375 "/></g></g></g><g fill="#141d24" fill-opacity="1"><g transform="translate(4.596773, 63.174175)"><g><path d="M 1.828125 0.0625 C 1.503906 0.0625 1.191406 0.0195312 0.890625 -0.0625 C 0.585938 -0.144531 0.34375 -0.257812 0.15625 -0.40625 L 0.484375 -1.109375 C 0.660156 -0.984375 0.867188 -0.878906 1.109375 -0.796875 C 1.347656 -0.722656 1.585938 -0.6875 1.828125 -0.6875 C 2.097656 -0.6875 2.296875 -0.722656 2.421875 -0.796875 C 2.546875 -0.878906 2.609375 -0.988281 2.609375 -1.125 C 2.609375 -1.21875 2.570312 -1.296875 2.5 -1.359375 C 2.425781 -1.429688 2.328125 -1.484375 2.203125 -1.515625 C 2.085938 -1.554688 1.929688 -1.601562 1.734375 -1.65625 C 1.421875 -1.726562 1.164062 -1.800781 0.96875 -1.875 C 0.769531 -1.945312 0.597656 -2.0625 0.453125 -2.21875 C 0.316406 -2.382812 0.25 -2.601562 0.25 -2.875 C 0.25 -3.113281 0.3125 -3.328125 0.4375 -3.515625 C 0.5625 -3.710938 0.753906 -3.867188 1.015625 -3.984375 C 1.273438 -4.097656 1.59375 -4.15625 1.96875 -4.15625 C 2.226562 -4.15625 2.476562 -4.125 2.71875 -4.0625 C 2.96875 -4 3.1875 -3.90625 3.375 -3.78125 L 3.09375 -3.078125 C 2.71875 -3.285156 2.335938 -3.390625 1.953125 -3.390625 C 1.691406 -3.390625 1.5 -3.347656 1.375 -3.265625 C 1.25 -3.179688 1.1875 -3.066406 1.1875 -2.921875 C 1.1875 -2.785156 1.257812 -2.679688 1.40625 -2.609375 C 1.550781 -2.546875 1.769531 -2.476562 2.0625 -2.40625 C 2.375 -2.332031 2.628906 -2.257812 2.828125 -2.1875 C 3.023438 -2.113281 3.195312 -2 3.34375 -1.84375 C 3.488281 -1.6875 3.5625 -1.46875 3.5625 -1.1875 C 3.5625 -0.957031 3.492188 -0.742188 3.359375 -0.546875 C 3.234375 -0.359375 3.039062 -0.207031 2.78125 -0.09375 C 2.519531 0.0078125 2.203125 0.0625 1.828125 0.0625 Z M 1.828125 0.0625 "/></g></g></g><g fill="#141d24" fill-opacity="1"><g transform="translate(10.188716, 63.174175)"><g><path d="M 2.4375 0.0625 C 2.019531 0.0625 1.640625 -0.0234375 1.296875 -0.203125 C 0.960938 -0.378906 0.703125 -0.628906 0.515625 -0.953125 C 0.328125 -1.273438 0.234375 -1.640625 0.234375 -2.046875 C 0.234375 -2.441406 0.328125 -2.800781 0.515625 -3.125 C 0.703125 -3.445312 0.960938 -3.695312 1.296875 -3.875 C 1.640625 -4.0625 2.019531 -4.15625 2.4375 -4.15625 C 2.789062 -4.15625 3.109375 -4.09375 3.390625 -3.96875 C 3.679688 -3.84375 3.925781 -3.660156 4.125 -3.421875 L 3.515625 -2.875 C 3.234375 -3.1875 2.890625 -3.34375 2.484375 -3.34375 C 2.234375 -3.34375 2.007812 -3.285156 1.8125 -3.171875 C 1.613281 -3.066406 1.457031 -2.914062 1.34375 -2.71875 C 1.238281 -2.519531 1.1875 -2.296875 1.1875 -2.046875 C 1.1875 -1.785156 1.238281 -1.554688 1.34375 -1.359375 C 1.457031 -1.160156 1.613281 -1.003906 1.8125 -0.890625 C 2.007812 -0.785156 2.234375 -0.734375 2.484375 -0.734375 C 2.890625 -0.734375 3.234375 -0.894531 3.515625 -1.21875 L 4.125 -0.65625 C 3.925781 -0.414062 3.679688 -0.234375 3.390625 -0.109375 C 3.109375 0.00390625 2.789062 0.0625 2.4375 0.0625 Z M 2.4375 0.0625 "/></g></g></g><g fill="#141d24" fill-opacity="1"><g transform="translate(16.333953, 63.174175)"><g><path d="M 0.484375 -4.078125 L 1.421875 -4.078125 L 1.421875 0 L 0.484375 0 Z M 0.484375 -4.078125 "/></g></g></g><g fill="#141d24" fill-opacity="1"><g transform="translate(20.120416, 63.174175)"><g><path d="M 3.640625 -0.75 L 3.640625 0 L 0.484375 0 L 0.484375 -4.078125 L 3.5625 -4.078125 L 3.5625 -3.328125 L 1.421875 -3.328125 L 1.421875 -2.4375 L 3.3125 -2.4375 L 3.3125 -1.703125 L 1.421875 -1.703125 L 1.421875 -0.75 Z M 3.640625 -0.75 "/></g></g></g><g fill="#141d24" fill-opacity="1"><g transform="translate(25.904555, 63.174175)"><g><path d="M 4.21875 -4.078125 L 4.21875 0 L 3.453125 0 L 1.421875 -2.484375 L 1.421875 0 L 0.484375 0 L 0.484375 -4.078125 L 1.265625 -4.078125 L 3.296875 -1.609375 L 3.296875 -4.078125 Z M 4.21875 -4.078125 "/></g></g></g><g fill="#141d24" fill-opacity="1"><g transform="translate(32.486601, 63.174175)"><g><path d="M 2.4375 0.0625 C 2.019531 0.0625 1.640625 -0.0234375 1.296875 -0.203125 C 0.960938 -0.378906 0.703125 -0.628906 0.515625 -0.953125 C 0.328125 -1.273438 0.234375 -1.640625 0.234375 -2.046875 C 0.234375 -2.441406 0.328125 -2.800781 0.515625 -3.125 C 0.703125 -3.445312 0.960938 -3.695312 1.296875 -3.875 C 1.640625 -4.0625 2.019531 -4.15625 2.4375 -4.15625 C 2.789062 -4.15625 3.109375 -4.09375 3.390625 -3.96875 C 3.679688 -3.84375 3.925781 -3.660156 4.125 -3.421875 L 3.515625 -2.875 C 3.234375 -3.1875 2.890625 -3.34375 2.484375 -3.34375 C 2.234375 -3.34375 2.007812 -3.285156 1.8125 -3.171875 C 1.613281 -3.066406 1.457031 -2.914062 1.34375 -2.71875 C 1.238281 -2.519531 1.1875 -2.296875 1.1875 -2.046875 C 1.1875 -1.785156 1.238281 -1.554688 1.34375 -1.359375 C 1.457031 -1.160156 1.613281 -1.003906 1.8125 -0.890625 C 2.007812 -0.785156 2.234375 -0.734375 2.484375 -0.734375 C 2.890625 -0.734375 3.234375 -0.894531 3.515625 -1.21875 L 4.125 -0.65625 C 3.925781 -0.414062 3.679688 -0.234375 3.390625 -0.109375 C 3.109375 0.00390625 2.789062 0.0625 2.4375 0.0625 Z M 2.4375 0.0625 "/></g></g></g><g fill="#141d24" fill-opacity="1"><g transform="translate(38.631836, 63.174175)"><g><path d="M 3.640625 -0.75 L 3.640625 0 L 0.484375 0 L 0.484375 -4.078125 L 3.5625 -4.078125 L 3.5625 -3.328125 L 1.421875 -3.328125 L 1.421875 -2.4375 L 3.3125 -2.4375 L 3.3125 -1.703125 L 1.421875 -1.703125 L 1.421875 -0.75 Z M 3.640625 -0.75 "/></g></g></g><g fill="#141d24" fill-opacity="1"><g transform="translate(44.415975, 63.174175)"><g/></g></g><g fill="#141d24" fill-opacity="1"><g transform="translate(47.940354, 63.174175)"><g><path d="M 2.4375 0.0625 C 2.019531 0.0625 1.640625 -0.0234375 1.296875 -0.203125 C 0.960938 -0.378906 0.703125 -0.628906 0.515625 -0.953125 C 0.328125 -1.273438 0.234375 -1.640625 0.234375 -2.046875 C 0.234375 -2.441406 0.328125 -2.800781 0.515625 -3.125 C 0.703125 -3.445312 0.960938 -3.695312 1.296875 -3.875 C 1.640625 -4.0625 2.019531 -4.15625 2.4375 -4.15625 C 2.789062 -4.15625 3.109375 -4.09375 3.390625 -3.96875 C 3.679688 -3.84375 3.925781 -3.660156 4.125 -3.421875 L 3.515625 -2.875 C 3.234375 -3.1875 2.890625 -3.34375 2.484375 -3.34375 C 2.234375 -3.34375 2.007812 -3.285156 1.8125 -3.171875 C 1.613281 -3.066406 1.457031 -2.914062 1.34375 -2.71875 C 1.238281 -2.519531 1.1875 -2.296875 1.1875 -2.046875 C 1.1875 -1.785156 1.238281 -1.554688 1.34375 -1.359375 C 1.457031 -1.160156 1.613281 -1.003906 1.8125 -0.890625 C 2.007812 -0.785156 2.234375 -0.734375 2.484375 -0.734375 C 2.890625 -0.734375 3.234375 -0.894531 3.515625 -1.21875 L 4.125 -0.65625 C 3.925781 -0.414062 3.679688 -0.234375 3.390625 -0.109375 C 3.109375 0.00390625 2.789062 0.0625 2.4375 0.0625 Z M 2.4375 0.0625 "/></g></g></g><g fill="#141d24" fill-opacity="1"><g transform="translate(54.085592, 63.174175)"><g><path d="M 0.484375 -4.078125 L 1.421875 -4.078125 L 1.421875 -0.765625 L 3.46875 -0.765625 L 3.46875 0 L 0.484375 0 Z M 0.484375 -4.078125 "/></g></g></g><g fill="#141d24" fill-opacity="1"><g transform="translate(59.479517, 63.174175)"><g><path d="M 2.296875 0.0625 C 1.710938 0.0625 1.257812 -0.09375 0.9375 -0.40625 C 0.613281 -0.726562 0.453125 -1.191406 0.453125 -1.796875 L 0.453125 -4.078125 L 1.390625 -4.078125 L 1.390625 -1.828125 C 1.390625 -1.097656 1.691406 -0.734375 2.296875 -0.734375 C 2.597656 -0.734375 2.828125 -0.820312 2.984375 -1 C 3.140625 -1.175781 3.21875 -1.453125 3.21875 -1.828125 L 3.21875 -4.078125 L 4.140625 -4.078125 L 4.140625 -1.796875 C 4.140625 -1.191406 3.976562 -0.726562 3.65625 -0.40625 C 3.332031 -0.09375 2.878906 0.0625 2.296875 0.0625 Z M 2.296875 0.0625 "/></g></g></g><g fill="#141d24" fill-opacity="1"><g transform="translate(65.94508, 63.174175)"><g><path d="M 3.484375 -2.125 C 3.710938 -2.050781 3.890625 -1.925781 4.015625 -1.75 C 4.148438 -1.570312 4.21875 -1.359375 4.21875 -1.109375 C 4.21875 -0.753906 4.078125 -0.476562 3.796875 -0.28125 C 3.523438 -0.09375 3.125 0 2.59375 0 L 0.484375 0 L 0.484375 -4.078125 L 2.484375 -4.078125 C 2.972656 -4.078125 3.347656 -3.984375 3.609375 -3.796875 C 3.878906 -3.609375 4.015625 -3.347656 4.015625 -3.015625 C 4.015625 -2.816406 3.96875 -2.640625 3.875 -2.484375 C 3.78125 -2.328125 3.648438 -2.207031 3.484375 -2.125 Z M 1.421875 -3.375 L 1.421875 -2.40625 L 2.359375 -2.40625 C 2.585938 -2.40625 2.765625 -2.445312 2.890625 -2.53125 C 3.015625 -2.613281 3.078125 -2.734375 3.078125 -2.890625 C 3.078125 -3.046875 3.015625 -3.164062 2.890625 -3.25 C 2.765625 -3.332031 2.585938 -3.375 2.359375 -3.375 Z M 2.53125 -0.71875 C 2.769531 -0.71875 2.953125 -0.753906 3.078125 -0.828125 C 3.210938 -0.910156 3.28125 -1.039062 3.28125 -1.21875 C 3.28125 -1.550781 3.03125 -1.71875 2.53125 -1.71875 L 1.421875 -1.71875 L 1.421875 -0.71875 Z M 2.53125 -0.71875 "/></g></g></g></svg>