<svg xmlns="http://www.w3.org/2000/svg" xmlns:xlink="http://www.w3.org/1999/xlink" width="186" zoomAndPan="magnify" viewBox="0 0 139.5 30.000001" height="40" preserveAspectRatio="xMidYMid meet" version="1.0"><defs><g/><clipPath id="735b06807c"><path d="M 4.921875 1.664062 L 25.316406 1.664062 L 25.316406 27.160156 L 4.921875 27.160156 Z M 4.921875 1.664062 " clip-rule="nonzero"/></clipPath><clipPath id="c244dcc573"><path d="M 19.144531 21.683594 L 19.144531 17.753906 L 9.640625 17.753906 L 9.640625 20.023438 C 10.222656 20.128906 10.699219 20.53125 10.910156 21.070312 L 14.425781 21.070312 C 14.617188 20.800781 14.933594 20.628906 15.285156 20.628906 C 15.871094 20.628906 16.34375 21.101562 16.34375 21.683594 C 16.34375 22.269531 15.871094 22.742188 15.285156 22.742188 C 14.933594 22.742188 14.617188 22.566406 14.425781 22.300781 L 10.910156 22.300781 C 10.785156 22.621094 10.5625 22.894531 10.28125 23.085938 C 10.433594 23.394531 10.636719 23.675781 10.878906 23.917969 C 11.457031 24.492188 12.25 24.847656 13.121094 24.847656 L 19.476562 24.847656 C 19.722656 24.21875 20.339844 23.773438 21.058594 23.773438 C 21.777344 23.773438 22.390625 24.21875 22.636719 24.847656 C 22.710938 25.039062 22.753906 25.246094 22.753906 25.464844 C 22.753906 26.398438 21.992188 27.15625 21.058594 27.15625 C 20.339844 27.15625 19.722656 26.710938 19.476562 26.078125 L 13.121094 26.078125 C 11.90625 26.078125 10.804688 25.585938 10.007812 24.789062 C 9.597656 24.382812 9.265625 23.894531 9.042969 23.351562 C 8.335938 23.230469 7.777344 22.675781 7.65625 21.972656 C 7.113281 21.75 6.625 21.417969 6.214844 21.011719 C 5.417969 20.214844 4.921875 19.117188 4.921875 17.90625 C 4.921875 17.09375 5.148438 16.332031 5.539062 15.675781 C 5.648438 15.488281 5.773438 15.308594 5.910156 15.140625 C 5.851562 14.96875 5.820312 14.785156 5.820312 14.59375 C 5.820312 14.308594 5.890625 14.042969 6.015625 13.804688 C 5.835938 13.601562 5.675781 13.382812 5.539062 13.152344 C 5.148438 12.496094 4.921875 11.730469 4.921875 10.917969 C 4.921875 9.710938 5.417969 8.609375 6.214844 7.816406 C 6.625 7.40625 7.113281 7.078125 7.65625 6.855469 C 7.777344 6.148438 8.335938 5.59375 9.042969 5.472656 C 9.265625 4.933594 9.597656 4.445312 10.007812 4.035156 C 10.804688 3.242188 11.90625 2.746094 13.121094 2.746094 L 19.476562 2.746094 C 19.722656 2.117188 20.339844 1.671875 21.058594 1.671875 C 21.777344 1.671875 22.390625 2.117188 22.636719 2.746094 C 22.710938 2.9375 22.753906 3.144531 22.753906 3.363281 C 22.753906 3.582031 22.710938 3.789062 22.636719 3.980469 C 22.390625 4.609375 21.777344 5.054688 21.058594 5.054688 C 20.339844 5.054688 19.722656 4.609375 19.476562 3.980469 L 13.121094 3.980469 C 12.25 3.980469 11.457031 4.335938 10.878906 4.910156 C 10.636719 5.152344 10.433594 5.429688 10.28125 5.738281 C 10.5625 5.929688 10.785156 6.203125 10.910156 6.523438 L 14.425781 6.523438 C 14.617188 6.257812 14.933594 6.085938 15.285156 6.085938 C 15.871094 6.085938 16.34375 6.558594 16.34375 7.140625 C 16.34375 7.722656 15.871094 8.195312 15.285156 8.195312 C 14.933594 8.195312 14.617188 8.023438 14.425781 7.757812 L 10.910156 7.757812 C 10.699219 8.292969 10.222656 8.695312 9.640625 8.804688 L 9.640625 11.070312 L 16.957031 11.070312 C 17.082031 10.734375 17.410156 10.492188 17.792969 10.492188 C 18.285156 10.492188 18.683594 10.890625 18.683594 11.378906 C 18.683594 11.488281 18.664062 11.59375 18.625 11.6875 C 18.5 12.027344 18.175781 12.265625 17.792969 12.265625 C 17.410156 12.265625 17.082031 12.027344 16.957031 11.6875 L 9.019531 11.6875 L 9.019531 8.804688 C 8.566406 8.71875 8.175781 8.457031 7.925781 8.085938 C 7.613281 8.242188 7.332031 8.445312 7.089844 8.6875 C 6.515625 9.261719 6.160156 10.050781 6.160156 10.917969 C 6.160156 11.503906 6.320312 12.054688 6.601562 12.523438 C 6.703125 12.695312 6.816406 12.851562 6.945312 13 C 7.125 12.9375 7.316406 12.902344 7.515625 12.902344 C 8.347656 12.902344 9.039062 13.496094 9.183594 14.285156 L 20.714844 14.285156 L 20.714844 7.972656 C 20.375 7.847656 20.132812 7.523438 20.132812 7.140625 C 20.132812 6.652344 20.53125 6.253906 21.023438 6.253906 C 21.515625 6.253906 21.914062 6.652344 21.914062 7.140625 C 21.914062 7.523438 21.671875 7.847656 21.332031 7.972656 L 21.332031 11.070312 L 23.59375 11.070312 C 23.71875 10.734375 24.042969 10.492188 24.425781 10.492188 C 24.917969 10.492188 25.316406 10.890625 25.316406 11.378906 C 25.316406 11.871094 24.917969 12.265625 24.425781 12.265625 C 24.042969 12.265625 23.71875 12.027344 23.59375 11.6875 L 21.332031 11.6875 L 21.332031 14.902344 L 9.183594 14.902344 C 9.039062 15.6875 8.347656 16.285156 7.515625 16.285156 C 7.234375 16.285156 6.96875 16.214844 6.734375 16.09375 C 6.6875 16.160156 6.644531 16.230469 6.601562 16.300781 C 6.320312 16.773438 6.160156 17.320312 6.160156 17.90625 C 6.160156 18.777344 6.515625 19.566406 7.089844 20.140625 C 7.332031 20.382812 7.613281 20.585938 7.925781 20.738281 C 8.175781 20.371094 8.566406 20.105469 9.019531 20.023438 L 9.019531 17.136719 L 22.027344 17.136719 C 22.152344 16.800781 22.480469 16.558594 22.863281 16.558594 C 23.246094 16.558594 23.570312 16.800781 23.699219 17.136719 C 23.734375 17.234375 23.753906 17.335938 23.753906 17.445312 C 23.753906 17.554688 23.734375 17.660156 23.699219 17.753906 C 23.570312 18.09375 23.246094 18.332031 22.863281 18.332031 C 22.480469 18.332031 22.152344 18.09375 22.027344 17.753906 L 19.765625 17.753906 L 19.765625 21.375 L 23.59375 21.375 C 23.71875 21.039062 24.042969 20.796875 24.425781 20.796875 C 24.917969 20.796875 25.316406 21.195312 25.316406 21.683594 C 25.316406 22.175781 24.917969 22.570312 24.425781 22.570312 C 24.042969 22.570312 23.71875 22.332031 23.59375 21.992188 L 19.144531 21.992188 Z M 19.144531 21.683594 " clip-rule="evenodd"/></clipPath><linearGradient x1="1088.807622" gradientTransform="matrix(0.00291439, 0, 0, 0.00290539, 4.921694, 1.671674)" y1="9361.583922" x2="6356.906653" gradientUnits="userSpaceOnUse" y2="-347.951062" id="dc46b47552"><stop stop-opacity="1" stop-color="rgb(1.144409%, 1.96991%, 2.850342%)" offset="0"/><stop stop-opacity="1" stop-color="rgb(1.254272%, 2.159119%, 3.123474%)" offset="0.00390625"/><stop stop-opacity="1" stop-color="rgb(1.365662%, 2.348328%, 3.396606%)" offset="0.0078125"/><stop stop-opacity="1" stop-color="rgb(1.475525%, 2.537537%, 3.669739%)" offset="0.0117188"/><stop stop-opacity="1" stop-color="rgb(1.585388%, 2.726746%, 3.944397%)" offset="0.015625"/><stop stop-opacity="1" stop-color="rgb(1.695251%, 2.915955%, 4.217529%)" offset="0.0195313"/><stop stop-opacity="1" stop-color="rgb(1.805115%, 3.105164%, 4.492188%)" offset="0.0234375"/><stop stop-opacity="1" stop-color="rgb(1.914978%, 3.292847%, 4.76532%)" offset="0.0273438"/><stop stop-opacity="1" stop-color="rgb(2.024841%, 3.482056%, 5.039978%)" offset="0.03125"/><stop stop-opacity="1" stop-color="rgb(2.134705%, 3.671265%, 5.31311%)" offset="0.0351563"/><stop stop-opacity="1" stop-color="rgb(2.244568%, 3.860474%, 5.586243%)" offset="0.0390625"/><stop stop-opacity="1" stop-color="rgb(2.354431%, 4.049683%, 5.859375%)" offset="0.0429688"/><stop stop-opacity="1" stop-color="rgb(2.46582%, 4.238892%, 6.134033%)" offset="0.046875"/><stop stop-opacity="1" stop-color="rgb(2.575684%, 4.428101%, 6.407166%)" offset="0.0507813"/><stop stop-opacity="1" stop-color="rgb(2.685547%, 4.61731%, 6.681824%)" offset="0.0546875"/><stop stop-opacity="1" stop-color="rgb(2.79541%, 4.806519%, 6.954956%)" offset="0.0585938"/><stop stop-opacity="1" stop-color="rgb(2.905273%, 4.995728%, 7.229614%)" offset="0.0625"/><stop stop-opacity="1" stop-color="rgb(3.015137%, 5.184937%, 7.502747%)" offset="0.0664063"/><stop stop-opacity="1" stop-color="rgb(3.125%, 5.374146%, 7.775879%)" offset="0.0703125"/><stop stop-opacity="1" stop-color="rgb(3.234863%, 5.563354%, 8.049011%)" offset="0.0742188"/><stop stop-opacity="1" stop-color="rgb(3.344727%, 5.752563%, 8.323669%)" offset="0.078125"/><stop stop-opacity="1" stop-color="rgb(3.45459%, 5.941772%, 8.596802%)" offset="0.0820312"/><stop stop-opacity="1" stop-color="rgb(3.565979%, 6.130981%, 8.87146%)" offset="0.0859375"/><stop stop-opacity="1" stop-color="rgb(3.675842%, 6.32019%, 9.144592%)" offset="0.0898438"/><stop stop-opacity="1" stop-color="rgb(3.785706%, 6.509399%, 9.417725%)" offset="0.09375"/><stop stop-opacity="1" stop-color="rgb(3.895569%, 6.698608%, 9.690857%)" offset="0.0976562"/><stop stop-opacity="1" stop-color="rgb(4.005432%, 6.887817%, 9.965515%)" offset="0.101563"/><stop stop-opacity="1" stop-color="rgb(4.115295%, 7.077026%, 10.238647%)" offset="0.105469"/><stop stop-opacity="1" stop-color="rgb(4.225159%, 7.266235%, 10.513306%)" offset="0.109375"/><stop stop-opacity="1" stop-color="rgb(4.335022%, 7.455444%, 10.786438%)" offset="0.113281"/><stop stop-opacity="1" stop-color="rgb(4.444885%, 7.644653%, 11.061096%)" offset="0.117188"/><stop stop-opacity="1" stop-color="rgb(4.554749%, 7.833862%, 11.334229%)" offset="0.121094"/><stop stop-opacity="1" stop-color="rgb(4.666138%, 8.023071%, 11.607361%)" offset="0.125"/><stop stop-opacity="1" stop-color="rgb(4.776001%, 8.21228%, 11.880493%)" offset="0.128906"/><stop stop-opacity="1" stop-color="rgb(4.885864%, 8.401489%, 12.155151%)" offset="0.132813"/><stop stop-opacity="1" stop-color="rgb(4.995728%, 8.590698%, 12.428284%)" offset="0.136719"/><stop stop-opacity="1" stop-color="rgb(5.105591%, 8.779907%, 12.702942%)" offset="0.140625"/><stop stop-opacity="1" stop-color="rgb(5.215454%, 8.969116%, 12.976074%)" offset="0.144531"/><stop stop-opacity="1" stop-color="rgb(5.325317%, 9.158325%, 13.250732%)" offset="0.148438"/><stop stop-opacity="1" stop-color="rgb(5.435181%, 9.347534%, 13.523865%)" offset="0.152344"/><stop stop-opacity="1" stop-color="rgb(5.545044%, 9.536743%, 13.796997%)" offset="0.15625"/><stop stop-opacity="1" stop-color="rgb(5.654907%, 9.725952%, 14.070129%)" offset="0.160156"/><stop stop-opacity="1" stop-color="rgb(5.766296%, 9.915161%, 14.344788%)" offset="0.164063"/><stop stop-opacity="1" stop-color="rgb(5.87616%, 10.10437%, 14.61792%)" offset="0.167969"/><stop stop-opacity="1" stop-color="rgb(5.986023%, 10.293579%, 14.892578%)" offset="0.171875"/><stop stop-opacity="1" stop-color="rgb(6.095886%, 10.482788%, 15.16571%)" offset="0.175781"/><stop stop-opacity="1" stop-color="rgb(6.20575%, 10.671997%, 15.440369%)" offset="0.179688"/><stop stop-opacity="1" stop-color="rgb(6.315613%, 10.861206%, 15.713501%)" offset="0.183594"/><stop stop-opacity="1" stop-color="rgb(6.425476%, 11.050415%, 15.986633%)" offset="0.1875"/><stop stop-opacity="1" stop-color="rgb(6.535339%, 11.239624%, 16.259766%)" offset="0.191406"/><stop stop-opacity="1" stop-color="rgb(6.645203%, 11.428833%, 16.534424%)" offset="0.195313"/><stop stop-opacity="1" stop-color="rgb(6.755066%, 11.618042%, 16.807556%)" offset="0.199219"/><stop stop-opacity="1" stop-color="rgb(6.866455%, 11.807251%, 17.082214%)" offset="0.203125"/><stop stop-opacity="1" stop-color="rgb(6.976318%, 11.994934%, 17.355347%)" offset="0.207031"/><stop stop-opacity="1" stop-color="rgb(7.086182%, 12.184143%, 17.630005%)" offset="0.210938"/><stop stop-opacity="1" stop-color="rgb(7.196045%, 12.373352%, 17.903137%)" offset="0.214844"/><stop stop-opacity="1" stop-color="rgb(7.305908%, 12.562561%, 18.17627%)" offset="0.21875"/><stop stop-opacity="1" stop-color="rgb(7.415771%, 12.75177%, 18.449402%)" offset="0.222656"/><stop stop-opacity="1" stop-color="rgb(7.525635%, 12.940979%, 18.72406%)" offset="0.226563"/><stop stop-opacity="1" stop-color="rgb(7.635498%, 13.130188%, 18.997192%)" offset="0.230469"/><stop stop-opacity="1" stop-color="rgb(7.745361%, 13.319397%, 19.271851%)" offset="0.234375"/><stop stop-opacity="1" stop-color="rgb(7.855225%, 13.508606%, 19.544983%)" offset="0.238281"/><stop stop-opacity="1" stop-color="rgb(7.966614%, 13.697815%, 19.819641%)" offset="0.242188"/><stop stop-opacity="1" stop-color="rgb(8.076477%, 13.887024%, 20.092773%)" offset="0.246094"/><stop stop-opacity="1" stop-color="rgb(8.18634%, 14.076233%, 20.365906%)" offset="0.25"/><stop stop-opacity="1" stop-color="rgb(8.172607%, 14.353943%, 20.347595%)" offset="0.253906"/><stop stop-opacity="1" stop-color="rgb(8.1604%, 14.633179%, 20.330811%)" offset="0.257813"/><stop stop-opacity="1" stop-color="rgb(8.140564%, 14.916992%, 20.294189%)" offset="0.261719"/><stop stop-opacity="1" stop-color="rgb(8.120728%, 15.202332%, 20.259094%)" offset="0.265625"/><stop stop-opacity="1" stop-color="rgb(8.099365%, 15.486145%, 20.222473%)" offset="0.269531"/><stop stop-opacity="1" stop-color="rgb(8.079529%, 15.769958%, 20.185852%)" offset="0.273438"/><stop stop-opacity="1" stop-color="rgb(8.058167%, 16.053772%, 20.149231%)" offset="0.277344"/><stop stop-opacity="1" stop-color="rgb(8.03833%, 16.339111%, 20.114136%)" offset="0.28125"/><stop stop-opacity="1" stop-color="rgb(8.016968%, 16.622925%, 20.077515%)" offset="0.285156"/><stop stop-opacity="1" stop-color="rgb(7.997131%, 16.906738%, 20.042419%)" offset="0.289062"/><stop stop-opacity="1" stop-color="rgb(7.977295%, 17.190552%, 20.005798%)" offset="0.292969"/><stop stop-opacity="1" stop-color="rgb(7.957458%, 17.475891%, 19.969177%)" offset="0.296875"/><stop stop-opacity="1" stop-color="rgb(7.936096%, 17.759705%, 19.932556%)" offset="0.300781"/><stop stop-opacity="1" stop-color="rgb(7.91626%, 18.043518%, 19.897461%)" offset="0.304688"/><stop stop-opacity="1" stop-color="rgb(7.894897%, 18.327332%, 19.86084%)" offset="0.308594"/><stop stop-opacity="1" stop-color="rgb(7.875061%, 18.612671%, 19.824219%)" offset="0.3125"/><stop stop-opacity="1" stop-color="rgb(7.853699%, 18.896484%, 19.787598%)" offset="0.316406"/><stop stop-opacity="1" stop-color="rgb(7.833862%, 19.180298%, 19.752502%)" offset="0.320312"/><stop stop-opacity="1" stop-color="rgb(7.814026%, 19.464111%, 19.715881%)" offset="0.324219"/><stop stop-opacity="1" stop-color="rgb(7.794189%, 19.749451%, 19.67926%)" offset="0.328125"/><stop stop-opacity="1" stop-color="rgb(7.772827%, 20.033264%, 19.642639%)" offset="0.332031"/><stop stop-opacity="1" stop-color="rgb(7.752991%, 20.317078%, 19.607544%)" offset="0.335938"/><stop stop-opacity="1" stop-color="rgb(7.731628%, 20.600891%, 19.570923%)" offset="0.339844"/><stop stop-opacity="1" stop-color="rgb(7.711792%, 20.88623%, 19.535828%)" offset="0.34375"/><stop stop-opacity="1" stop-color="rgb(7.691956%, 21.170044%, 19.499207%)" offset="0.347656"/><stop stop-opacity="1" stop-color="rgb(7.672119%, 21.453857%, 19.462585%)" offset="0.351562"/><stop stop-opacity="1" stop-color="rgb(7.650757%, 21.737671%, 19.425964%)" offset="0.355469"/><stop stop-opacity="1" stop-color="rgb(7.63092%, 22.02301%, 19.390869%)" offset="0.359375"/><stop stop-opacity="1" stop-color="rgb(7.609558%, 22.306824%, 19.354248%)" offset="0.363281"/><stop stop-opacity="1" stop-color="rgb(7.589722%, 22.590637%, 19.317627%)" offset="0.367188"/><stop stop-opacity="1" stop-color="rgb(7.568359%, 22.874451%, 19.281006%)" offset="0.371094"/><stop stop-opacity="1" stop-color="rgb(7.548523%, 23.15979%, 19.245911%)" offset="0.375"/><stop stop-opacity="1" stop-color="rgb(7.528687%, 23.443604%, 19.20929%)" offset="0.378906"/><stop stop-opacity="1" stop-color="rgb(7.50885%, 23.727417%, 19.172668%)" offset="0.382812"/><stop stop-opacity="1" stop-color="rgb(7.487488%, 24.01123%, 19.136047%)" offset="0.386719"/><stop stop-opacity="1" stop-color="rgb(7.467651%, 24.29657%, 19.100952%)" offset="0.390625"/><stop stop-opacity="1" stop-color="rgb(7.446289%, 24.580383%, 19.064331%)" offset="0.394531"/><stop stop-opacity="1" stop-color="rgb(7.426453%, 24.864197%, 19.029236%)" offset="0.398438"/><stop stop-opacity="1" stop-color="rgb(7.40509%, 25.14801%, 18.992615%)" offset="0.402344"/><stop stop-opacity="1" stop-color="rgb(7.385254%, 25.43335%, 18.955994%)" offset="0.40625"/><stop stop-opacity="1" stop-color="rgb(7.365417%, 25.717163%, 18.919373%)" offset="0.410156"/><stop stop-opacity="1" stop-color="rgb(7.345581%, 26.000977%, 18.884277%)" offset="0.414063"/><stop stop-opacity="1" stop-color="rgb(7.324219%, 26.28479%, 18.847656%)" offset="0.417969"/><stop stop-opacity="1" stop-color="rgb(7.304382%, 26.570129%, 18.811035%)" offset="0.421875"/><stop stop-opacity="1" stop-color="rgb(7.28302%, 26.853943%, 18.774414%)" offset="0.425781"/><stop stop-opacity="1" stop-color="rgb(7.263184%, 27.137756%, 18.739319%)" offset="0.429688"/><stop stop-opacity="1" stop-color="rgb(7.243347%, 27.42157%, 18.702698%)" offset="0.433594"/><stop stop-opacity="1" stop-color="rgb(7.223511%, 27.706909%, 18.667603%)" offset="0.4375"/><stop stop-opacity="1" stop-color="rgb(7.202148%, 27.990723%, 18.630981%)" offset="0.441406"/><stop stop-opacity="1" stop-color="rgb(7.182312%, 28.274536%, 18.59436%)" offset="0.445313"/><stop stop-opacity="1" stop-color="rgb(7.16095%, 28.55835%, 18.557739%)" offset="0.449219"/><stop stop-opacity="1" stop-color="rgb(7.141113%, 28.843689%, 18.522644%)" offset="0.453125"/><stop stop-opacity="1" stop-color="rgb(7.119751%, 29.127502%, 18.486023%)" offset="0.457031"/><stop stop-opacity="1" stop-color="rgb(7.099915%, 29.411316%, 18.449402%)" offset="0.460938"/><stop stop-opacity="1" stop-color="rgb(7.080078%, 29.695129%, 18.412781%)" offset="0.464844"/><stop stop-opacity="1" stop-color="rgb(7.060242%, 29.980469%, 18.377686%)" offset="0.46875"/><stop stop-opacity="1" stop-color="rgb(7.038879%, 30.264282%, 18.341064%)" offset="0.472656"/><stop stop-opacity="1" stop-color="rgb(7.019043%, 30.548096%, 18.304443%)" offset="0.476563"/><stop stop-opacity="1" stop-color="rgb(6.997681%, 30.831909%, 18.267822%)" offset="0.480469"/><stop stop-opacity="1" stop-color="rgb(6.977844%, 31.117249%, 18.232727%)" offset="0.484375"/><stop stop-opacity="1" stop-color="rgb(6.956482%, 31.401062%, 18.196106%)" offset="0.488281"/><stop stop-opacity="1" stop-color="rgb(6.936646%, 31.684875%, 18.161011%)" offset="0.492188"/><stop stop-opacity="1" stop-color="rgb(6.916809%, 31.968689%, 18.12439%)" offset="0.496094"/><stop stop-opacity="1" stop-color="rgb(6.896973%, 32.254028%, 18.087769%)" offset="0.5"/><stop stop-opacity="1" stop-color="rgb(6.87561%, 32.537842%, 18.051147%)" offset="0.503906"/><stop stop-opacity="1" stop-color="rgb(6.855774%, 32.821655%, 18.016052%)" offset="0.507813"/><stop stop-opacity="1" stop-color="rgb(6.834412%, 33.105469%, 17.979431%)" offset="0.511719"/><stop stop-opacity="1" stop-color="rgb(6.814575%, 33.390808%, 17.94281%)" offset="0.515625"/><stop stop-opacity="1" stop-color="rgb(6.794739%, 33.674622%, 17.906189%)" offset="0.519531"/><stop stop-opacity="1" stop-color="rgb(6.774902%, 33.958435%, 17.871094%)" offset="0.523438"/><stop stop-opacity="1" stop-color="rgb(6.75354%, 34.242249%, 17.834473%)" offset="0.527344"/><stop stop-opacity="1" stop-color="rgb(6.733704%, 34.527588%, 17.797852%)" offset="0.53125"/><stop stop-opacity="1" stop-color="rgb(6.712341%, 34.811401%, 17.76123%)" offset="0.535156"/><stop stop-opacity="1" stop-color="rgb(6.692505%, 35.095215%, 17.726135%)" offset="0.539063"/><stop stop-opacity="1" stop-color="rgb(6.671143%, 35.379028%, 17.689514%)" offset="0.542969"/><stop stop-opacity="1" stop-color="rgb(6.651306%, 35.664368%, 17.654419%)" offset="0.546875"/><stop stop-opacity="1" stop-color="rgb(6.63147%, 35.948181%, 17.617798%)" offset="0.550781"/><stop stop-opacity="1" stop-color="rgb(6.611633%, 36.231995%, 17.581177%)" offset="0.554688"/><stop stop-opacity="1" stop-color="rgb(6.590271%, 36.515808%, 17.544556%)" offset="0.558594"/><stop stop-opacity="1" stop-color="rgb(6.570435%, 36.799622%, 17.50946%)" offset="0.5625"/><stop stop-opacity="1" stop-color="rgb(6.549072%, 37.083435%, 17.472839%)" offset="0.566406"/><stop stop-opacity="1" stop-color="rgb(6.529236%, 37.368774%, 17.436218%)" offset="0.570313"/><stop stop-opacity="1" stop-color="rgb(6.507874%, 37.652588%, 17.399597%)" offset="0.574219"/><stop stop-opacity="1" stop-color="rgb(6.488037%, 37.936401%, 17.364502%)" offset="0.578125"/><stop stop-opacity="1" stop-color="rgb(6.468201%, 38.220215%, 17.327881%)" offset="0.582031"/><stop stop-opacity="1" stop-color="rgb(6.448364%, 38.505554%, 17.29126%)" offset="0.585938"/><stop stop-opacity="1" stop-color="rgb(6.427002%, 38.789368%, 17.254639%)" offset="0.589844"/><stop stop-opacity="1" stop-color="rgb(6.407166%, 39.073181%, 17.219543%)" offset="0.59375"/><stop stop-opacity="1" stop-color="rgb(6.385803%, 39.356995%, 17.182922%)" offset="0.597656"/><stop stop-opacity="1" stop-color="rgb(6.365967%, 39.642334%, 17.147827%)" offset="0.601563"/><stop stop-opacity="1" stop-color="rgb(6.344604%, 39.926147%, 17.111206%)" offset="0.605469"/><stop stop-opacity="1" stop-color="rgb(6.324768%, 40.209961%, 17.074585%)" offset="0.609375"/><stop stop-opacity="1" stop-color="rgb(6.304932%, 40.493774%, 17.037964%)" offset="0.613281"/><stop stop-opacity="1" stop-color="rgb(6.285095%, 40.779114%, 17.002869%)" offset="0.617188"/><stop stop-opacity="1" stop-color="rgb(6.263733%, 41.062927%, 16.966248%)" offset="0.621094"/><stop stop-opacity="1" stop-color="rgb(6.243896%, 41.346741%, 16.929626%)" offset="0.625"/><stop stop-opacity="1" stop-color="rgb(6.222534%, 41.630554%, 16.893005%)" offset="0.628906"/><stop stop-opacity="1" stop-color="rgb(6.202698%, 41.915894%, 16.85791%)" offset="0.632813"/><stop stop-opacity="1" stop-color="rgb(6.182861%, 42.199707%, 16.821289%)" offset="0.636719"/><stop stop-opacity="1" stop-color="rgb(6.163025%, 42.483521%, 16.784668%)" offset="0.640625"/><stop stop-opacity="1" stop-color="rgb(6.141663%, 42.767334%, 16.748047%)" offset="0.644531"/><stop stop-opacity="1" stop-color="rgb(6.121826%, 43.052673%, 16.712952%)" offset="0.648438"/><stop stop-opacity="1" stop-color="rgb(6.100464%, 43.336487%, 16.676331%)" offset="0.652344"/><stop stop-opacity="1" stop-color="rgb(6.080627%, 43.6203%, 16.641235%)" offset="0.65625"/><stop stop-opacity="1" stop-color="rgb(6.059265%, 43.904114%, 16.604614%)" offset="0.660156"/><stop stop-opacity="1" stop-color="rgb(6.039429%, 44.189453%, 16.567993%)" offset="0.664063"/><stop stop-opacity="1" stop-color="rgb(6.019592%, 44.473267%, 16.531372%)" offset="0.667969"/><stop stop-opacity="1" stop-color="rgb(5.999756%, 44.75708%, 16.496277%)" offset="0.671875"/><stop stop-opacity="1" stop-color="rgb(5.978394%, 45.040894%, 16.459656%)" offset="0.675781"/><stop stop-opacity="1" stop-color="rgb(5.958557%, 45.326233%, 16.423035%)" offset="0.679688"/><stop stop-opacity="1" stop-color="rgb(5.937195%, 45.610046%, 16.386414%)" offset="0.683594"/><stop stop-opacity="1" stop-color="rgb(5.917358%, 45.89386%, 16.351318%)" offset="0.6875"/><stop stop-opacity="1" stop-color="rgb(5.895996%, 46.177673%, 16.314697%)" offset="0.691406"/><stop stop-opacity="1" stop-color="rgb(5.87616%, 46.463013%, 16.279602%)" offset="0.695313"/><stop stop-opacity="1" stop-color="rgb(5.856323%, 46.746826%, 16.242981%)" offset="0.699219"/><stop stop-opacity="1" stop-color="rgb(5.836487%, 47.03064%, 16.20636%)" offset="0.703125"/><stop stop-opacity="1" stop-color="rgb(5.815125%, 47.314453%, 16.169739%)" offset="0.707031"/><stop stop-opacity="1" stop-color="rgb(5.795288%, 47.599792%, 16.134644%)" offset="0.710938"/><stop stop-opacity="1" stop-color="rgb(5.773926%, 47.883606%, 16.098022%)" offset="0.714844"/><stop stop-opacity="1" stop-color="rgb(5.754089%, 48.167419%, 16.061401%)" offset="0.71875"/><stop stop-opacity="1" stop-color="rgb(5.734253%, 48.451233%, 16.02478%)" offset="0.722656"/><stop stop-opacity="1" stop-color="rgb(5.714417%, 48.736572%, 15.989685%)" offset="0.726563"/><stop stop-opacity="1" stop-color="rgb(5.693054%, 49.020386%, 15.953064%)" offset="0.730469"/><stop stop-opacity="1" stop-color="rgb(5.673218%, 49.304199%, 15.916443%)" offset="0.734375"/><stop stop-opacity="1" stop-color="rgb(5.651855%, 49.588013%, 15.879822%)" offset="0.738281"/><stop stop-opacity="1" stop-color="rgb(5.632019%, 49.873352%, 15.844727%)" offset="0.742188"/><stop stop-opacity="1" stop-color="rgb(5.610657%, 50.157166%, 15.808105%)" offset="0.746094"/><stop stop-opacity="1" stop-color="rgb(5.59082%, 50.440979%, 15.77301%)" offset="0.75"/><stop stop-opacity="1" stop-color="rgb(5.570984%, 50.724792%, 15.736389%)" offset="0.753906"/><stop stop-opacity="1" stop-color="rgb(5.551147%, 51.010132%, 15.699768%)" offset="0.757813"/><stop stop-opacity="1" stop-color="rgb(5.529785%, 51.293945%, 15.663147%)" offset="0.761719"/><stop stop-opacity="1" stop-color="rgb(5.509949%, 51.577759%, 15.628052%)" offset="0.765625"/><stop stop-opacity="1" stop-color="rgb(5.488586%, 51.861572%, 15.591431%)" offset="0.769531"/><stop stop-opacity="1" stop-color="rgb(5.46875%, 52.146912%, 15.55481%)" offset="0.773438"/><stop stop-opacity="1" stop-color="rgb(5.447388%, 52.430725%, 15.518188%)" offset="0.777344"/><stop stop-opacity="1" stop-color="rgb(5.427551%, 52.714539%, 15.483093%)" offset="0.78125"/><stop stop-opacity="1" stop-color="rgb(5.407715%, 52.998352%, 15.446472%)" offset="0.785156"/><stop stop-opacity="1" stop-color="rgb(5.387878%, 53.283691%, 15.409851%)" offset="0.789063"/><stop stop-opacity="1" stop-color="rgb(5.366516%, 53.567505%, 15.37323%)" offset="0.792969"/><stop stop-opacity="1" stop-color="rgb(5.34668%, 53.851318%, 15.338135%)" offset="0.796875"/><stop stop-opacity="1" stop-color="rgb(5.325317%, 54.135132%, 15.301514%)" offset="0.800781"/><stop stop-opacity="1" stop-color="rgb(5.305481%, 54.420471%, 15.266418%)" offset="0.804688"/><stop stop-opacity="1" stop-color="rgb(5.285645%, 54.704285%, 15.229797%)" offset="0.808594"/><stop stop-opacity="1" stop-color="rgb(5.265808%, 54.988098%, 15.193176%)" offset="0.8125"/><stop stop-opacity="1" stop-color="rgb(5.244446%, 55.271912%, 15.156555%)" offset="0.816406"/><stop stop-opacity="1" stop-color="rgb(5.224609%, 55.557251%, 15.12146%)" offset="0.820312"/><stop stop-opacity="1" stop-color="rgb(5.203247%, 55.841064%, 15.084839%)" offset="0.824219"/><stop stop-opacity="1" stop-color="rgb(5.183411%, 56.124878%, 15.048218%)" offset="0.828125"/><stop stop-opacity="1" stop-color="rgb(5.162048%, 56.408691%, 15.011597%)" offset="0.832031"/><stop stop-opacity="1" stop-color="rgb(5.142212%, 56.694031%, 14.976501%)" offset="0.835938"/><stop stop-opacity="1" stop-color="rgb(5.122375%, 56.977844%, 14.93988%)" offset="0.839844"/><stop stop-opacity="1" stop-color="rgb(5.102539%, 57.261658%, 14.903259%)" offset="0.84375"/><stop stop-opacity="1" stop-color="rgb(5.101013%, 57.279968%, 14.900208%)" offset="0.875"/><stop stop-opacity="1" stop-color="rgb(5.099487%, 57.299805%, 14.898682%)" offset="1"/></linearGradient></defs><g clip-path="url(#735b06807c)"><g clip-path="url(#c244dcc573)"><path fill="url(#dc46b47552)" d="M 4.921875 1.671875 L 4.921875 27.15625 L 25.316406 27.15625 L 25.316406 1.671875 Z M 4.921875 1.671875 " fill-rule="nonzero"/></g></g><g fill="#141d24" fill-opacity="1"><g transform="translate(26.636504, 14.642042)"><g><path d="M 2.125 0.0625 C 1.757812 0.0625 1.429688 -0.015625 1.140625 -0.171875 C 0.847656 -0.328125 0.617188 -0.546875 0.453125 -0.828125 C 0.285156 -1.109375 0.203125 -1.425781 0.203125 -1.78125 C 0.203125 -2.132812 0.285156 -2.453125 0.453125 -2.734375 C 0.617188 -3.015625 0.847656 -3.234375 1.140625 -3.390625 C 1.429688 -3.546875 1.765625 -3.625 2.140625 -3.625 C 2.441406 -3.625 2.71875 -3.566406 2.96875 -3.453125 C 3.21875 -3.347656 3.425781 -3.195312 3.59375 -3 L 3.078125 -2.5 C 2.828125 -2.78125 2.523438 -2.921875 2.171875 -2.921875 C 1.953125 -2.921875 1.753906 -2.875 1.578125 -2.78125 C 1.410156 -2.6875 1.273438 -2.550781 1.171875 -2.375 C 1.078125 -2.195312 1.03125 -2 1.03125 -1.78125 C 1.03125 -1.5625 1.078125 -1.363281 1.171875 -1.1875 C 1.273438 -1.019531 1.410156 -0.882812 1.578125 -0.78125 C 1.753906 -0.6875 1.953125 -0.640625 2.171875 -0.640625 C 2.523438 -0.640625 2.828125 -0.78125 3.078125 -1.0625 L 3.59375 -0.578125 C 3.425781 -0.367188 3.21875 -0.207031 2.96875 -0.09375 C 2.71875 0.0078125 2.4375 0.0625 2.125 0.0625 Z M 2.125 0.0625 "/></g></g></g><g fill="#141d24" fill-opacity="1"><g transform="translate(32.013128, 14.642042)"><g><path d="M 2.15625 0.0625 C 1.78125 0.0625 1.441406 -0.015625 1.140625 -0.171875 C 0.847656 -0.335938 0.617188 -0.5625 0.453125 -0.84375 C 0.285156 -1.125 0.203125 -1.4375 0.203125 -1.78125 C 0.203125 -2.132812 0.285156 -2.445312 0.453125 -2.71875 C 0.617188 -3 0.847656 -3.21875 1.140625 -3.375 C 1.441406 -3.539062 1.78125 -3.625 2.15625 -3.625 C 2.519531 -3.625 2.847656 -3.539062 3.140625 -3.375 C 3.441406 -3.21875 3.675781 -3 3.84375 -2.71875 C 4.007812 -2.445312 4.09375 -2.132812 4.09375 -1.78125 C 4.09375 -1.4375 4.007812 -1.125 3.84375 -0.84375 C 3.675781 -0.5625 3.441406 -0.335938 3.140625 -0.171875 C 2.847656 -0.015625 2.519531 0.0625 2.15625 0.0625 Z M 2.15625 -0.640625 C 2.363281 -0.640625 2.550781 -0.6875 2.71875 -0.78125 C 2.882812 -0.882812 3.015625 -1.019531 3.109375 -1.1875 C 3.210938 -1.363281 3.265625 -1.5625 3.265625 -1.78125 C 3.265625 -2 3.210938 -2.195312 3.109375 -2.375 C 3.015625 -2.550781 2.882812 -2.6875 2.71875 -2.78125 C 2.550781 -2.875 2.363281 -2.921875 2.15625 -2.921875 C 1.9375 -2.921875 1.742188 -2.875 1.578125 -2.78125 C 1.410156 -2.6875 1.273438 -2.550781 1.171875 -2.375 C 1.078125 -2.195312 1.03125 -2 1.03125 -1.78125 C 1.03125 -1.5625 1.078125 -1.363281 1.171875 -1.1875 C 1.273438 -1.019531 1.410156 -0.882812 1.578125 -0.78125 C 1.742188 -0.6875 1.9375 -0.640625 2.15625 -0.640625 Z M 2.15625 -0.640625 "/></g></g></g><g fill="#141d24" fill-opacity="1"><g transform="translate(37.955373, 14.642042)"><g><path d="M 3.671875 0 L 3.65625 -2.140625 L 2.609375 -0.375 L 2.234375 -0.375 L 1.203125 -2.09375 L 1.203125 0 L 0.421875 0 L 0.421875 -3.5625 L 1.109375 -3.5625 L 2.4375 -1.34375 L 3.75 -3.5625 L 4.4375 -3.5625 L 4.4375 0 Z M 3.671875 0 "/></g></g></g><g fill="#141d24" fill-opacity="1"><g transform="translate(44.46324, 14.642042)"><g><path d="M 1.96875 -3.5625 C 2.28125 -3.5625 2.550781 -3.507812 2.78125 -3.40625 C 3.019531 -3.300781 3.203125 -3.148438 3.328125 -2.953125 C 3.453125 -2.765625 3.515625 -2.535156 3.515625 -2.265625 C 3.515625 -2.003906 3.453125 -1.773438 3.328125 -1.578125 C 3.203125 -1.390625 3.019531 -1.242188 2.78125 -1.140625 C 2.550781 -1.035156 2.28125 -0.984375 1.96875 -0.984375 L 1.25 -0.984375 L 1.25 0 L 0.421875 0 L 0.421875 -3.5625 Z M 1.921875 -1.65625 C 2.171875 -1.65625 2.359375 -1.707031 2.484375 -1.8125 C 2.609375 -1.914062 2.671875 -2.066406 2.671875 -2.265625 C 2.671875 -2.472656 2.609375 -2.628906 2.484375 -2.734375 C 2.359375 -2.835938 2.171875 -2.890625 1.921875 -2.890625 L 1.25 -2.890625 L 1.25 -1.65625 Z M 1.921875 -1.65625 "/></g></g></g><g fill="#141d24" fill-opacity="1"><g transform="translate(49.834769, 14.642042)"><g><path d="M 2 0.0625 C 1.5 0.0625 1.101562 -0.078125 0.8125 -0.359375 C 0.53125 -0.640625 0.390625 -1.039062 0.390625 -1.5625 L 0.390625 -3.5625 L 1.21875 -3.5625 L 1.21875 -1.59375 C 1.21875 -0.957031 1.484375 -0.640625 2.015625 -0.640625 C 2.273438 -0.640625 2.472656 -0.71875 2.609375 -0.875 C 2.742188 -1.03125 2.8125 -1.269531 2.8125 -1.59375 L 2.8125 -3.5625 L 3.625 -3.5625 L 3.625 -1.5625 C 3.625 -1.039062 3.476562 -0.640625 3.1875 -0.359375 C 2.90625 -0.078125 2.507812 0.0625 2 0.0625 Z M 2 0.0625 "/></g></g></g><g fill="#141d24" fill-opacity="1"><g transform="translate(55.491655, 14.642042)"><g><path d="M 1.15625 -2.890625 L 0.015625 -2.890625 L 0.015625 -3.5625 L 3.125 -3.5625 L 3.125 -2.890625 L 1.984375 -2.890625 L 1.984375 0 L 1.15625 0 Z M 1.15625 -2.890625 "/></g></g></g><g fill="#141d24" fill-opacity="1"><g transform="translate(60.282275, 14.642042)"><g><path d="M 3.1875 -0.65625 L 3.1875 0 L 0.421875 0 L 0.421875 -3.5625 L 3.125 -3.5625 L 3.125 -2.90625 L 1.25 -2.90625 L 1.25 -2.125 L 2.890625 -2.125 L 2.890625 -1.484375 L 1.25 -1.484375 L 1.25 -0.65625 Z M 3.1875 -0.65625 "/></g></g></g><g fill="#141d24" fill-opacity="1"><g transform="translate(65.342969, 14.642042)"><g><path d="M 2.6875 0 L 2 -1 L 1.25 -1 L 1.25 0 L 0.421875 0 L 0.421875 -3.5625 L 1.96875 -3.5625 C 2.28125 -3.5625 2.550781 -3.507812 2.78125 -3.40625 C 3.019531 -3.300781 3.203125 -3.148438 3.328125 -2.953125 C 3.453125 -2.765625 3.515625 -2.535156 3.515625 -2.265625 C 3.515625 -2.003906 3.445312 -1.773438 3.3125 -1.578125 C 3.1875 -1.390625 3.007812 -1.242188 2.78125 -1.140625 L 3.578125 0 Z M 2.671875 -2.265625 C 2.671875 -2.472656 2.609375 -2.628906 2.484375 -2.734375 C 2.359375 -2.835938 2.171875 -2.890625 1.921875 -2.890625 L 1.25 -2.890625 L 1.25 -1.65625 L 1.921875 -1.65625 C 2.171875 -1.65625 2.359375 -1.707031 2.484375 -1.8125 C 2.609375 -1.914062 2.671875 -2.066406 2.671875 -2.265625 Z M 2.671875 -2.265625 "/></g></g></g><g fill="#141d24" fill-opacity="1"><g transform="translate(70.729786, 14.642042)"><g/></g></g><g fill="#141d24" fill-opacity="1"><g transform="translate(73.813355, 14.642042)"><g><path d="M 1.59375 0.0625 C 1.3125 0.0625 1.035156 0.0234375 0.765625 -0.046875 C 0.503906 -0.128906 0.296875 -0.226562 0.140625 -0.34375 L 0.421875 -0.96875 C 0.578125 -0.863281 0.757812 -0.773438 0.96875 -0.703125 C 1.175781 -0.628906 1.382812 -0.59375 1.59375 -0.59375 C 1.832031 -0.59375 2.003906 -0.628906 2.109375 -0.703125 C 2.222656 -0.773438 2.28125 -0.867188 2.28125 -0.984375 C 2.28125 -1.066406 2.25 -1.132812 2.1875 -1.1875 C 2.125 -1.25 2.039062 -1.296875 1.9375 -1.328125 C 1.832031 -1.359375 1.691406 -1.394531 1.515625 -1.4375 C 1.242188 -1.5 1.019531 -1.5625 0.84375 -1.625 C 0.664062 -1.695312 0.515625 -1.800781 0.390625 -1.9375 C 0.273438 -2.082031 0.21875 -2.273438 0.21875 -2.515625 C 0.21875 -2.722656 0.269531 -2.910156 0.375 -3.078125 C 0.488281 -3.242188 0.660156 -3.375 0.890625 -3.46875 C 1.117188 -3.570312 1.394531 -3.625 1.71875 -3.625 C 1.945312 -3.625 2.164062 -3.597656 2.375 -3.546875 C 2.59375 -3.492188 2.785156 -3.414062 2.953125 -3.3125 L 2.703125 -2.6875 C 2.367188 -2.875 2.039062 -2.96875 1.71875 -2.96875 C 1.476562 -2.96875 1.300781 -2.925781 1.1875 -2.84375 C 1.082031 -2.769531 1.03125 -2.675781 1.03125 -2.5625 C 1.03125 -2.4375 1.09375 -2.34375 1.21875 -2.28125 C 1.351562 -2.226562 1.550781 -2.171875 1.8125 -2.109375 C 2.082031 -2.046875 2.300781 -1.976562 2.46875 -1.90625 C 2.644531 -1.84375 2.796875 -1.742188 2.921875 -1.609375 C 3.046875 -1.472656 3.109375 -1.285156 3.109375 -1.046875 C 3.109375 -0.835938 3.050781 -0.648438 2.9375 -0.484375 C 2.820312 -0.316406 2.648438 -0.179688 2.421875 -0.078125 C 2.191406 0.015625 1.914062 0.0625 1.59375 0.0625 Z M 1.59375 0.0625 "/></g></g></g><g fill="#141d24" fill-opacity="1"><g transform="translate(78.705889, 14.642042)"><g><path d="M 2.125 0.0625 C 1.757812 0.0625 1.429688 -0.015625 1.140625 -0.171875 C 0.847656 -0.328125 0.617188 -0.546875 0.453125 -0.828125 C 0.285156 -1.109375 0.203125 -1.425781 0.203125 -1.78125 C 0.203125 -2.132812 0.285156 -2.453125 0.453125 -2.734375 C 0.617188 -3.015625 0.847656 -3.234375 1.140625 -3.390625 C 1.429688 -3.546875 1.765625 -3.625 2.140625 -3.625 C 2.441406 -3.625 2.71875 -3.566406 2.96875 -3.453125 C 3.21875 -3.347656 3.425781 -3.195312 3.59375 -3 L 3.078125 -2.5 C 2.828125 -2.78125 2.523438 -2.921875 2.171875 -2.921875 C 1.953125 -2.921875 1.753906 -2.875 1.578125 -2.78125 C 1.410156 -2.6875 1.273438 -2.550781 1.171875 -2.375 C 1.078125 -2.195312 1.03125 -2 1.03125 -1.78125 C 1.03125 -1.5625 1.078125 -1.363281 1.171875 -1.1875 C 1.273438 -1.019531 1.410156 -0.882812 1.578125 -0.78125 C 1.753906 -0.6875 1.953125 -0.640625 2.171875 -0.640625 C 2.523438 -0.640625 2.828125 -0.78125 3.078125 -1.0625 L 3.59375 -0.578125 C 3.425781 -0.367188 3.21875 -0.207031 2.96875 -0.09375 C 2.71875 0.0078125 2.4375 0.0625 2.125 0.0625 Z M 2.125 0.0625 "/></g></g></g><g fill="#141d24" fill-opacity="1"><g transform="translate(84.082515, 14.642042)"><g><path d="M 0.421875 -3.5625 L 1.25 -3.5625 L 1.25 0 L 0.421875 0 Z M 0.421875 -3.5625 "/></g></g></g><g fill="#141d24" fill-opacity="1"><g transform="translate(87.395389, 14.642042)"><g><path d="M 3.1875 -0.65625 L 3.1875 0 L 0.421875 0 L 0.421875 -3.5625 L 3.125 -3.5625 L 3.125 -2.90625 L 1.25 -2.90625 L 1.25 -2.125 L 2.890625 -2.125 L 2.890625 -1.484375 L 1.25 -1.484375 L 1.25 -0.65625 Z M 3.1875 -0.65625 "/></g></g></g><g fill="#141d24" fill-opacity="1"><g transform="translate(92.456082, 14.642042)"><g><path d="M 3.6875 -3.5625 L 3.6875 0 L 3.015625 0 L 1.234375 -2.171875 L 1.234375 0 L 0.421875 0 L 0.421875 -3.5625 L 1.109375 -3.5625 L 2.875 -1.40625 L 2.875 -3.5625 Z M 3.6875 -3.5625 "/></g></g></g><g fill="#141d24" fill-opacity="1"><g transform="translate(98.214883, 14.642042)"><g><path d="M 2.125 0.0625 C 1.757812 0.0625 1.429688 -0.015625 1.140625 -0.171875 C 0.847656 -0.328125 0.617188 -0.546875 0.453125 -0.828125 C 0.285156 -1.109375 0.203125 -1.425781 0.203125 -1.78125 C 0.203125 -2.132812 0.285156 -2.453125 0.453125 -2.734375 C 0.617188 -3.015625 0.847656 -3.234375 1.140625 -3.390625 C 1.429688 -3.546875 1.765625 -3.625 2.140625 -3.625 C 2.441406 -3.625 2.71875 -3.566406 2.96875 -3.453125 C 3.21875 -3.347656 3.425781 -3.195312 3.59375 -3 L 3.078125 -2.5 C 2.828125 -2.78125 2.523438 -2.921875 2.171875 -2.921875 C 1.953125 -2.921875 1.753906 -2.875 1.578125 -2.78125 C 1.410156 -2.6875 1.273438 -2.550781 1.171875 -2.375 C 1.078125 -2.195312 1.03125 -2 1.03125 -1.78125 C 1.03125 -1.5625 1.078125 -1.363281 1.171875 -1.1875 C 1.273438 -1.019531 1.410156 -0.882812 1.578125 -0.78125 C 1.753906 -0.6875 1.953125 -0.640625 2.171875 -0.640625 C 2.523438 -0.640625 2.828125 -0.78125 3.078125 -1.0625 L 3.59375 -0.578125 C 3.425781 -0.367188 3.21875 -0.207031 2.96875 -0.09375 C 2.71875 0.0078125 2.4375 0.0625 2.125 0.0625 Z M 2.125 0.0625 "/></g></g></g><g fill="#141d24" fill-opacity="1"><g transform="translate(103.591509, 14.642042)"><g><path d="M 3.1875 -0.65625 L 3.1875 0 L 0.421875 0 L 0.421875 -3.5625 L 3.125 -3.5625 L 3.125 -2.90625 L 1.25 -2.90625 L 1.25 -2.125 L 2.890625 -2.125 L 2.890625 -1.484375 L 1.25 -1.484375 L 1.25 -0.65625 Z M 3.1875 -0.65625 "/></g></g></g><g fill="#141d24" fill-opacity="1"><g transform="translate(108.652198, 14.642042)"><g/></g></g><g fill="#141d24" fill-opacity="1"><g transform="translate(111.735763, 14.642042)"><g><path d="M 2.125 0.0625 C 1.757812 0.0625 1.429688 -0.015625 1.140625 -0.171875 C 0.847656 -0.328125 0.617188 -0.546875 0.453125 -0.828125 C 0.285156 -1.109375 0.203125 -1.425781 0.203125 -1.78125 C 0.203125 -2.132812 0.285156 -2.453125 0.453125 -2.734375 C 0.617188 -3.015625 0.847656 -3.234375 1.140625 -3.390625 C 1.429688 -3.546875 1.765625 -3.625 2.140625 -3.625 C 2.441406 -3.625 2.71875 -3.566406 2.96875 -3.453125 C 3.21875 -3.347656 3.425781 -3.195312 3.59375 -3 L 3.078125 -2.5 C 2.828125 -2.78125 2.523438 -2.921875 2.171875 -2.921875 C 1.953125 -2.921875 1.753906 -2.875 1.578125 -2.78125 C 1.410156 -2.6875 1.273438 -2.550781 1.171875 -2.375 C 1.078125 -2.195312 1.03125 -2 1.03125 -1.78125 C 1.03125 -1.5625 1.078125 -1.363281 1.171875 -1.1875 C 1.273438 -1.019531 1.410156 -0.882812 1.578125 -0.78125 C 1.753906 -0.6875 1.953125 -0.640625 2.171875 -0.640625 C 2.523438 -0.640625 2.828125 -0.78125 3.078125 -1.0625 L 3.59375 -0.578125 C 3.425781 -0.367188 3.21875 -0.207031 2.96875 -0.09375 C 2.71875 0.0078125 2.4375 0.0625 2.125 0.0625 Z M 2.125 0.0625 "/></g></g></g><g fill="#141d24" fill-opacity="1"><g transform="translate(117.112389, 14.642042)"><g><path d="M 0.421875 -3.5625 L 1.25 -3.5625 L 1.25 -0.671875 L 3.03125 -0.671875 L 3.03125 0 L 0.421875 0 Z M 0.421875 -3.5625 "/></g></g></g><g fill="#141d24" fill-opacity="1"><g transform="translate(121.831672, 14.642042)"><g><path d="M 2 0.0625 C 1.5 0.0625 1.101562 -0.078125 0.8125 -0.359375 C 0.53125 -0.640625 0.390625 -1.039062 0.390625 -1.5625 L 0.390625 -3.5625 L 1.21875 -3.5625 L 1.21875 -1.59375 C 1.21875 -0.957031 1.484375 -0.640625 2.015625 -0.640625 C 2.273438 -0.640625 2.472656 -0.71875 2.609375 -0.875 C 2.742188 -1.03125 2.8125 -1.269531 2.8125 -1.59375 L 2.8125 -3.5625 L 3.625 -3.5625 L 3.625 -1.5625 C 3.625 -1.039062 3.476562 -0.640625 3.1875 -0.359375 C 2.90625 -0.078125 2.507812 0.0625 2 0.0625 Z M 2 0.0625 "/></g></g></g><g fill="#141d24" fill-opacity="1"><g transform="translate(127.488558, 14.642042)"><g><path d="M 3.046875 -1.859375 C 3.242188 -1.785156 3.398438 -1.671875 3.515625 -1.515625 C 3.628906 -1.367188 3.6875 -1.1875 3.6875 -0.96875 C 3.6875 -0.65625 3.566406 -0.414062 3.328125 -0.25 C 3.085938 -0.0820312 2.734375 0 2.265625 0 L 0.421875 0 L 0.421875 -3.5625 L 2.171875 -3.5625 C 2.597656 -3.5625 2.925781 -3.476562 3.15625 -3.3125 C 3.394531 -3.144531 3.515625 -2.921875 3.515625 -2.640625 C 3.515625 -2.460938 3.472656 -2.304688 3.390625 -2.171875 C 3.304688 -2.035156 3.191406 -1.929688 3.046875 -1.859375 Z M 1.25 -2.9375 L 1.25 -2.109375 L 2.0625 -2.109375 C 2.269531 -2.109375 2.425781 -2.140625 2.53125 -2.203125 C 2.632812 -2.273438 2.6875 -2.382812 2.6875 -2.53125 C 2.6875 -2.664062 2.632812 -2.765625 2.53125 -2.828125 C 2.425781 -2.898438 2.269531 -2.9375 2.0625 -2.9375 Z M 2.203125 -0.625 C 2.421875 -0.625 2.582031 -0.65625 2.6875 -0.71875 C 2.800781 -0.789062 2.859375 -0.90625 2.859375 -1.0625 C 2.859375 -1.351562 2.640625 -1.5 2.203125 -1.5 L 1.25 -1.5 L 1.25 -0.625 Z M 2.203125 -0.625 "/></g></g></g><g fill="#008037" fill-opacity="1"><g transform="translate(43.217865, 18.574729)"><g><path d="M 1.25 0.03125 C 1.039062 0.03125 0.847656 -0.015625 0.671875 -0.109375 C 0.492188 -0.203125 0.351562 -0.328125 0.25 -0.484375 C 0.15625 -0.648438 0.109375 -0.835938 0.109375 -1.046875 C 0.109375 -1.253906 0.15625 -1.441406 0.25 -1.609375 C 0.351562 -1.773438 0.492188 -1.90625 0.671875 -2 C 0.847656 -2.09375 1.039062 -2.140625 1.25 -2.140625 C 1.4375 -2.140625 1.601562 -2.101562 1.75 -2.03125 C 1.894531 -1.96875 2.019531 -1.878906 2.125 -1.765625 L 1.8125 -1.46875 C 1.664062 -1.632812 1.488281 -1.71875 1.28125 -1.71875 C 1.15625 -1.71875 1.039062 -1.6875 0.9375 -1.625 C 0.832031 -1.570312 0.75 -1.492188 0.6875 -1.390625 C 0.632812 -1.296875 0.609375 -1.179688 0.609375 -1.046875 C 0.609375 -0.921875 0.632812 -0.804688 0.6875 -0.703125 C 0.75 -0.597656 0.832031 -0.515625 0.9375 -0.453125 C 1.039062 -0.398438 1.15625 -0.375 1.28125 -0.375 C 1.488281 -0.375 1.664062 -0.457031 1.8125 -0.625 L 2.125 -0.34375 C 2.019531 -0.21875 1.894531 -0.125 1.75 -0.0625 C 1.601562 0 1.4375 0.03125 1.25 0.03125 Z M 1.25 0.03125 "/></g></g></g><g fill="#008037" fill-opacity="1"><g transform="translate(47.734689, 18.574729)"><g><path d="M 1.265625 0.03125 C 1.046875 0.03125 0.847656 -0.015625 0.671875 -0.109375 C 0.492188 -0.203125 0.351562 -0.328125 0.25 -0.484375 C 0.15625 -0.648438 0.109375 -0.835938 0.109375 -1.046875 C 0.109375 -1.253906 0.15625 -1.441406 0.25 -1.609375 C 0.351562 -1.773438 0.492188 -1.90625 0.671875 -2 C 0.847656 -2.09375 1.046875 -2.140625 1.265625 -2.140625 C 1.484375 -2.140625 1.675781 -2.09375 1.84375 -2 C 2.019531 -1.90625 2.160156 -1.773438 2.265625 -1.609375 C 2.367188 -1.441406 2.421875 -1.253906 2.421875 -1.046875 C 2.421875 -0.835938 2.367188 -0.648438 2.265625 -0.484375 C 2.160156 -0.328125 2.019531 -0.203125 1.84375 -0.109375 C 1.675781 -0.015625 1.484375 0.03125 1.265625 0.03125 Z M 1.265625 -0.375 C 1.390625 -0.375 1.5 -0.398438 1.59375 -0.453125 C 1.695312 -0.515625 1.773438 -0.597656 1.828125 -0.703125 C 1.890625 -0.804688 1.921875 -0.921875 1.921875 -1.046875 C 1.921875 -1.179688 1.890625 -1.296875 1.828125 -1.390625 C 1.773438 -1.492188 1.695312 -1.570312 1.59375 -1.625 C 1.5 -1.6875 1.390625 -1.71875 1.265625 -1.71875 C 1.140625 -1.71875 1.023438 -1.6875 0.921875 -1.625 C 0.828125 -1.570312 0.75 -1.492188 0.6875 -1.390625 C 0.632812 -1.296875 0.609375 -1.179688 0.609375 -1.046875 C 0.609375 -0.921875 0.632812 -0.804688 0.6875 -0.703125 C 0.75 -0.597656 0.828125 -0.515625 0.921875 -0.453125 C 1.023438 -0.398438 1.140625 -0.375 1.265625 -0.375 Z M 1.265625 -0.375 "/></g></g></g><g fill="#008037" fill-opacity="1"><g transform="translate(52.583952, 18.574729)"><g><path d="M 0.25 -2.09375 L 0.734375 -2.09375 L 0.734375 -0.390625 L 1.78125 -0.390625 L 1.78125 0 L 0.25 0 Z M 0.25 -2.09375 "/></g></g></g><g fill="#008037" fill-opacity="1"><g transform="translate(56.714428, 18.574729)"><g><path d="M 0.25 -2.09375 L 0.734375 -2.09375 L 0.734375 -0.390625 L 1.78125 -0.390625 L 1.78125 0 L 0.25 0 Z M 0.25 -2.09375 "/></g></g></g><g fill="#008037" fill-opacity="1"><g transform="translate(60.844904, 18.574729)"><g><path d="M 1.875 -0.390625 L 1.875 0 L 0.25 0 L 0.25 -2.09375 L 1.84375 -2.09375 L 1.84375 -1.703125 L 0.734375 -1.703125 L 0.734375 -1.25 L 1.703125 -1.25 L 1.703125 -0.875 L 0.734375 -0.875 L 0.734375 -0.390625 Z M 1.875 -0.390625 "/></g></g></g><g fill="#008037" fill-opacity="1"><g transform="translate(65.176042, 18.574729)"><g><path d="M 1.671875 -1.078125 L 2.109375 -1.078125 L 2.109375 -0.234375 C 1.992188 -0.148438 1.859375 -0.0820312 1.703125 -0.03125 C 1.554688 0.0078125 1.410156 0.03125 1.265625 0.03125 C 1.046875 0.03125 0.847656 -0.015625 0.671875 -0.109375 C 0.492188 -0.203125 0.351562 -0.328125 0.25 -0.484375 C 0.15625 -0.648438 0.109375 -0.835938 0.109375 -1.046875 C 0.109375 -1.253906 0.15625 -1.441406 0.25 -1.609375 C 0.351562 -1.773438 0.492188 -1.90625 0.671875 -2 C 0.847656 -2.09375 1.046875 -2.140625 1.265625 -2.140625 C 1.453125 -2.140625 1.617188 -2.109375 1.765625 -2.046875 C 1.921875 -1.984375 2.050781 -1.890625 2.15625 -1.765625 L 1.84375 -1.484375 C 1.6875 -1.640625 1.503906 -1.71875 1.296875 -1.71875 C 1.160156 -1.71875 1.039062 -1.6875 0.9375 -1.625 C 0.832031 -1.570312 0.75 -1.492188 0.6875 -1.390625 C 0.632812 -1.296875 0.609375 -1.179688 0.609375 -1.046875 C 0.609375 -0.921875 0.632812 -0.804688 0.6875 -0.703125 C 0.75 -0.597656 0.832031 -0.515625 0.9375 -0.453125 C 1.039062 -0.398438 1.160156 -0.375 1.296875 -0.375 C 1.429688 -0.375 1.554688 -0.40625 1.671875 -0.46875 Z M 1.671875 -1.078125 "/></g></g></g><g fill="#008037" fill-opacity="1"><g transform="translate(69.806673, 18.574729)"><g><path d="M 1.875 -0.390625 L 1.875 0 L 0.25 0 L 0.25 -2.09375 L 1.84375 -2.09375 L 1.84375 -1.703125 L 0.734375 -1.703125 L 0.734375 -1.25 L 1.703125 -1.25 L 1.703125 -0.875 L 0.734375 -0.875 L 0.734375 -0.390625 Z M 1.875 -0.390625 "/></g></g></g><g fill="#008037" fill-opacity="1"><g transform="translate(74.137811, 18.574729)"><g/></g></g><g fill="#008037" fill-opacity="1"><g transform="translate(77.306911, 18.574729)"><g><path d="M 1.265625 0.03125 C 1.046875 0.03125 0.847656 -0.015625 0.671875 -0.109375 C 0.492188 -0.203125 0.351562 -0.328125 0.25 -0.484375 C 0.15625 -0.648438 0.109375 -0.835938 0.109375 -1.046875 C 0.109375 -1.253906 0.15625 -1.441406 0.25 -1.609375 C 0.351562 -1.773438 0.492188 -1.90625 0.671875 -2 C 0.847656 -2.09375 1.046875 -2.140625 1.265625 -2.140625 C 1.484375 -2.140625 1.675781 -2.09375 1.84375 -2 C 2.019531 -1.90625 2.160156 -1.773438 2.265625 -1.609375 C 2.367188 -1.441406 2.421875 -1.253906 2.421875 -1.046875 C 2.421875 -0.835938 2.367188 -0.648438 2.265625 -0.484375 C 2.160156 -0.328125 2.019531 -0.203125 1.84375 -0.109375 C 1.675781 -0.015625 1.484375 0.03125 1.265625 0.03125 Z M 1.265625 -0.375 C 1.390625 -0.375 1.5 -0.398438 1.59375 -0.453125 C 1.695312 -0.515625 1.773438 -0.597656 1.828125 -0.703125 C 1.890625 -0.804688 1.921875 -0.921875 1.921875 -1.046875 C 1.921875 -1.179688 1.890625 -1.296875 1.828125 -1.390625 C 1.773438 -1.492188 1.695312 -1.570312 1.59375 -1.625 C 1.5 -1.6875 1.390625 -1.71875 1.265625 -1.71875 C 1.140625 -1.71875 1.023438 -1.6875 0.921875 -1.625 C 0.828125 -1.570312 0.75 -1.492188 0.6875 -1.390625 C 0.632812 -1.296875 0.609375 -1.179688 0.609375 -1.046875 C 0.609375 -0.921875 0.632812 -0.804688 0.6875 -0.703125 C 0.75 -0.597656 0.828125 -0.515625 0.921875 -0.453125 C 1.023438 -0.398438 1.140625 -0.375 1.265625 -0.375 Z M 1.265625 -0.375 "/></g></g></g><g fill="#008037" fill-opacity="1"><g transform="translate(82.156174, 18.574729)"><g><path d="M 0.734375 -1.703125 L 0.734375 -1.15625 L 1.703125 -1.15625 L 1.703125 -0.765625 L 0.734375 -0.765625 L 0.734375 0 L 0.25 0 L 0.25 -2.09375 L 1.84375 -2.09375 L 1.84375 -1.703125 Z M 0.734375 -1.703125 "/></g></g></g><g fill="#008037" fill-opacity="1"><g transform="translate(86.391474, 18.574729)"><g/></g></g><g fill="#008037" fill-opacity="1"><g transform="translate(89.560574, 18.574729)"><g><path d="M 0.25 -2.09375 L 1.203125 -2.09375 C 1.429688 -2.09375 1.628906 -2.050781 1.796875 -1.96875 C 1.972656 -1.882812 2.109375 -1.757812 2.203125 -1.59375 C 2.304688 -1.4375 2.359375 -1.253906 2.359375 -1.046875 C 2.359375 -0.835938 2.304688 -0.65625 2.203125 -0.5 C 2.109375 -0.34375 1.972656 -0.21875 1.796875 -0.125 C 1.628906 -0.0390625 1.429688 0 1.203125 0 L 0.25 0 Z M 1.171875 -0.40625 C 1.390625 -0.40625 1.5625 -0.460938 1.6875 -0.578125 C 1.8125 -0.691406 1.875 -0.847656 1.875 -1.046875 C 1.875 -1.242188 1.8125 -1.398438 1.6875 -1.515625 C 1.5625 -1.640625 1.390625 -1.703125 1.171875 -1.703125 L 0.734375 -1.703125 L 0.734375 -0.40625 Z M 1.171875 -0.40625 "/></g></g></g><g fill="#008037" fill-opacity="1"><g transform="translate(94.35593, 18.574729)"><g><path d="M 1.1875 0.03125 C 0.882812 0.03125 0.648438 -0.0507812 0.484375 -0.21875 C 0.316406 -0.382812 0.234375 -0.617188 0.234375 -0.921875 L 0.234375 -2.09375 L 0.71875 -2.09375 L 0.71875 -0.9375 C 0.71875 -0.5625 0.875 -0.375 1.1875 -0.375 C 1.332031 -0.375 1.445312 -0.421875 1.53125 -0.515625 C 1.613281 -0.609375 1.65625 -0.75 1.65625 -0.9375 L 1.65625 -2.09375 L 2.140625 -2.09375 L 2.140625 -0.921875 C 2.140625 -0.617188 2.050781 -0.382812 1.875 -0.21875 C 1.707031 -0.0507812 1.476562 0.03125 1.1875 0.03125 Z M 1.1875 0.03125 "/></g></g></g><g fill="#008037" fill-opacity="1"><g transform="translate(99.037472, 18.574729)"><g><path d="M 1.15625 -2.09375 C 1.34375 -2.09375 1.503906 -2.0625 1.640625 -2 C 1.773438 -1.9375 1.878906 -1.847656 1.953125 -1.734375 C 2.023438 -1.628906 2.0625 -1.5 2.0625 -1.34375 C 2.0625 -1.1875 2.023438 -1.050781 1.953125 -0.9375 C 1.878906 -0.820312 1.773438 -0.734375 1.640625 -0.671875 C 1.503906 -0.609375 1.34375 -0.578125 1.15625 -0.578125 L 0.734375 -0.578125 L 0.734375 0 L 0.25 0 L 0.25 -2.09375 Z M 1.125 -0.96875 C 1.269531 -0.96875 1.378906 -1 1.453125 -1.0625 C 1.535156 -1.125 1.578125 -1.21875 1.578125 -1.34375 C 1.578125 -1.457031 1.535156 -1.546875 1.453125 -1.609375 C 1.378906 -1.671875 1.269531 -1.703125 1.125 -1.703125 L 0.734375 -1.703125 L 0.734375 -0.96875 Z M 1.125 -0.96875 "/></g></g></g><g fill="#008037" fill-opacity="1"><g transform="translate(103.551302, 18.574729)"><g><path d="M 1.625 -0.453125 L 0.65625 -0.453125 L 0.46875 0 L -0.03125 0 L 0.90625 -2.09375 L 1.390625 -2.09375 L 2.328125 0 L 1.8125 0 Z M 1.484375 -0.8125 L 1.140625 -1.625 L 0.8125 -0.8125 Z M 1.484375 -0.8125 "/></g></g></g><g fill="#008037" fill-opacity="1"><g transform="translate(108.166961, 18.574729)"><g><path d="M 1.671875 -1.078125 L 2.109375 -1.078125 L 2.109375 -0.234375 C 1.992188 -0.148438 1.859375 -0.0820312 1.703125 -0.03125 C 1.554688 0.0078125 1.410156 0.03125 1.265625 0.03125 C 1.046875 0.03125 0.847656 -0.015625 0.671875 -0.109375 C 0.492188 -0.203125 0.351562 -0.328125 0.25 -0.484375 C 0.15625 -0.648438 0.109375 -0.835938 0.109375 -1.046875 C 0.109375 -1.253906 0.15625 -1.441406 0.25 -1.609375 C 0.351562 -1.773438 0.492188 -1.90625 0.671875 -2 C 0.847656 -2.09375 1.046875 -2.140625 1.265625 -2.140625 C 1.453125 -2.140625 1.617188 -2.109375 1.765625 -2.046875 C 1.921875 -1.984375 2.050781 -1.890625 2.15625 -1.765625 L 1.84375 -1.484375 C 1.6875 -1.640625 1.503906 -1.71875 1.296875 -1.71875 C 1.160156 -1.71875 1.039062 -1.6875 0.9375 -1.625 C 0.832031 -1.570312 0.75 -1.492188 0.6875 -1.390625 C 0.632812 -1.296875 0.609375 -1.179688 0.609375 -1.046875 C 0.609375 -0.921875 0.632812 -0.804688 0.6875 -0.703125 C 0.75 -0.597656 0.832031 -0.515625 0.9375 -0.453125 C 1.039062 -0.398438 1.160156 -0.375 1.296875 -0.375 C 1.429688 -0.375 1.554688 -0.40625 1.671875 -0.46875 Z M 1.671875 -1.078125 "/></g></g></g><g fill="#008037" fill-opacity="1"><g transform="translate(112.797593, 18.574729)"><g><path d="M 1.875 -0.390625 L 1.875 0 L 0.25 0 L 0.25 -2.09375 L 1.84375 -2.09375 L 1.84375 -1.703125 L 0.734375 -1.703125 L 0.734375 -1.25 L 1.703125 -1.25 L 1.703125 -0.875 L 0.734375 -0.875 L 0.734375 -0.390625 Z M 1.875 -0.390625 "/></g></g></g></svg>