<svg xmlns="http://www.w3.org/2000/svg" xmlns:xlink="http://www.w3.org/1999/xlink" width="372" zoomAndPan="magnify" viewBox="0 0 279 60" height="80" preserveAspectRatio="xMidYMid meet" version="1.0"><defs><g/><clipPath id="de3a60317c"><path d="M 16.496094 13.570312 L 42.746094 13.570312 L 42.746094 46.570312 L 16.496094 46.570312 Z M 16.496094 13.570312 " clip-rule="nonzero"/></clipPath><clipPath id="f22eda2820"><path d="M 34.800781 39.484375 L 34.800781 34.398438 L 22.566406 34.398438 L 22.566406 37.332031 C 23.316406 37.472656 23.929688 37.992188 24.203125 38.6875 L 28.726562 38.6875 C 28.976562 38.34375 29.378906 38.121094 29.835938 38.121094 C 30.585938 38.121094 31.199219 38.730469 31.199219 39.484375 C 31.199219 40.242188 30.585938 40.855469 29.835938 40.855469 C 29.378906 40.855469 28.976562 40.628906 28.726562 40.285156 L 24.203125 40.285156 C 24.039062 40.699219 23.753906 41.054688 23.390625 41.300781 C 23.589844 41.699219 23.851562 42.0625 24.164062 42.375 C 24.902344 43.117188 25.925781 43.578125 27.046875 43.578125 L 35.226562 43.578125 C 35.546875 42.765625 36.335938 42.1875 37.261719 42.1875 C 38.1875 42.1875 38.976562 42.765625 39.296875 43.578125 C 39.390625 43.828125 39.445312 44.097656 39.445312 44.378906 C 39.445312 45.585938 38.46875 46.566406 37.261719 46.566406 C 36.335938 46.566406 35.546875 45.992188 35.226562 45.175781 L 27.046875 45.175781 C 25.484375 45.175781 24.066406 44.535156 23.039062 43.503906 C 22.511719 42.976562 22.085938 42.34375 21.796875 41.644531 C 20.890625 41.488281 20.171875 40.769531 20.015625 39.859375 C 19.316406 39.566406 18.6875 39.144531 18.160156 38.613281 C 17.132812 37.582031 16.496094 36.160156 16.496094 34.59375 C 16.496094 33.542969 16.785156 32.554688 17.289062 31.703125 C 17.429688 31.460938 17.589844 31.230469 17.765625 31.015625 C 17.691406 30.792969 17.648438 30.554688 17.648438 30.304688 C 17.648438 29.9375 17.742188 29.589844 17.898438 29.285156 C 17.671875 29.023438 17.464844 28.738281 17.289062 28.4375 C 16.785156 27.589844 16.496094 26.601562 16.496094 25.546875 C 16.496094 23.980469 17.132812 22.558594 18.160156 21.527344 C 18.6875 21 19.316406 20.574219 20.015625 20.285156 C 20.171875 19.375 20.890625 18.652344 21.796875 18.496094 C 22.085938 17.796875 22.511719 17.164062 23.039062 16.636719 C 24.066406 15.605469 25.484375 14.964844 27.046875 14.964844 L 35.226562 14.964844 C 35.546875 14.152344 36.335938 13.574219 37.261719 13.574219 C 38.1875 13.574219 38.976562 14.152344 39.296875 14.964844 C 39.390625 15.214844 39.445312 15.484375 39.445312 15.765625 C 39.445312 16.046875 39.390625 16.316406 39.296875 16.5625 C 38.976562 17.378906 38.1875 17.953125 37.261719 17.953125 C 36.335938 17.953125 35.546875 17.378906 35.226562 16.5625 L 27.046875 16.5625 C 25.925781 16.5625 24.902344 17.023438 24.164062 17.765625 C 23.851562 18.078125 23.589844 18.441406 23.390625 18.839844 C 23.753906 19.089844 24.039062 19.441406 24.203125 19.859375 L 28.726562 19.859375 C 28.976562 19.511719 29.378906 19.289062 29.835938 19.289062 C 30.585938 19.289062 31.199219 19.902344 31.199219 20.65625 C 31.199219 21.410156 30.585938 22.023438 29.835938 22.023438 C 29.378906 22.023438 28.976562 21.800781 28.726562 21.453125 L 24.203125 21.453125 C 23.929688 22.148438 23.316406 22.671875 22.566406 22.808594 L 22.566406 25.746094 L 31.984375 25.746094 C 32.148438 25.308594 32.566406 24.996094 33.058594 24.996094 C 33.691406 24.996094 34.203125 25.507812 34.203125 26.144531 C 34.203125 26.285156 34.179688 26.417969 34.132812 26.542969 C 33.972656 26.980469 33.550781 27.292969 33.058594 27.292969 C 32.566406 27.292969 32.148438 26.980469 31.984375 26.542969 L 21.769531 26.542969 L 21.769531 22.808594 C 21.183594 22.699219 20.679688 22.359375 20.359375 21.882812 C 19.960938 22.082031 19.597656 22.34375 19.285156 22.65625 C 18.546875 23.398438 18.085938 24.421875 18.085938 25.546875 C 18.085938 26.304688 18.292969 27.019531 18.65625 27.628906 C 18.785156 27.84375 18.933594 28.050781 19.101562 28.242188 C 19.328125 28.160156 19.578125 28.113281 19.832031 28.113281 C 20.902344 28.113281 21.792969 28.886719 21.980469 29.90625 L 36.820312 29.90625 L 36.820312 21.734375 C 36.386719 21.570312 36.074219 21.148438 36.074219 20.65625 C 36.074219 20.023438 36.585938 19.507812 37.21875 19.507812 C 37.851562 19.507812 38.363281 20.023438 38.363281 20.65625 C 38.363281 21.148438 38.054688 21.570312 37.617188 21.734375 L 37.617188 25.746094 L 40.523438 25.746094 C 40.6875 25.308594 41.105469 24.996094 41.597656 24.996094 C 42.230469 24.996094 42.746094 25.511719 42.746094 26.144531 C 42.746094 26.777344 42.230469 27.292969 41.597656 27.292969 C 41.105469 27.292969 40.6875 26.980469 40.523438 26.542969 L 37.617188 26.542969 L 37.617188 30.703125 L 21.980469 30.703125 C 21.792969 31.722656 20.902344 32.496094 19.832031 32.496094 C 19.46875 32.496094 19.128906 32.40625 18.828125 32.25 C 18.765625 32.335938 18.710938 32.425781 18.65625 32.515625 C 18.292969 33.125 18.085938 33.835938 18.085938 34.59375 C 18.085938 35.71875 18.546875 36.742188 19.285156 37.484375 C 19.597656 37.796875 19.960938 38.0625 20.359375 38.261719 C 20.679688 37.785156 21.183594 37.441406 21.769531 37.332031 L 21.769531 33.597656 L 38.511719 33.597656 C 38.671875 33.160156 39.09375 32.851562 39.585938 32.851562 C 40.078125 32.851562 40.5 33.160156 40.660156 33.597656 C 40.707031 33.722656 40.730469 33.859375 40.730469 34 C 40.730469 34.140625 40.707031 34.273438 40.660156 34.398438 C 40.5 34.835938 40.078125 35.148438 39.585938 35.148438 C 39.09375 35.148438 38.671875 34.835938 38.511719 34.398438 L 35.597656 34.398438 L 35.597656 39.085938 L 40.523438 39.085938 C 40.6875 38.648438 41.105469 38.339844 41.597656 38.339844 C 42.230469 38.339844 42.746094 38.851562 42.746094 39.484375 C 42.746094 40.121094 42.230469 40.636719 41.597656 40.636719 C 41.105469 40.636719 40.6875 40.324219 40.523438 39.886719 L 34.800781 39.886719 Z M 34.800781 39.484375 " clip-rule="evenodd"/></clipPath><linearGradient x1="1088.807264" gradientTransform="matrix(0.00375097, 0, 0, 0.00376164, 16.494465, 13.574739)" y1="9361.584583" x2="6356.90631" gradientUnits="userSpaceOnUse" y2="-347.950429" id="48402a1c8f"><stop stop-opacity="1" stop-color="rgb(1.144409%, 1.96991%, 2.850342%)" offset="0"/><stop stop-opacity="1" stop-color="rgb(1.254272%, 2.159119%, 3.123474%)" offset="0.00390625"/><stop stop-opacity="1" stop-color="rgb(1.365662%, 2.348328%, 3.396606%)" offset="0.0078125"/><stop stop-opacity="1" stop-color="rgb(1.475525%, 2.537537%, 3.669739%)" offset="0.0117187"/><stop stop-opacity="1" stop-color="rgb(1.585388%, 2.726746%, 3.944397%)" offset="0.015625"/><stop stop-opacity="1" stop-color="rgb(1.695251%, 2.915955%, 4.217529%)" offset="0.0195312"/><stop stop-opacity="1" stop-color="rgb(1.805115%, 3.105164%, 4.492188%)" offset="0.0234375"/><stop stop-opacity="1" stop-color="rgb(1.914978%, 3.292847%, 4.76532%)" offset="0.0273437"/><stop stop-opacity="1" stop-color="rgb(2.024841%, 3.482056%, 5.039978%)" offset="0.03125"/><stop stop-opacity="1" stop-color="rgb(2.134705%, 3.671265%, 5.31311%)" offset="0.0351562"/><stop stop-opacity="1" stop-color="rgb(2.244568%, 3.860474%, 5.586243%)" offset="0.0390625"/><stop stop-opacity="1" stop-color="rgb(2.354431%, 4.049683%, 5.859375%)" offset="0.0429688"/><stop stop-opacity="1" stop-color="rgb(2.46582%, 4.238892%, 6.134033%)" offset="0.046875"/><stop stop-opacity="1" stop-color="rgb(2.575684%, 4.428101%, 6.407166%)" offset="0.0507813"/><stop stop-opacity="1" stop-color="rgb(2.685547%, 4.61731%, 6.681824%)" offset="0.0546875"/><stop stop-opacity="1" stop-color="rgb(2.79541%, 4.806519%, 6.954956%)" offset="0.0585938"/><stop stop-opacity="1" stop-color="rgb(2.905273%, 4.995728%, 7.228088%)" offset="0.0625"/><stop stop-opacity="1" stop-color="rgb(3.015137%, 5.184937%, 7.501221%)" offset="0.0664062"/><stop stop-opacity="1" stop-color="rgb(3.125%, 5.374146%, 7.775879%)" offset="0.0703125"/><stop stop-opacity="1" stop-color="rgb(3.234863%, 5.563354%, 8.049011%)" offset="0.0742187"/><stop stop-opacity="1" stop-color="rgb(3.344727%, 5.752563%, 8.323669%)" offset="0.078125"/><stop stop-opacity="1" stop-color="rgb(3.45459%, 5.941772%, 8.596802%)" offset="0.0820313"/><stop stop-opacity="1" stop-color="rgb(3.565979%, 6.130981%, 8.87146%)" offset="0.0859375"/><stop stop-opacity="1" stop-color="rgb(3.675842%, 6.32019%, 9.144592%)" offset="0.0898437"/><stop stop-opacity="1" stop-color="rgb(3.785706%, 6.509399%, 9.417725%)" offset="0.09375"/><stop stop-opacity="1" stop-color="rgb(3.895569%, 6.698608%, 9.690857%)" offset="0.0976563"/><stop stop-opacity="1" stop-color="rgb(4.005432%, 6.887817%, 9.965515%)" offset="0.101563"/><stop stop-opacity="1" stop-color="rgb(4.115295%, 7.077026%, 10.238647%)" offset="0.105469"/><stop stop-opacity="1" stop-color="rgb(4.225159%, 7.266235%, 10.513306%)" offset="0.109375"/><stop stop-opacity="1" stop-color="rgb(4.335022%, 7.455444%, 10.786438%)" offset="0.113281"/><stop stop-opacity="1" stop-color="rgb(4.444885%, 7.644653%, 11.061096%)" offset="0.117188"/><stop stop-opacity="1" stop-color="rgb(4.554749%, 7.833862%, 11.334229%)" offset="0.121094"/><stop stop-opacity="1" stop-color="rgb(4.666138%, 8.023071%, 11.607361%)" offset="0.125"/><stop stop-opacity="1" stop-color="rgb(4.776001%, 8.21228%, 11.880493%)" offset="0.128906"/><stop stop-opacity="1" stop-color="rgb(4.885864%, 8.401489%, 12.155151%)" offset="0.132812"/><stop stop-opacity="1" stop-color="rgb(4.995728%, 8.590698%, 12.428284%)" offset="0.136719"/><stop stop-opacity="1" stop-color="rgb(5.105591%, 8.779907%, 12.702942%)" offset="0.140625"/><stop stop-opacity="1" stop-color="rgb(5.215454%, 8.969116%, 12.976074%)" offset="0.144531"/><stop stop-opacity="1" stop-color="rgb(5.325317%, 9.158325%, 13.250732%)" offset="0.148438"/><stop stop-opacity="1" stop-color="rgb(5.435181%, 9.347534%, 13.523865%)" offset="0.152344"/><stop stop-opacity="1" stop-color="rgb(5.545044%, 9.536743%, 13.796997%)" offset="0.15625"/><stop stop-opacity="1" stop-color="rgb(5.654907%, 9.725952%, 14.070129%)" offset="0.160156"/><stop stop-opacity="1" stop-color="rgb(5.766296%, 9.915161%, 14.344788%)" offset="0.164062"/><stop stop-opacity="1" stop-color="rgb(5.87616%, 10.10437%, 14.61792%)" offset="0.167969"/><stop stop-opacity="1" stop-color="rgb(5.986023%, 10.293579%, 14.892578%)" offset="0.171875"/><stop stop-opacity="1" stop-color="rgb(6.095886%, 10.482788%, 15.16571%)" offset="0.175781"/><stop stop-opacity="1" stop-color="rgb(6.20575%, 10.671997%, 15.440369%)" offset="0.179688"/><stop stop-opacity="1" stop-color="rgb(6.315613%, 10.861206%, 15.713501%)" offset="0.183594"/><stop stop-opacity="1" stop-color="rgb(6.425476%, 11.050415%, 15.986633%)" offset="0.1875"/><stop stop-opacity="1" stop-color="rgb(6.535339%, 11.239624%, 16.259766%)" offset="0.191406"/><stop stop-opacity="1" stop-color="rgb(6.645203%, 11.428833%, 16.534424%)" offset="0.195313"/><stop stop-opacity="1" stop-color="rgb(6.755066%, 11.618042%, 16.807556%)" offset="0.199219"/><stop stop-opacity="1" stop-color="rgb(6.866455%, 11.807251%, 17.082214%)" offset="0.203125"/><stop stop-opacity="1" stop-color="rgb(6.976318%, 11.994934%, 17.355347%)" offset="0.207031"/><stop stop-opacity="1" stop-color="rgb(7.086182%, 12.184143%, 17.630005%)" offset="0.210938"/><stop stop-opacity="1" stop-color="rgb(7.196045%, 12.373352%, 17.903137%)" offset="0.214844"/><stop stop-opacity="1" stop-color="rgb(7.305908%, 12.562561%, 18.17627%)" offset="0.21875"/><stop stop-opacity="1" stop-color="rgb(7.415771%, 12.75177%, 18.449402%)" offset="0.222656"/><stop stop-opacity="1" stop-color="rgb(7.525635%, 12.940979%, 18.72406%)" offset="0.226562"/><stop stop-opacity="1" stop-color="rgb(7.635498%, 13.130188%, 18.997192%)" offset="0.230469"/><stop stop-opacity="1" stop-color="rgb(7.745361%, 13.319397%, 19.271851%)" offset="0.234375"/><stop stop-opacity="1" stop-color="rgb(7.855225%, 13.508606%, 19.544983%)" offset="0.238281"/><stop stop-opacity="1" stop-color="rgb(7.966614%, 13.697815%, 19.819641%)" offset="0.242188"/><stop stop-opacity="1" stop-color="rgb(8.076477%, 13.887024%, 20.092773%)" offset="0.246094"/><stop stop-opacity="1" stop-color="rgb(8.18634%, 14.076233%, 20.365906%)" offset="0.25"/><stop stop-opacity="1" stop-color="rgb(8.172607%, 14.353943%, 20.347595%)" offset="0.253906"/><stop stop-opacity="1" stop-color="rgb(8.1604%, 14.633179%, 20.330811%)" offset="0.257812"/><stop stop-opacity="1" stop-color="rgb(8.140564%, 14.916992%, 20.294189%)" offset="0.261719"/><stop stop-opacity="1" stop-color="rgb(8.120728%, 15.202332%, 20.259094%)" offset="0.265625"/><stop stop-opacity="1" stop-color="rgb(8.099365%, 15.486145%, 20.222473%)" offset="0.269531"/><stop stop-opacity="1" stop-color="rgb(8.079529%, 15.769958%, 20.185852%)" offset="0.273438"/><stop stop-opacity="1" stop-color="rgb(8.058167%, 16.053772%, 20.149231%)" offset="0.277344"/><stop stop-opacity="1" stop-color="rgb(8.03833%, 16.339111%, 20.114136%)" offset="0.28125"/><stop stop-opacity="1" stop-color="rgb(8.016968%, 16.622925%, 20.077515%)" offset="0.285156"/><stop stop-opacity="1" stop-color="rgb(7.997131%, 16.906738%, 20.042419%)" offset="0.289062"/><stop stop-opacity="1" stop-color="rgb(7.977295%, 17.190552%, 20.005798%)" offset="0.292969"/><stop stop-opacity="1" stop-color="rgb(7.957458%, 17.475891%, 19.969177%)" offset="0.296875"/><stop stop-opacity="1" stop-color="rgb(7.936096%, 17.759705%, 19.932556%)" offset="0.300781"/><stop stop-opacity="1" stop-color="rgb(7.91626%, 18.043518%, 19.897461%)" offset="0.304687"/><stop stop-opacity="1" stop-color="rgb(7.894897%, 18.327332%, 19.86084%)" offset="0.308594"/><stop stop-opacity="1" stop-color="rgb(7.875061%, 18.612671%, 19.824219%)" offset="0.3125"/><stop stop-opacity="1" stop-color="rgb(7.853699%, 18.896484%, 19.787598%)" offset="0.316406"/><stop stop-opacity="1" stop-color="rgb(7.833862%, 19.180298%, 19.752502%)" offset="0.320312"/><stop stop-opacity="1" stop-color="rgb(7.814026%, 19.464111%, 19.715881%)" offset="0.324219"/><stop stop-opacity="1" stop-color="rgb(7.794189%, 19.749451%, 19.67926%)" offset="0.328125"/><stop stop-opacity="1" stop-color="rgb(7.772827%, 20.033264%, 19.642639%)" offset="0.332031"/><stop stop-opacity="1" stop-color="rgb(7.752991%, 20.317078%, 19.607544%)" offset="0.335938"/><stop stop-opacity="1" stop-color="rgb(7.731628%, 20.600891%, 19.570923%)" offset="0.339844"/><stop stop-opacity="1" stop-color="rgb(7.711792%, 20.88623%, 19.535828%)" offset="0.34375"/><stop stop-opacity="1" stop-color="rgb(7.691956%, 21.170044%, 19.499207%)" offset="0.347656"/><stop stop-opacity="1" stop-color="rgb(7.672119%, 21.453857%, 19.462585%)" offset="0.351563"/><stop stop-opacity="1" stop-color="rgb(7.650757%, 21.737671%, 19.425964%)" offset="0.355469"/><stop stop-opacity="1" stop-color="rgb(7.63092%, 22.02301%, 19.390869%)" offset="0.359375"/><stop stop-opacity="1" stop-color="rgb(7.609558%, 22.306824%, 19.354248%)" offset="0.363281"/><stop stop-opacity="1" stop-color="rgb(7.589722%, 22.590637%, 19.317627%)" offset="0.367188"/><stop stop-opacity="1" stop-color="rgb(7.568359%, 22.874451%, 19.281006%)" offset="0.371094"/><stop stop-opacity="1" stop-color="rgb(7.548523%, 23.15979%, 19.245911%)" offset="0.375"/><stop stop-opacity="1" stop-color="rgb(7.528687%, 23.443604%, 19.20929%)" offset="0.378906"/><stop stop-opacity="1" stop-color="rgb(7.50885%, 23.727417%, 19.172668%)" offset="0.382813"/><stop stop-opacity="1" stop-color="rgb(7.487488%, 24.01123%, 19.136047%)" offset="0.386719"/><stop stop-opacity="1" stop-color="rgb(7.467651%, 24.29657%, 19.100952%)" offset="0.390625"/><stop stop-opacity="1" stop-color="rgb(7.446289%, 24.580383%, 19.064331%)" offset="0.394531"/><stop stop-opacity="1" stop-color="rgb(7.426453%, 24.864197%, 19.029236%)" offset="0.398438"/><stop stop-opacity="1" stop-color="rgb(7.40509%, 25.14801%, 18.992615%)" offset="0.402344"/><stop stop-opacity="1" stop-color="rgb(7.385254%, 25.43335%, 18.955994%)" offset="0.40625"/><stop stop-opacity="1" stop-color="rgb(7.365417%, 25.717163%, 18.919373%)" offset="0.410156"/><stop stop-opacity="1" stop-color="rgb(7.345581%, 26.000977%, 18.884277%)" offset="0.414062"/><stop stop-opacity="1" stop-color="rgb(7.324219%, 26.28479%, 18.847656%)" offset="0.417969"/><stop stop-opacity="1" stop-color="rgb(7.304382%, 26.570129%, 18.811035%)" offset="0.421875"/><stop stop-opacity="1" stop-color="rgb(7.28302%, 26.853943%, 18.774414%)" offset="0.425781"/><stop stop-opacity="1" stop-color="rgb(7.263184%, 27.137756%, 18.739319%)" offset="0.429688"/><stop stop-opacity="1" stop-color="rgb(7.243347%, 27.42157%, 18.702698%)" offset="0.433594"/><stop stop-opacity="1" stop-color="rgb(7.223511%, 27.706909%, 18.667603%)" offset="0.4375"/><stop stop-opacity="1" stop-color="rgb(7.202148%, 27.990723%, 18.630981%)" offset="0.441406"/><stop stop-opacity="1" stop-color="rgb(7.182312%, 28.274536%, 18.59436%)" offset="0.445313"/><stop stop-opacity="1" stop-color="rgb(7.16095%, 28.55835%, 18.557739%)" offset="0.449219"/><stop stop-opacity="1" stop-color="rgb(7.141113%, 28.843689%, 18.522644%)" offset="0.453125"/><stop stop-opacity="1" stop-color="rgb(7.119751%, 29.127502%, 18.486023%)" offset="0.457031"/><stop stop-opacity="1" stop-color="rgb(7.099915%, 29.411316%, 18.449402%)" offset="0.460937"/><stop stop-opacity="1" stop-color="rgb(7.080078%, 29.695129%, 18.412781%)" offset="0.464844"/><stop stop-opacity="1" stop-color="rgb(7.060242%, 29.980469%, 18.377686%)" offset="0.46875"/><stop stop-opacity="1" stop-color="rgb(7.038879%, 30.264282%, 18.341064%)" offset="0.472656"/><stop stop-opacity="1" stop-color="rgb(7.019043%, 30.548096%, 18.304443%)" offset="0.476562"/><stop stop-opacity="1" stop-color="rgb(6.997681%, 30.831909%, 18.267822%)" offset="0.480469"/><stop stop-opacity="1" stop-color="rgb(6.977844%, 31.117249%, 18.232727%)" offset="0.484375"/><stop stop-opacity="1" stop-color="rgb(6.956482%, 31.401062%, 18.196106%)" offset="0.488281"/><stop stop-opacity="1" stop-color="rgb(6.936646%, 31.684875%, 18.161011%)" offset="0.492188"/><stop stop-opacity="1" stop-color="rgb(6.916809%, 31.968689%, 18.12439%)" offset="0.496094"/><stop stop-opacity="1" stop-color="rgb(6.896973%, 32.254028%, 18.087769%)" offset="0.5"/><stop stop-opacity="1" stop-color="rgb(6.87561%, 32.537842%, 18.051147%)" offset="0.503906"/><stop stop-opacity="1" stop-color="rgb(6.855774%, 32.821655%, 18.016052%)" offset="0.507812"/><stop stop-opacity="1" stop-color="rgb(6.834412%, 33.105469%, 17.979431%)" offset="0.511719"/><stop stop-opacity="1" stop-color="rgb(6.814575%, 33.390808%, 17.94281%)" offset="0.515625"/><stop stop-opacity="1" stop-color="rgb(6.794739%, 33.674622%, 17.906189%)" offset="0.519531"/><stop stop-opacity="1" stop-color="rgb(6.774902%, 33.958435%, 17.871094%)" offset="0.523438"/><stop stop-opacity="1" stop-color="rgb(6.75354%, 34.242249%, 17.834473%)" offset="0.527344"/><stop stop-opacity="1" stop-color="rgb(6.733704%, 34.527588%, 17.797852%)" offset="0.53125"/><stop stop-opacity="1" stop-color="rgb(6.712341%, 34.811401%, 17.76123%)" offset="0.535156"/><stop stop-opacity="1" stop-color="rgb(6.692505%, 35.095215%, 17.726135%)" offset="0.539062"/><stop stop-opacity="1" stop-color="rgb(6.671143%, 35.379028%, 17.689514%)" offset="0.542969"/><stop stop-opacity="1" stop-color="rgb(6.651306%, 35.662842%, 17.654419%)" offset="0.546875"/><stop stop-opacity="1" stop-color="rgb(6.63147%, 35.946655%, 17.617798%)" offset="0.550781"/><stop stop-opacity="1" stop-color="rgb(6.611633%, 36.231995%, 17.581177%)" offset="0.554687"/><stop stop-opacity="1" stop-color="rgb(6.590271%, 36.515808%, 17.544556%)" offset="0.558594"/><stop stop-opacity="1" stop-color="rgb(6.570435%, 36.799622%, 17.50946%)" offset="0.5625"/><stop stop-opacity="1" stop-color="rgb(6.549072%, 37.083435%, 17.472839%)" offset="0.566406"/><stop stop-opacity="1" stop-color="rgb(6.529236%, 37.368774%, 17.436218%)" offset="0.570312"/><stop stop-opacity="1" stop-color="rgb(6.507874%, 37.652588%, 17.399597%)" offset="0.574219"/><stop stop-opacity="1" stop-color="rgb(6.488037%, 37.936401%, 17.364502%)" offset="0.578125"/><stop stop-opacity="1" stop-color="rgb(6.468201%, 38.220215%, 17.327881%)" offset="0.582031"/><stop stop-opacity="1" stop-color="rgb(6.448364%, 38.505554%, 17.29126%)" offset="0.585938"/><stop stop-opacity="1" stop-color="rgb(6.427002%, 38.789368%, 17.254639%)" offset="0.589844"/><stop stop-opacity="1" stop-color="rgb(6.407166%, 39.073181%, 17.219543%)" offset="0.59375"/><stop stop-opacity="1" stop-color="rgb(6.385803%, 39.356995%, 17.182922%)" offset="0.597656"/><stop stop-opacity="1" stop-color="rgb(6.365967%, 39.642334%, 17.147827%)" offset="0.601562"/><stop stop-opacity="1" stop-color="rgb(6.344604%, 39.926147%, 17.111206%)" offset="0.605469"/><stop stop-opacity="1" stop-color="rgb(6.324768%, 40.209961%, 17.074585%)" offset="0.609375"/><stop stop-opacity="1" stop-color="rgb(6.304932%, 40.493774%, 17.037964%)" offset="0.613281"/><stop stop-opacity="1" stop-color="rgb(6.285095%, 40.779114%, 17.002869%)" offset="0.617188"/><stop stop-opacity="1" stop-color="rgb(6.263733%, 41.062927%, 16.966248%)" offset="0.621094"/><stop stop-opacity="1" stop-color="rgb(6.243896%, 41.346741%, 16.929626%)" offset="0.625"/><stop stop-opacity="1" stop-color="rgb(6.222534%, 41.630554%, 16.893005%)" offset="0.628906"/><stop stop-opacity="1" stop-color="rgb(6.202698%, 41.915894%, 16.85791%)" offset="0.632812"/><stop stop-opacity="1" stop-color="rgb(6.182861%, 42.199707%, 16.821289%)" offset="0.636719"/><stop stop-opacity="1" stop-color="rgb(6.163025%, 42.483521%, 16.784668%)" offset="0.640625"/><stop stop-opacity="1" stop-color="rgb(6.141663%, 42.767334%, 16.748047%)" offset="0.644531"/><stop stop-opacity="1" stop-color="rgb(6.121826%, 43.052673%, 16.712952%)" offset="0.648438"/><stop stop-opacity="1" stop-color="rgb(6.100464%, 43.336487%, 16.676331%)" offset="0.652344"/><stop stop-opacity="1" stop-color="rgb(6.080627%, 43.6203%, 16.641235%)" offset="0.65625"/><stop stop-opacity="1" stop-color="rgb(6.059265%, 43.904114%, 16.604614%)" offset="0.660156"/><stop stop-opacity="1" stop-color="rgb(6.039429%, 44.189453%, 16.567993%)" offset="0.664062"/><stop stop-opacity="1" stop-color="rgb(6.019592%, 44.473267%, 16.531372%)" offset="0.667969"/><stop stop-opacity="1" stop-color="rgb(5.999756%, 44.75708%, 16.496277%)" offset="0.671875"/><stop stop-opacity="1" stop-color="rgb(5.978394%, 45.040894%, 16.459656%)" offset="0.675781"/><stop stop-opacity="1" stop-color="rgb(5.958557%, 45.326233%, 16.423035%)" offset="0.679688"/><stop stop-opacity="1" stop-color="rgb(5.937195%, 45.610046%, 16.386414%)" offset="0.683594"/><stop stop-opacity="1" stop-color="rgb(5.917358%, 45.89386%, 16.351318%)" offset="0.6875"/><stop stop-opacity="1" stop-color="rgb(5.895996%, 46.177673%, 16.314697%)" offset="0.691406"/><stop stop-opacity="1" stop-color="rgb(5.87616%, 46.463013%, 16.279602%)" offset="0.695312"/><stop stop-opacity="1" stop-color="rgb(5.856323%, 46.746826%, 16.242981%)" offset="0.699219"/><stop stop-opacity="1" stop-color="rgb(5.836487%, 47.03064%, 16.20636%)" offset="0.703125"/><stop stop-opacity="1" stop-color="rgb(5.815125%, 47.314453%, 16.169739%)" offset="0.707031"/><stop stop-opacity="1" stop-color="rgb(5.795288%, 47.599792%, 16.134644%)" offset="0.710938"/><stop stop-opacity="1" stop-color="rgb(5.773926%, 47.883606%, 16.098022%)" offset="0.714844"/><stop stop-opacity="1" stop-color="rgb(5.754089%, 48.167419%, 16.061401%)" offset="0.71875"/><stop stop-opacity="1" stop-color="rgb(5.734253%, 48.451233%, 16.02478%)" offset="0.722656"/><stop stop-opacity="1" stop-color="rgb(5.714417%, 48.736572%, 15.989685%)" offset="0.726562"/><stop stop-opacity="1" stop-color="rgb(5.693054%, 49.020386%, 15.953064%)" offset="0.730469"/><stop stop-opacity="1" stop-color="rgb(5.673218%, 49.304199%, 15.916443%)" offset="0.734375"/><stop stop-opacity="1" stop-color="rgb(5.651855%, 49.588013%, 15.879822%)" offset="0.738281"/><stop stop-opacity="1" stop-color="rgb(5.632019%, 49.873352%, 15.844727%)" offset="0.742188"/><stop stop-opacity="1" stop-color="rgb(5.610657%, 50.157166%, 15.808105%)" offset="0.746094"/><stop stop-opacity="1" stop-color="rgb(5.59082%, 50.440979%, 15.77301%)" offset="0.75"/><stop stop-opacity="1" stop-color="rgb(5.570984%, 50.724792%, 15.736389%)" offset="0.753906"/><stop stop-opacity="1" stop-color="rgb(5.551147%, 51.010132%, 15.699768%)" offset="0.757813"/><stop stop-opacity="1" stop-color="rgb(5.529785%, 51.293945%, 15.663147%)" offset="0.761719"/><stop stop-opacity="1" stop-color="rgb(5.509949%, 51.577759%, 15.628052%)" offset="0.765625"/><stop stop-opacity="1" stop-color="rgb(5.488586%, 51.861572%, 15.591431%)" offset="0.769531"/><stop stop-opacity="1" stop-color="rgb(5.46875%, 52.146912%, 15.55481%)" offset="0.773437"/><stop stop-opacity="1" stop-color="rgb(5.447388%, 52.430725%, 15.518188%)" offset="0.777344"/><stop stop-opacity="1" stop-color="rgb(5.427551%, 52.714539%, 15.483093%)" offset="0.78125"/><stop stop-opacity="1" stop-color="rgb(5.407715%, 52.998352%, 15.446472%)" offset="0.785156"/><stop stop-opacity="1" stop-color="rgb(5.387878%, 53.283691%, 15.409851%)" offset="0.789062"/><stop stop-opacity="1" stop-color="rgb(5.366516%, 53.567505%, 15.37323%)" offset="0.792969"/><stop stop-opacity="1" stop-color="rgb(5.34668%, 53.851318%, 15.338135%)" offset="0.796875"/><stop stop-opacity="1" stop-color="rgb(5.325317%, 54.135132%, 15.301514%)" offset="0.800781"/><stop stop-opacity="1" stop-color="rgb(5.305481%, 54.420471%, 15.266418%)" offset="0.804688"/><stop stop-opacity="1" stop-color="rgb(5.285645%, 54.704285%, 15.229797%)" offset="0.808594"/><stop stop-opacity="1" stop-color="rgb(5.265808%, 54.988098%, 15.193176%)" offset="0.8125"/><stop stop-opacity="1" stop-color="rgb(5.244446%, 55.271912%, 15.156555%)" offset="0.816406"/><stop stop-opacity="1" stop-color="rgb(5.224609%, 55.557251%, 15.12146%)" offset="0.820312"/><stop stop-opacity="1" stop-color="rgb(5.203247%, 55.841064%, 15.084839%)" offset="0.824219"/><stop stop-opacity="1" stop-color="rgb(5.183411%, 56.124878%, 15.048218%)" offset="0.828125"/><stop stop-opacity="1" stop-color="rgb(5.162048%, 56.408691%, 15.011597%)" offset="0.832031"/><stop stop-opacity="1" stop-color="rgb(5.142212%, 56.694031%, 14.976501%)" offset="0.835938"/><stop stop-opacity="1" stop-color="rgb(5.122375%, 56.977844%, 14.93988%)" offset="0.839844"/><stop stop-opacity="1" stop-color="rgb(5.102539%, 57.261658%, 14.903259%)" offset="0.84375"/><stop stop-opacity="1" stop-color="rgb(5.101013%, 57.279968%, 14.900208%)" offset="0.875"/><stop stop-opacity="1" stop-color="rgb(5.099487%, 57.299805%, 14.898682%)" offset="1"/></linearGradient></defs><g clip-path="url(#de3a60317c)"><g clip-path="url(#f22eda2820)"><path fill="url(#48402a1c8f)" d="M 16.496094 13.574219 L 16.496094 46.566406 L 42.746094 46.566406 L 42.746094 13.574219 Z M 16.496094 13.574219 " fill-rule="nonzero"/></g></g><g fill="#141d24" fill-opacity="1"><g transform="translate(50.716996, 30.152146)"><g><path d="M 4.390625 0.125 C 3.640625 0.125 2.960938 -0.0351562 2.359375 -0.359375 C 1.753906 -0.679688 1.273438 -1.128906 0.921875 -1.703125 C 0.578125 -2.285156 0.40625 -2.941406 0.40625 -3.671875 C 0.40625 -4.398438 0.578125 -5.050781 0.921875 -5.625 C 1.273438 -6.207031 1.753906 -6.660156 2.359375 -6.984375 C 2.960938 -7.304688 3.644531 -7.46875 4.40625 -7.46875 C 5.039062 -7.46875 5.613281 -7.351562 6.125 -7.125 C 6.644531 -6.90625 7.078125 -6.585938 7.421875 -6.171875 L 6.328125 -5.171875 C 5.835938 -5.742188 5.222656 -6.03125 4.484375 -6.03125 C 4.023438 -6.03125 3.617188 -5.925781 3.265625 -5.71875 C 2.910156 -5.519531 2.628906 -5.242188 2.421875 -4.890625 C 2.222656 -4.535156 2.125 -4.128906 2.125 -3.671875 C 2.125 -3.222656 2.222656 -2.816406 2.421875 -2.453125 C 2.628906 -2.097656 2.910156 -1.820312 3.265625 -1.625 C 3.617188 -1.425781 4.023438 -1.328125 4.484375 -1.328125 C 5.222656 -1.328125 5.835938 -1.613281 6.328125 -2.1875 L 7.421875 -1.1875 C 7.078125 -0.757812 6.644531 -0.429688 6.125 -0.203125 C 5.601562 0.015625 5.023438 0.125 4.390625 0.125 Z M 4.390625 0.125 "/></g></g></g><g fill="#141d24" fill-opacity="1"><g transform="translate(61.789001, 30.152146)"><g><path d="M 4.4375 0.125 C 3.664062 0.125 2.972656 -0.0351562 2.359375 -0.359375 C 1.753906 -0.691406 1.273438 -1.144531 0.921875 -1.71875 C 0.578125 -2.300781 0.40625 -2.953125 0.40625 -3.671875 C 0.40625 -4.390625 0.578125 -5.035156 0.921875 -5.609375 C 1.273438 -6.191406 1.753906 -6.644531 2.359375 -6.96875 C 2.972656 -7.300781 3.664062 -7.46875 4.4375 -7.46875 C 5.195312 -7.46875 5.878906 -7.300781 6.484375 -6.96875 C 7.097656 -6.644531 7.578125 -6.191406 7.921875 -5.609375 C 8.273438 -5.035156 8.453125 -4.390625 8.453125 -3.671875 C 8.453125 -2.953125 8.273438 -2.300781 7.921875 -1.71875 C 7.578125 -1.144531 7.097656 -0.691406 6.484375 -0.359375 C 5.878906 -0.0351562 5.195312 0.125 4.4375 0.125 Z M 4.4375 -1.328125 C 4.863281 -1.328125 5.25 -1.425781 5.59375 -1.625 C 5.945312 -1.820312 6.222656 -2.097656 6.421875 -2.453125 C 6.628906 -2.816406 6.734375 -3.222656 6.734375 -3.671875 C 6.734375 -4.128906 6.628906 -4.535156 6.421875 -4.890625 C 6.222656 -5.242188 5.945312 -5.519531 5.59375 -5.71875 C 5.25 -5.925781 4.863281 -6.03125 4.4375 -6.03125 C 4 -6.03125 3.601562 -5.925781 3.25 -5.71875 C 2.90625 -5.519531 2.628906 -5.242188 2.421875 -4.890625 C 2.222656 -4.535156 2.125 -4.128906 2.125 -3.671875 C 2.125 -3.222656 2.222656 -2.816406 2.421875 -2.453125 C 2.628906 -2.097656 2.90625 -1.820312 3.25 -1.625 C 3.601562 -1.425781 4 -1.328125 4.4375 -1.328125 Z M 4.4375 -1.328125 "/></g></g></g><g fill="#141d24" fill-opacity="1"><g transform="translate(74.025779, 30.152146)"><g><path d="M 7.5625 0 L 7.546875 -4.40625 L 5.390625 -0.78125 L 4.625 -0.78125 L 2.46875 -4.3125 L 2.46875 0 L 0.875 0 L 0.875 -7.34375 L 2.28125 -7.34375 L 5.03125 -2.78125 L 7.734375 -7.34375 L 9.140625 -7.34375 L 9.15625 0 Z M 7.5625 0 "/></g></g></g><g fill="#141d24" fill-opacity="1"><g transform="translate(87.427336, 30.152146)"><g><path d="M 4.046875 -7.34375 C 4.703125 -7.34375 5.269531 -7.234375 5.75 -7.015625 C 6.226562 -6.804688 6.597656 -6.5 6.859375 -6.09375 C 7.117188 -5.695312 7.25 -5.226562 7.25 -4.6875 C 7.25 -4.144531 7.117188 -3.671875 6.859375 -3.265625 C 6.597656 -2.867188 6.226562 -2.5625 5.75 -2.34375 C 5.269531 -2.132812 4.703125 -2.03125 4.046875 -2.03125 L 2.578125 -2.03125 L 2.578125 0 L 0.875 0 L 0.875 -7.34375 Z M 3.953125 -3.40625 C 4.460938 -3.40625 4.847656 -3.515625 5.109375 -3.734375 C 5.378906 -3.960938 5.515625 -4.28125 5.515625 -4.6875 C 5.515625 -5.09375 5.378906 -5.40625 5.109375 -5.625 C 4.847656 -5.851562 4.460938 -5.96875 3.953125 -5.96875 L 2.578125 -5.96875 L 2.578125 -3.40625 Z M 3.953125 -3.40625 "/></g></g></g><g fill="#141d24" fill-opacity="1"><g transform="translate(98.488848, 30.152146)"><g><path d="M 4.140625 0.125 C 3.085938 0.125 2.269531 -0.160156 1.6875 -0.734375 C 1.101562 -1.316406 0.8125 -2.148438 0.8125 -3.234375 L 0.8125 -7.34375 L 2.515625 -7.34375 L 2.515625 -3.296875 C 2.515625 -1.984375 3.054688 -1.328125 4.140625 -1.328125 C 4.679688 -1.328125 5.085938 -1.484375 5.359375 -1.796875 C 5.640625 -2.117188 5.78125 -2.617188 5.78125 -3.296875 L 5.78125 -7.34375 L 7.46875 -7.34375 L 7.46875 -3.234375 C 7.46875 -2.148438 7.175781 -1.316406 6.59375 -0.734375 C 6.007812 -0.160156 5.191406 0.125 4.140625 0.125 Z M 4.140625 0.125 "/></g></g></g><g fill="#141d24" fill-opacity="1"><g transform="translate(110.137992, 30.152146)"><g><path d="M 2.390625 -5.96875 L 0.046875 -5.96875 L 0.046875 -7.34375 L 6.453125 -7.34375 L 6.453125 -5.96875 L 4.09375 -5.96875 L 4.09375 0 L 2.390625 0 Z M 2.390625 -5.96875 "/></g></g></g><g fill="#141d24" fill-opacity="1"><g transform="translate(120.003247, 30.152146)"><g><path d="M 6.5625 -1.359375 L 6.5625 0 L 0.875 0 L 0.875 -7.34375 L 6.421875 -7.34375 L 6.421875 -5.984375 L 2.5625 -5.984375 L 2.5625 -4.390625 L 5.96875 -4.390625 L 5.96875 -3.0625 L 2.5625 -3.0625 L 2.5625 -1.359375 Z M 6.5625 -1.359375 "/></g></g></g><g fill="#141d24" fill-opacity="1"><g transform="translate(130.424659, 30.152146)"><g><path d="M 5.546875 0 L 4.140625 -2.046875 L 2.578125 -2.046875 L 2.578125 0 L 0.875 0 L 0.875 -7.34375 L 4.046875 -7.34375 C 4.703125 -7.34375 5.269531 -7.234375 5.75 -7.015625 C 6.226562 -6.804688 6.597656 -6.5 6.859375 -6.09375 C 7.117188 -5.695312 7.25 -5.226562 7.25 -4.6875 C 7.25 -4.132812 7.113281 -3.660156 6.84375 -3.265625 C 6.582031 -2.867188 6.210938 -2.566406 5.734375 -2.359375 L 7.375 0 Z M 5.515625 -4.6875 C 5.515625 -5.09375 5.378906 -5.40625 5.109375 -5.625 C 4.847656 -5.851562 4.460938 -5.96875 3.953125 -5.96875 L 2.578125 -5.96875 L 2.578125 -3.40625 L 3.953125 -3.40625 C 4.460938 -3.40625 4.847656 -3.515625 5.109375 -3.734375 C 5.378906 -3.960938 5.515625 -4.28125 5.515625 -4.6875 Z M 5.515625 -4.6875 "/></g></g></g><g fill="#141d24" fill-opacity="1"><g transform="translate(141.517654, 30.152146)"><g/></g></g><g fill="#141d24" fill-opacity="1"><g transform="translate(147.867603, 30.152146)"><g><path d="M 3.28125 0.125 C 2.707031 0.125 2.144531 0.046875 1.59375 -0.109375 C 1.050781 -0.265625 0.617188 -0.46875 0.296875 -0.71875 L 0.875 -2 C 1.1875 -1.769531 1.554688 -1.582031 1.984375 -1.4375 C 2.421875 -1.300781 2.859375 -1.234375 3.296875 -1.234375 C 3.773438 -1.234375 4.128906 -1.304688 4.359375 -1.453125 C 4.597656 -1.597656 4.71875 -1.789062 4.71875 -2.03125 C 4.71875 -2.195312 4.648438 -2.335938 4.515625 -2.453125 C 4.378906 -2.578125 4.203125 -2.671875 3.984375 -2.734375 C 3.773438 -2.804688 3.488281 -2.882812 3.125 -2.96875 C 2.5625 -3.101562 2.097656 -3.234375 1.734375 -3.359375 C 1.378906 -3.492188 1.070312 -3.707031 0.8125 -4 C 0.5625 -4.300781 0.4375 -4.695312 0.4375 -5.1875 C 0.4375 -5.613281 0.550781 -6 0.78125 -6.34375 C 1.019531 -6.6875 1.367188 -6.957031 1.828125 -7.15625 C 2.296875 -7.363281 2.863281 -7.46875 3.53125 -7.46875 C 4 -7.46875 4.457031 -7.410156 4.90625 -7.296875 C 5.363281 -7.191406 5.757812 -7.035156 6.09375 -6.828125 L 5.5625 -5.53125 C 4.882812 -5.914062 4.207031 -6.109375 3.53125 -6.109375 C 3.050781 -6.109375 2.695312 -6.03125 2.46875 -5.875 C 2.238281 -5.726562 2.125 -5.523438 2.125 -5.265625 C 2.125 -5.015625 2.253906 -4.828125 2.515625 -4.703125 C 2.785156 -4.585938 3.191406 -4.46875 3.734375 -4.34375 C 4.285156 -4.207031 4.738281 -4.070312 5.09375 -3.9375 C 5.457031 -3.8125 5.765625 -3.601562 6.015625 -3.3125 C 6.273438 -3.03125 6.40625 -2.644531 6.40625 -2.15625 C 6.40625 -1.726562 6.285156 -1.34375 6.046875 -1 C 5.816406 -0.65625 5.46875 -0.378906 5 -0.171875 C 4.53125 0.0234375 3.957031 0.125 3.28125 0.125 Z M 3.28125 0.125 "/></g></g></g><g fill="#141d24" fill-opacity="1"><g transform="translate(157.942727, 30.152146)"><g><path d="M 4.390625 0.125 C 3.640625 0.125 2.960938 -0.0351562 2.359375 -0.359375 C 1.753906 -0.679688 1.273438 -1.128906 0.921875 -1.703125 C 0.578125 -2.285156 0.40625 -2.941406 0.40625 -3.671875 C 0.40625 -4.398438 0.578125 -5.050781 0.921875 -5.625 C 1.273438 -6.207031 1.753906 -6.660156 2.359375 -6.984375 C 2.960938 -7.304688 3.644531 -7.46875 4.40625 -7.46875 C 5.039062 -7.46875 5.613281 -7.351562 6.125 -7.125 C 6.644531 -6.90625 7.078125 -6.585938 7.421875 -6.171875 L 6.328125 -5.171875 C 5.835938 -5.742188 5.222656 -6.03125 4.484375 -6.03125 C 4.023438 -6.03125 3.617188 -5.925781 3.265625 -5.71875 C 2.910156 -5.519531 2.628906 -5.242188 2.421875 -4.890625 C 2.222656 -4.535156 2.125 -4.128906 2.125 -3.671875 C 2.125 -3.222656 2.222656 -2.816406 2.421875 -2.453125 C 2.628906 -2.097656 2.910156 -1.820312 3.265625 -1.625 C 3.617188 -1.425781 4.023438 -1.328125 4.484375 -1.328125 C 5.222656 -1.328125 5.835938 -1.613281 6.328125 -2.1875 L 7.421875 -1.1875 C 7.078125 -0.757812 6.644531 -0.429688 6.125 -0.203125 C 5.601562 0.015625 5.023438 0.125 4.390625 0.125 Z M 4.390625 0.125 "/></g></g></g><g fill="#141d24" fill-opacity="1"><g transform="translate(169.014736, 30.152146)"><g><path d="M 0.875 -7.34375 L 2.578125 -7.34375 L 2.578125 0 L 0.875 0 Z M 0.875 -7.34375 "/></g></g></g><g fill="#141d24" fill-opacity="1"><g transform="translate(175.83689, 30.152146)"><g><path d="M 6.5625 -1.359375 L 6.5625 0 L 0.875 0 L 0.875 -7.34375 L 6.421875 -7.34375 L 6.421875 -5.984375 L 2.5625 -5.984375 L 2.5625 -4.390625 L 5.96875 -4.390625 L 5.96875 -3.0625 L 2.5625 -3.0625 L 2.5625 -1.359375 Z M 6.5625 -1.359375 "/></g></g></g><g fill="#141d24" fill-opacity="1"><g transform="translate(186.258302, 30.152146)"><g><path d="M 7.609375 -7.34375 L 7.609375 0 L 6.21875 0 L 2.546875 -4.46875 L 2.546875 0 L 0.875 0 L 0.875 -7.34375 L 2.28125 -7.34375 L 5.9375 -2.890625 L 5.9375 -7.34375 Z M 7.609375 -7.34375 "/></g></g></g><g fill="#141d24" fill-opacity="1"><g transform="translate(198.117317, 30.152146)"><g><path d="M 4.390625 0.125 C 3.640625 0.125 2.960938 -0.0351562 2.359375 -0.359375 C 1.753906 -0.679688 1.273438 -1.128906 0.921875 -1.703125 C 0.578125 -2.285156 0.40625 -2.941406 0.40625 -3.671875 C 0.40625 -4.398438 0.578125 -5.050781 0.921875 -5.625 C 1.273438 -6.207031 1.753906 -6.660156 2.359375 -6.984375 C 2.960938 -7.304688 3.644531 -7.46875 4.40625 -7.46875 C 5.039062 -7.46875 5.613281 -7.351562 6.125 -7.125 C 6.644531 -6.90625 7.078125 -6.585938 7.421875 -6.171875 L 6.328125 -5.171875 C 5.835938 -5.742188 5.222656 -6.03125 4.484375 -6.03125 C 4.023438 -6.03125 3.617188 -5.925781 3.265625 -5.71875 C 2.910156 -5.519531 2.628906 -5.242188 2.421875 -4.890625 C 2.222656 -4.535156 2.125 -4.128906 2.125 -3.671875 C 2.125 -3.222656 2.222656 -2.816406 2.421875 -2.453125 C 2.628906 -2.097656 2.910156 -1.820312 3.265625 -1.625 C 3.617188 -1.425781 4.023438 -1.328125 4.484375 -1.328125 C 5.222656 -1.328125 5.835938 -1.613281 6.328125 -2.1875 L 7.421875 -1.1875 C 7.078125 -0.757812 6.644531 -0.429688 6.125 -0.203125 C 5.601562 0.015625 5.023438 0.125 4.390625 0.125 Z M 4.390625 0.125 "/></g></g></g><g fill="#141d24" fill-opacity="1"><g transform="translate(209.189325, 30.152146)"><g><path d="M 6.5625 -1.359375 L 6.5625 0 L 0.875 0 L 0.875 -7.34375 L 6.421875 -7.34375 L 6.421875 -5.984375 L 2.5625 -5.984375 L 2.5625 -4.390625 L 5.96875 -4.390625 L 5.96875 -3.0625 L 2.5625 -3.0625 L 2.5625 -1.359375 Z M 6.5625 -1.359375 "/></g></g></g><g fill="#141d24" fill-opacity="1"><g transform="translate(219.610729, 30.152146)"><g/></g></g><g fill="#141d24" fill-opacity="1"><g transform="translate(225.96067, 30.152146)"><g><path d="M 4.390625 0.125 C 3.640625 0.125 2.960938 -0.0351562 2.359375 -0.359375 C 1.753906 -0.679688 1.273438 -1.128906 0.921875 -1.703125 C 0.578125 -2.285156 0.40625 -2.941406 0.40625 -3.671875 C 0.40625 -4.398438 0.578125 -5.050781 0.921875 -5.625 C 1.273438 -6.207031 1.753906 -6.660156 2.359375 -6.984375 C 2.960938 -7.304688 3.644531 -7.46875 4.40625 -7.46875 C 5.039062 -7.46875 5.613281 -7.351562 6.125 -7.125 C 6.644531 -6.90625 7.078125 -6.585938 7.421875 -6.171875 L 6.328125 -5.171875 C 5.835938 -5.742188 5.222656 -6.03125 4.484375 -6.03125 C 4.023438 -6.03125 3.617188 -5.925781 3.265625 -5.71875 C 2.910156 -5.519531 2.628906 -5.242188 2.421875 -4.890625 C 2.222656 -4.535156 2.125 -4.128906 2.125 -3.671875 C 2.125 -3.222656 2.222656 -2.816406 2.421875 -2.453125 C 2.628906 -2.097656 2.910156 -1.820312 3.265625 -1.625 C 3.617188 -1.425781 4.023438 -1.328125 4.484375 -1.328125 C 5.222656 -1.328125 5.835938 -1.613281 6.328125 -2.1875 L 7.421875 -1.1875 C 7.078125 -0.757812 6.644531 -0.429688 6.125 -0.203125 C 5.601562 0.015625 5.023438 0.125 4.390625 0.125 Z M 4.390625 0.125 "/></g></g></g><g fill="#141d24" fill-opacity="1"><g transform="translate(237.032678, 30.152146)"><g><path d="M 0.875 -7.34375 L 2.578125 -7.34375 L 2.578125 -1.390625 L 6.265625 -1.390625 L 6.265625 0 L 0.875 0 Z M 0.875 -7.34375 "/></g></g></g><g fill="#141d24" fill-opacity="1"><g transform="translate(246.75103, 30.152146)"><g><path d="M 4.140625 0.125 C 3.085938 0.125 2.269531 -0.160156 1.6875 -0.734375 C 1.101562 -1.316406 0.8125 -2.148438 0.8125 -3.234375 L 0.8125 -7.34375 L 2.515625 -7.34375 L 2.515625 -3.296875 C 2.515625 -1.984375 3.054688 -1.328125 4.140625 -1.328125 C 4.679688 -1.328125 5.085938 -1.484375 5.359375 -1.796875 C 5.640625 -2.117188 5.78125 -2.617188 5.78125 -3.296875 L 5.78125 -7.34375 L 7.46875 -7.34375 L 7.46875 -3.234375 C 7.46875 -2.148438 7.175781 -1.316406 6.59375 -0.734375 C 6.007812 -0.160156 5.191406 0.125 4.140625 0.125 Z M 4.140625 0.125 "/></g></g></g><g fill="#141d24" fill-opacity="1"><g transform="translate(258.400174, 30.152146)"><g><path d="M 6.265625 -3.828125 C 6.691406 -3.691406 7.019531 -3.46875 7.25 -3.15625 C 7.488281 -2.84375 7.609375 -2.457031 7.609375 -2 C 7.609375 -1.363281 7.359375 -0.867188 6.859375 -0.515625 C 6.359375 -0.171875 5.628906 0 4.671875 0 L 0.875 0 L 0.875 -7.34375 L 4.46875 -7.34375 C 5.363281 -7.34375 6.050781 -7.171875 6.53125 -6.828125 C 7.007812 -6.492188 7.25 -6.03125 7.25 -5.4375 C 7.25 -5.082031 7.160156 -4.765625 6.984375 -4.484375 C 6.816406 -4.203125 6.578125 -3.984375 6.265625 -3.828125 Z M 2.5625 -6.0625 L 2.5625 -4.34375 L 4.25 -4.34375 C 4.664062 -4.34375 4.984375 -4.414062 5.203125 -4.5625 C 5.421875 -4.707031 5.53125 -4.921875 5.53125 -5.203125 C 5.53125 -5.492188 5.421875 -5.707031 5.203125 -5.84375 C 4.984375 -5.988281 4.664062 -6.0625 4.25 -6.0625 Z M 4.546875 -1.28125 C 4.992188 -1.28125 5.332031 -1.351562 5.5625 -1.5 C 5.789062 -1.644531 5.90625 -1.875 5.90625 -2.1875 C 5.90625 -2.789062 5.453125 -3.09375 4.546875 -3.09375 L 2.5625 -3.09375 L 2.5625 -1.28125 Z M 4.546875 -1.28125 "/></g></g></g><g fill="#008037" fill-opacity="1"><g transform="translate(84.862755, 38.250672)"><g><path d="M 2.578125 0.078125 C 2.140625 0.078125 1.742188 -0.015625 1.390625 -0.203125 C 1.035156 -0.398438 0.753906 -0.664062 0.546875 -1 C 0.335938 -1.34375 0.234375 -1.726562 0.234375 -2.15625 C 0.234375 -2.582031 0.335938 -2.96875 0.546875 -3.3125 C 0.753906 -3.65625 1.035156 -3.921875 1.390625 -4.109375 C 1.742188 -4.296875 2.144531 -4.390625 2.59375 -4.390625 C 2.957031 -4.390625 3.289062 -4.320312 3.59375 -4.1875 C 3.90625 -4.0625 4.160156 -3.875 4.359375 -3.625 L 3.71875 -3.03125 C 3.425781 -3.375 3.066406 -3.546875 2.640625 -3.546875 C 2.367188 -3.546875 2.128906 -3.484375 1.921875 -3.359375 C 1.710938 -3.242188 1.546875 -3.082031 1.421875 -2.875 C 1.304688 -2.664062 1.25 -2.425781 1.25 -2.15625 C 1.25 -1.894531 1.304688 -1.65625 1.421875 -1.4375 C 1.546875 -1.226562 1.710938 -1.066406 1.921875 -0.953125 C 2.128906 -0.835938 2.367188 -0.78125 2.640625 -0.78125 C 3.066406 -0.78125 3.425781 -0.953125 3.71875 -1.296875 L 4.359375 -0.703125 C 4.160156 -0.453125 3.90625 -0.257812 3.59375 -0.125 C 3.289062 0.0078125 2.953125 0.078125 2.578125 0.078125 Z M 2.578125 0.078125 "/></g></g></g><g fill="#008037" fill-opacity="1"><g transform="translate(94.164187, 38.250672)"><g><path d="M 2.609375 0.078125 C 2.160156 0.078125 1.753906 -0.015625 1.390625 -0.203125 C 1.035156 -0.398438 0.753906 -0.671875 0.546875 -1.015625 C 0.335938 -1.359375 0.234375 -1.738281 0.234375 -2.15625 C 0.234375 -2.582031 0.335938 -2.960938 0.546875 -3.296875 C 0.753906 -3.640625 1.035156 -3.90625 1.390625 -4.09375 C 1.753906 -4.289062 2.160156 -4.390625 2.609375 -4.390625 C 3.054688 -4.390625 3.457031 -4.289062 3.8125 -4.09375 C 4.164062 -3.90625 4.445312 -3.640625 4.65625 -3.296875 C 4.863281 -2.960938 4.96875 -2.582031 4.96875 -2.15625 C 4.96875 -1.738281 4.863281 -1.359375 4.65625 -1.015625 C 4.445312 -0.671875 4.164062 -0.398438 3.8125 -0.203125 C 3.457031 -0.015625 3.054688 0.078125 2.609375 0.078125 Z M 2.609375 -0.78125 C 2.859375 -0.78125 3.085938 -0.835938 3.296875 -0.953125 C 3.503906 -1.066406 3.664062 -1.226562 3.78125 -1.4375 C 3.894531 -1.65625 3.953125 -1.894531 3.953125 -2.15625 C 3.953125 -2.425781 3.894531 -2.664062 3.78125 -2.875 C 3.664062 -3.082031 3.503906 -3.242188 3.296875 -3.359375 C 3.085938 -3.484375 2.859375 -3.546875 2.609375 -3.546875 C 2.347656 -3.546875 2.113281 -3.484375 1.90625 -3.359375 C 1.707031 -3.242188 1.546875 -3.082031 1.421875 -2.875 C 1.304688 -2.664062 1.25 -2.425781 1.25 -2.15625 C 1.25 -1.894531 1.304688 -1.65625 1.421875 -1.4375 C 1.546875 -1.226562 1.707031 -1.066406 1.90625 -0.953125 C 2.113281 -0.835938 2.347656 -0.78125 2.609375 -0.78125 Z M 2.609375 -0.78125 "/></g></g></g><g fill="#008037" fill-opacity="1"><g transform="translate(104.150203, 38.250672)"><g><path d="M 0.515625 -4.328125 L 1.515625 -4.328125 L 1.515625 -0.8125 L 3.671875 -0.8125 L 3.671875 0 L 0.515625 0 Z M 0.515625 -4.328125 "/></g></g></g><g fill="#008037" fill-opacity="1"><g transform="translate(112.656034, 38.250672)"><g><path d="M 0.515625 -4.328125 L 1.515625 -4.328125 L 1.515625 -0.8125 L 3.671875 -0.8125 L 3.671875 0 L 0.515625 0 Z M 0.515625 -4.328125 "/></g></g></g><g fill="#008037" fill-opacity="1"><g transform="translate(121.161865, 38.250672)"><g><path d="M 3.859375 -0.796875 L 3.859375 0 L 0.515625 0 L 0.515625 -4.328125 L 3.78125 -4.328125 L 3.78125 -3.515625 L 1.5 -3.515625 L 1.5 -2.578125 L 3.515625 -2.578125 L 3.515625 -1.796875 L 1.5 -1.796875 L 1.5 -0.796875 Z M 3.859375 -0.796875 "/></g></g></g><g fill="#008037" fill-opacity="1"><g transform="translate(130.080914, 38.250672)"><g><path d="M 3.4375 -2.234375 L 4.34375 -2.234375 L 4.34375 -0.46875 C 4.113281 -0.289062 3.84375 -0.15625 3.53125 -0.0625 C 3.21875 0.03125 2.90625 0.078125 2.59375 0.078125 C 2.144531 0.078125 1.742188 -0.015625 1.390625 -0.203125 C 1.035156 -0.398438 0.753906 -0.664062 0.546875 -1 C 0.335938 -1.34375 0.234375 -1.726562 0.234375 -2.15625 C 0.234375 -2.582031 0.335938 -2.96875 0.546875 -3.3125 C 0.753906 -3.65625 1.035156 -3.921875 1.390625 -4.109375 C 1.753906 -4.296875 2.160156 -4.390625 2.609375 -4.390625 C 2.992188 -4.390625 3.335938 -4.328125 3.640625 -4.203125 C 3.953125 -4.078125 4.210938 -3.890625 4.421875 -3.640625 L 3.78125 -3.0625 C 3.476562 -3.382812 3.109375 -3.546875 2.671875 -3.546875 C 2.390625 -3.546875 2.140625 -3.488281 1.921875 -3.375 C 1.710938 -3.257812 1.546875 -3.09375 1.421875 -2.875 C 1.304688 -2.664062 1.25 -2.425781 1.25 -2.15625 C 1.25 -1.894531 1.304688 -1.65625 1.421875 -1.4375 C 1.546875 -1.226562 1.710938 -1.066406 1.921875 -0.953125 C 2.140625 -0.835938 2.382812 -0.78125 2.65625 -0.78125 C 2.945312 -0.78125 3.207031 -0.84375 3.4375 -0.96875 Z M 3.4375 -2.234375 "/></g></g></g><g fill="#008037" fill-opacity="1"><g transform="translate(139.616707, 38.250672)"><g><path d="M 3.859375 -0.796875 L 3.859375 0 L 0.515625 0 L 0.515625 -4.328125 L 3.78125 -4.328125 L 3.78125 -3.515625 L 1.5 -3.515625 L 1.5 -2.578125 L 3.515625 -2.578125 L 3.515625 -1.796875 L 1.5 -1.796875 L 1.5 -0.796875 Z M 3.859375 -0.796875 "/></g></g></g><g fill="#008037" fill-opacity="1"><g transform="translate(148.535756, 38.250672)"><g/></g></g><g fill="#008037" fill-opacity="1"><g transform="translate(155.061839, 38.250672)"><g><path d="M 2.609375 0.078125 C 2.160156 0.078125 1.753906 -0.015625 1.390625 -0.203125 C 1.035156 -0.398438 0.753906 -0.671875 0.546875 -1.015625 C 0.335938 -1.359375 0.234375 -1.738281 0.234375 -2.15625 C 0.234375 -2.582031 0.335938 -2.960938 0.546875 -3.296875 C 0.753906 -3.640625 1.035156 -3.90625 1.390625 -4.09375 C 1.753906 -4.289062 2.160156 -4.390625 2.609375 -4.390625 C 3.054688 -4.390625 3.457031 -4.289062 3.8125 -4.09375 C 4.164062 -3.90625 4.445312 -3.640625 4.65625 -3.296875 C 4.863281 -2.960938 4.96875 -2.582031 4.96875 -2.15625 C 4.96875 -1.738281 4.863281 -1.359375 4.65625 -1.015625 C 4.445312 -0.671875 4.164062 -0.398438 3.8125 -0.203125 C 3.457031 -0.015625 3.054688 0.078125 2.609375 0.078125 Z M 2.609375 -0.78125 C 2.859375 -0.78125 3.085938 -0.835938 3.296875 -0.953125 C 3.503906 -1.066406 3.664062 -1.226562 3.78125 -1.4375 C 3.894531 -1.65625 3.953125 -1.894531 3.953125 -2.15625 C 3.953125 -2.425781 3.894531 -2.664062 3.78125 -2.875 C 3.664062 -3.082031 3.503906 -3.242188 3.296875 -3.359375 C 3.085938 -3.484375 2.859375 -3.546875 2.609375 -3.546875 C 2.347656 -3.546875 2.113281 -3.484375 1.90625 -3.359375 C 1.707031 -3.242188 1.546875 -3.082031 1.421875 -2.875 C 1.304688 -2.664062 1.25 -2.425781 1.25 -2.15625 C 1.25 -1.894531 1.304688 -1.65625 1.421875 -1.4375 C 1.546875 -1.226562 1.707031 -1.066406 1.90625 -0.953125 C 2.113281 -0.835938 2.347656 -0.78125 2.609375 -0.78125 Z M 2.609375 -0.78125 "/></g></g></g><g fill="#008037" fill-opacity="1"><g transform="translate(165.047857, 38.250672)"><g><path d="M 1.515625 -3.515625 L 1.515625 -2.375 L 3.515625 -2.375 L 3.515625 -1.578125 L 1.515625 -1.578125 L 1.515625 0 L 0.515625 0 L 0.515625 -4.328125 L 3.78125 -4.328125 L 3.78125 -3.515625 Z M 1.515625 -3.515625 "/></g></g></g><g fill="#008037" fill-opacity="1"><g transform="translate(173.769548, 38.250672)"><g/></g></g><g fill="#008037" fill-opacity="1"><g transform="translate(180.295631, 38.250672)"><g><path d="M 0.515625 -4.328125 L 2.46875 -4.328125 C 2.9375 -4.328125 3.351562 -4.234375 3.71875 -4.046875 C 4.082031 -3.867188 4.363281 -3.617188 4.5625 -3.296875 C 4.757812 -2.972656 4.859375 -2.59375 4.859375 -2.15625 C 4.859375 -1.726562 4.757812 -1.347656 4.5625 -1.015625 C 4.363281 -0.691406 4.082031 -0.441406 3.71875 -0.265625 C 3.351562 -0.0859375 2.9375 0 2.46875 0 L 0.515625 0 Z M 2.421875 -0.828125 C 2.859375 -0.828125 3.203125 -0.945312 3.453125 -1.1875 C 3.710938 -1.425781 3.84375 -1.75 3.84375 -2.15625 C 3.84375 -2.570312 3.710938 -2.898438 3.453125 -3.140625 C 3.203125 -3.378906 2.859375 -3.5 2.421875 -3.5 L 1.515625 -3.5 L 1.515625 -0.828125 Z M 2.421875 -0.828125 "/></g></g></g><g fill="#008037" fill-opacity="1"><g transform="translate(190.170638, 38.250672)"><g><path d="M 2.4375 0.078125 C 1.8125 0.078125 1.328125 -0.09375 0.984375 -0.4375 C 0.640625 -0.78125 0.46875 -1.269531 0.46875 -1.90625 L 0.46875 -4.328125 L 1.46875 -4.328125 L 1.46875 -1.9375 C 1.46875 -1.164062 1.789062 -0.78125 2.4375 -0.78125 C 2.75 -0.78125 2.988281 -0.875 3.15625 -1.0625 C 3.320312 -1.25 3.40625 -1.539062 3.40625 -1.9375 L 3.40625 -4.328125 L 4.390625 -4.328125 L 4.390625 -1.90625 C 4.390625 -1.269531 4.21875 -0.78125 3.875 -0.4375 C 3.53125 -0.09375 3.050781 0.078125 2.4375 0.078125 Z M 2.4375 0.078125 "/></g></g></g><g fill="#008037" fill-opacity="1"><g transform="translate(199.811272, 38.250672)"><g><path d="M 2.375 -4.328125 C 2.757812 -4.328125 3.09375 -4.257812 3.375 -4.125 C 3.65625 -4 3.875 -3.816406 4.03125 -3.578125 C 4.1875 -3.347656 4.265625 -3.070312 4.265625 -2.75 C 4.265625 -2.4375 4.1875 -2.160156 4.03125 -1.921875 C 3.875 -1.679688 3.65625 -1.5 3.375 -1.375 C 3.09375 -1.25 2.757812 -1.1875 2.375 -1.1875 L 1.515625 -1.1875 L 1.515625 0 L 0.515625 0 L 0.515625 -4.328125 Z M 2.328125 -2 C 2.628906 -2 2.859375 -2.0625 3.015625 -2.1875 C 3.171875 -2.320312 3.25 -2.507812 3.25 -2.75 C 3.25 -2.988281 3.171875 -3.171875 3.015625 -3.296875 C 2.859375 -3.429688 2.628906 -3.5 2.328125 -3.5 L 1.515625 -3.5 L 1.515625 -2 Z M 2.328125 -2 "/></g></g></g><g fill="#008037" fill-opacity="1"><g transform="translate(209.106536, 38.250672)"><g><path d="M 3.359375 -0.921875 L 1.359375 -0.921875 L 0.96875 0 L -0.0625 0 L 1.875 -4.328125 L 2.859375 -4.328125 L 4.796875 0 L 3.734375 0 Z M 3.046875 -1.6875 L 2.359375 -3.34375 L 1.671875 -1.6875 Z M 3.046875 -1.6875 "/></g></g></g><g fill="#008037" fill-opacity="1"><g transform="translate(218.611497, 38.250672)"><g><path d="M 3.4375 -2.234375 L 4.34375 -2.234375 L 4.34375 -0.46875 C 4.113281 -0.289062 3.84375 -0.15625 3.53125 -0.0625 C 3.21875 0.03125 2.90625 0.078125 2.59375 0.078125 C 2.144531 0.078125 1.742188 -0.015625 1.390625 -0.203125 C 1.035156 -0.398438 0.753906 -0.664062 0.546875 -1 C 0.335938 -1.34375 0.234375 -1.726562 0.234375 -2.15625 C 0.234375 -2.582031 0.335938 -2.96875 0.546875 -3.3125 C 0.753906 -3.65625 1.035156 -3.921875 1.390625 -4.109375 C 1.753906 -4.296875 2.160156 -4.390625 2.609375 -4.390625 C 2.992188 -4.390625 3.335938 -4.328125 3.640625 -4.203125 C 3.953125 -4.078125 4.210938 -3.890625 4.421875 -3.640625 L 3.78125 -3.0625 C 3.476562 -3.382812 3.109375 -3.546875 2.671875 -3.546875 C 2.390625 -3.546875 2.140625 -3.488281 1.921875 -3.375 C 1.710938 -3.257812 1.546875 -3.09375 1.421875 -2.875 C 1.304688 -2.664062 1.25 -2.425781 1.25 -2.15625 C 1.25 -1.894531 1.304688 -1.65625 1.421875 -1.4375 C 1.546875 -1.226562 1.710938 -1.066406 1.921875 -0.953125 C 2.140625 -0.835938 2.382812 -0.78125 2.65625 -0.78125 C 2.945312 -0.78125 3.207031 -0.84375 3.4375 -0.96875 Z M 3.4375 -2.234375 "/></g></g></g><g fill="#008037" fill-opacity="1"><g transform="translate(228.14729, 38.250672)"><g><path d="M 3.859375 -0.796875 L 3.859375 0 L 0.515625 0 L 0.515625 -4.328125 L 3.78125 -4.328125 L 3.78125 -3.515625 L 1.5 -3.515625 L 1.5 -2.578125 L 3.515625 -2.578125 L 3.515625 -1.796875 L 1.5 -1.796875 L 1.5 -0.796875 Z M 3.859375 -0.796875 "/></g></g></g></svg>