<svg xmlns="http://www.w3.org/2000/svg" xmlns:xlink="http://www.w3.org/1999/xlink" width="372" zoomAndPan="magnify" viewBox="0 0 279 60" height="80" preserveAspectRatio="xMidYMid meet" version="1.0"><defs><g/><clipPath id="5576cb4b8b"><path d="M 11.167969 11.25 L 41.167969 11.25 L 41.167969 48.75 L 11.167969 48.75 Z M 11.167969 11.25 " clip-rule="nonzero"/></clipPath><clipPath id="3f0afbd775"><path d="M 32.089844 40.699219 L 32.089844 34.917969 L 18.109375 34.917969 L 18.109375 38.253906 C 18.964844 38.410156 19.667969 39.003906 19.976562 39.792969 L 25.148438 39.792969 C 25.433594 39.402344 25.894531 39.148438 26.414062 39.148438 C 27.273438 39.148438 27.972656 39.84375 27.972656 40.699219 C 27.972656 41.558594 27.273438 42.253906 26.414062 42.253906 C 25.894531 42.253906 25.433594 42 25.148438 41.609375 L 19.976562 41.609375 C 19.792969 42.082031 19.464844 42.480469 19.050781 42.761719 C 19.277344 43.21875 19.578125 43.628906 19.933594 43.984375 C 20.78125 44.828125 21.945312 45.351562 23.226562 45.351562 L 32.578125 45.351562 C 32.941406 44.425781 33.847656 43.773438 34.902344 43.773438 C 35.960938 43.773438 36.863281 44.425781 37.226562 45.351562 C 37.339844 45.632812 37.398438 45.941406 37.398438 46.261719 C 37.398438 47.632812 36.28125 48.746094 34.902344 48.746094 C 33.847656 48.746094 32.941406 48.09375 32.578125 47.167969 L 23.226562 47.167969 C 21.445312 47.167969 19.824219 46.441406 18.648438 45.269531 C 18.046875 44.667969 17.558594 43.949219 17.230469 43.152344 C 16.191406 42.976562 15.371094 42.160156 15.195312 41.121094 C 14.394531 40.792969 13.675781 40.308594 13.074219 39.710938 C 11.898438 38.539062 11.167969 36.921875 11.167969 35.140625 C 11.167969 33.945312 11.5 32.824219 12.074219 31.855469 C 12.238281 31.582031 12.421875 31.320312 12.625 31.074219 C 12.539062 30.820312 12.488281 30.550781 12.488281 30.265625 C 12.488281 29.847656 12.59375 29.453125 12.777344 29.109375 C 12.515625 28.808594 12.28125 28.488281 12.074219 28.144531 C 11.5 27.179688 11.167969 26.054688 11.167969 24.859375 C 11.167969 23.082031 11.898438 21.464844 13.074219 20.292969 C 13.675781 19.691406 14.394531 19.207031 15.195312 18.878906 C 15.371094 17.84375 16.191406 17.027344 17.230469 16.847656 C 17.558594 16.054688 18.046875 15.335938 18.648438 14.734375 C 19.824219 13.5625 21.445312 12.835938 23.226562 12.835938 L 32.578125 12.835938 C 32.941406 11.910156 33.847656 11.253906 34.902344 11.253906 C 35.960938 11.253906 36.863281 11.910156 37.226562 12.835938 C 37.339844 13.117188 37.398438 13.421875 37.398438 13.742188 C 37.398438 14.0625 37.339844 14.367188 37.226562 14.648438 L 37.226562 14.652344 C 36.863281 15.574219 35.960938 16.230469 34.902344 16.230469 C 33.847656 16.230469 32.941406 15.574219 32.578125 14.652344 L 23.226562 14.652344 C 21.945312 14.652344 20.78125 15.175781 19.933594 16.015625 C 19.578125 16.375 19.277344 16.785156 19.050781 17.238281 C 19.464844 17.519531 19.792969 17.921875 19.976562 18.394531 L 25.148438 18.394531 C 25.433594 18.003906 25.894531 17.75 26.414062 17.75 C 27.273438 17.75 27.972656 18.445312 27.972656 19.300781 C 27.972656 20.160156 27.273438 20.855469 26.414062 20.855469 C 25.894531 20.855469 25.433594 20.601562 25.148438 20.210938 L 19.976562 20.210938 C 19.667969 21 18.964844 21.589844 18.109375 21.75 L 18.109375 25.085938 L 28.871094 25.085938 C 29.058594 24.585938 29.539062 24.234375 30.101562 24.234375 C 30.824219 24.234375 31.410156 24.816406 31.410156 25.539062 C 31.410156 25.699219 31.378906 25.851562 31.328125 25.992188 C 31.144531 26.488281 30.664062 26.84375 30.101562 26.84375 C 29.539062 26.84375 29.058594 26.488281 28.871094 25.992188 L 17.199219 25.992188 L 17.199219 21.75 C 16.53125 21.625 15.953125 21.238281 15.585938 20.695312 C 15.128906 20.921875 14.71875 21.21875 14.359375 21.578125 C 13.515625 22.417969 12.988281 23.582031 12.988281 24.859375 C 12.988281 25.722656 13.226562 26.53125 13.640625 27.222656 C 13.789062 27.472656 13.957031 27.707031 14.148438 27.921875 C 14.410156 27.828125 14.691406 27.777344 14.984375 27.777344 C 16.207031 27.777344 17.226562 28.65625 17.4375 29.8125 L 34.402344 29.8125 L 34.402344 20.527344 C 33.902344 20.34375 33.546875 19.863281 33.546875 19.300781 C 33.546875 18.582031 34.132812 17.996094 34.855469 17.996094 C 35.578125 17.996094 36.164062 18.582031 36.164062 19.300781 C 36.164062 19.863281 35.808594 20.339844 35.308594 20.527344 L 35.308594 25.085938 L 38.632812 25.085938 C 38.816406 24.585938 39.296875 24.234375 39.859375 24.234375 C 40.582031 24.234375 41.167969 24.816406 41.167969 25.539062 C 41.167969 26.257812 40.582031 26.84375 39.859375 26.84375 C 39.296875 26.84375 38.816406 26.488281 38.632812 25.992188 L 35.308594 25.992188 L 35.308594 30.71875 L 17.4375 30.71875 C 17.226562 31.878906 16.207031 32.753906 14.984375 32.753906 C 14.570312 32.753906 14.179688 32.652344 13.835938 32.476562 C 13.765625 32.574219 13.699219 32.675781 13.640625 32.777344 C 13.226562 33.472656 12.988281 34.28125 12.988281 35.140625 C 12.988281 36.421875 13.515625 37.582031 14.359375 38.425781 C 14.71875 38.78125 15.128906 39.082031 15.585938 39.308594 C 15.953125 38.765625 16.53125 38.378906 17.199219 38.253906 L 17.199219 34.011719 L 36.332031 34.011719 C 36.515625 33.511719 36.996094 33.160156 37.558594 33.160156 C 38.121094 33.160156 38.601562 33.511719 38.789062 34.011719 C 38.839844 34.152344 38.867188 34.304688 38.867188 34.464844 C 38.867188 34.625 38.839844 34.777344 38.789062 34.917969 C 38.601562 35.414062 38.121094 35.769531 37.558594 35.769531 C 36.996094 35.769531 36.515625 35.414062 36.332031 34.917969 L 33 34.917969 L 33 40.246094 L 38.632812 40.246094 C 38.816406 39.75 39.296875 39.394531 39.859375 39.394531 C 40.582031 39.394531 41.167969 39.980469 41.167969 40.699219 C 41.167969 41.421875 40.582031 42.007812 39.859375 42.007812 C 39.296875 42.007812 38.816406 41.652344 38.632812 41.15625 L 32.089844 41.15625 Z M 32.089844 40.699219 " clip-rule="evenodd"/></clipPath><linearGradient x1="1088.807736" gradientTransform="matrix(0.00428682, 0, 0, 0.00427476, 11.169482, 11.254637)" y1="9361.583712" x2="6356.906383" gradientUnits="userSpaceOnUse" y2="-347.950564" id="3a77cee02e"><stop stop-opacity="1" stop-color="rgb(1.144409%, 1.96991%, 2.850342%)" offset="0"/><stop stop-opacity="1" stop-color="rgb(1.254272%, 2.159119%, 3.123474%)" offset="0.00390625"/><stop stop-opacity="1" stop-color="rgb(1.365662%, 2.348328%, 3.396606%)" offset="0.0078125"/><stop stop-opacity="1" stop-color="rgb(1.475525%, 2.537537%, 3.669739%)" offset="0.0117188"/><stop stop-opacity="1" stop-color="rgb(1.585388%, 2.726746%, 3.944397%)" offset="0.015625"/><stop stop-opacity="1" stop-color="rgb(1.695251%, 2.915955%, 4.217529%)" offset="0.0195312"/><stop stop-opacity="1" stop-color="rgb(1.805115%, 3.105164%, 4.492188%)" offset="0.0234375"/><stop stop-opacity="1" stop-color="rgb(1.914978%, 3.292847%, 4.76532%)" offset="0.0273438"/><stop stop-opacity="1" stop-color="rgb(2.024841%, 3.482056%, 5.039978%)" offset="0.03125"/><stop stop-opacity="1" stop-color="rgb(2.134705%, 3.671265%, 5.31311%)" offset="0.0351562"/><stop stop-opacity="1" stop-color="rgb(2.244568%, 3.860474%, 5.586243%)" offset="0.0390625"/><stop stop-opacity="1" stop-color="rgb(2.354431%, 4.049683%, 5.859375%)" offset="0.0429688"/><stop stop-opacity="1" stop-color="rgb(2.46582%, 4.238892%, 6.134033%)" offset="0.046875"/><stop stop-opacity="1" stop-color="rgb(2.575684%, 4.428101%, 6.407166%)" offset="0.0507812"/><stop stop-opacity="1" stop-color="rgb(2.685547%, 4.61731%, 6.681824%)" offset="0.0546875"/><stop stop-opacity="1" stop-color="rgb(2.79541%, 4.806519%, 6.954956%)" offset="0.0585938"/><stop stop-opacity="1" stop-color="rgb(2.905273%, 4.995728%, 7.229614%)" offset="0.0625"/><stop stop-opacity="1" stop-color="rgb(3.015137%, 5.184937%, 7.502747%)" offset="0.0664063"/><stop stop-opacity="1" stop-color="rgb(3.125%, 5.374146%, 7.775879%)" offset="0.0703125"/><stop stop-opacity="1" stop-color="rgb(3.234863%, 5.563354%, 8.049011%)" offset="0.0742188"/><stop stop-opacity="1" stop-color="rgb(3.344727%, 5.752563%, 8.323669%)" offset="0.078125"/><stop stop-opacity="1" stop-color="rgb(3.45459%, 5.941772%, 8.596802%)" offset="0.0820313"/><stop stop-opacity="1" stop-color="rgb(3.565979%, 6.130981%, 8.87146%)" offset="0.0859375"/><stop stop-opacity="1" stop-color="rgb(3.675842%, 6.32019%, 9.144592%)" offset="0.0898438"/><stop stop-opacity="1" stop-color="rgb(3.785706%, 6.509399%, 9.417725%)" offset="0.09375"/><stop stop-opacity="1" stop-color="rgb(3.895569%, 6.698608%, 9.690857%)" offset="0.0976563"/><stop stop-opacity="1" stop-color="rgb(4.005432%, 6.887817%, 9.965515%)" offset="0.101563"/><stop stop-opacity="1" stop-color="rgb(4.115295%, 7.077026%, 10.238647%)" offset="0.105469"/><stop stop-opacity="1" stop-color="rgb(4.225159%, 7.266235%, 10.513306%)" offset="0.109375"/><stop stop-opacity="1" stop-color="rgb(4.335022%, 7.455444%, 10.786438%)" offset="0.113281"/><stop stop-opacity="1" stop-color="rgb(4.444885%, 7.644653%, 11.061096%)" offset="0.117188"/><stop stop-opacity="1" stop-color="rgb(4.554749%, 7.833862%, 11.334229%)" offset="0.121094"/><stop stop-opacity="1" stop-color="rgb(4.666138%, 8.023071%, 11.607361%)" offset="0.125"/><stop stop-opacity="1" stop-color="rgb(4.776001%, 8.21228%, 11.880493%)" offset="0.128906"/><stop stop-opacity="1" stop-color="rgb(4.885864%, 8.401489%, 12.155151%)" offset="0.132813"/><stop stop-opacity="1" stop-color="rgb(4.995728%, 8.590698%, 12.428284%)" offset="0.136719"/><stop stop-opacity="1" stop-color="rgb(5.105591%, 8.779907%, 12.702942%)" offset="0.140625"/><stop stop-opacity="1" stop-color="rgb(5.215454%, 8.969116%, 12.976074%)" offset="0.144531"/><stop stop-opacity="1" stop-color="rgb(5.325317%, 9.158325%, 13.250732%)" offset="0.148438"/><stop stop-opacity="1" stop-color="rgb(5.435181%, 9.347534%, 13.523865%)" offset="0.152344"/><stop stop-opacity="1" stop-color="rgb(5.545044%, 9.536743%, 13.796997%)" offset="0.15625"/><stop stop-opacity="1" stop-color="rgb(5.654907%, 9.725952%, 14.070129%)" offset="0.160156"/><stop stop-opacity="1" stop-color="rgb(5.766296%, 9.915161%, 14.344788%)" offset="0.164063"/><stop stop-opacity="1" stop-color="rgb(5.87616%, 10.10437%, 14.61792%)" offset="0.167969"/><stop stop-opacity="1" stop-color="rgb(5.986023%, 10.293579%, 14.892578%)" offset="0.171875"/><stop stop-opacity="1" stop-color="rgb(6.095886%, 10.482788%, 15.16571%)" offset="0.175781"/><stop stop-opacity="1" stop-color="rgb(6.20575%, 10.671997%, 15.440369%)" offset="0.179688"/><stop stop-opacity="1" stop-color="rgb(6.315613%, 10.861206%, 15.713501%)" offset="0.183594"/><stop stop-opacity="1" stop-color="rgb(6.425476%, 11.050415%, 15.986633%)" offset="0.1875"/><stop stop-opacity="1" stop-color="rgb(6.535339%, 11.239624%, 16.259766%)" offset="0.191406"/><stop stop-opacity="1" stop-color="rgb(6.645203%, 11.428833%, 16.534424%)" offset="0.195313"/><stop stop-opacity="1" stop-color="rgb(6.755066%, 11.618042%, 16.807556%)" offset="0.199219"/><stop stop-opacity="1" stop-color="rgb(6.866455%, 11.807251%, 17.082214%)" offset="0.203125"/><stop stop-opacity="1" stop-color="rgb(6.976318%, 11.994934%, 17.355347%)" offset="0.207031"/><stop stop-opacity="1" stop-color="rgb(7.086182%, 12.184143%, 17.630005%)" offset="0.210938"/><stop stop-opacity="1" stop-color="rgb(7.196045%, 12.373352%, 17.903137%)" offset="0.214844"/><stop stop-opacity="1" stop-color="rgb(7.305908%, 12.562561%, 18.17627%)" offset="0.21875"/><stop stop-opacity="1" stop-color="rgb(7.415771%, 12.75177%, 18.449402%)" offset="0.222656"/><stop stop-opacity="1" stop-color="rgb(7.525635%, 12.940979%, 18.72406%)" offset="0.226562"/><stop stop-opacity="1" stop-color="rgb(7.635498%, 13.130188%, 18.997192%)" offset="0.230469"/><stop stop-opacity="1" stop-color="rgb(7.745361%, 13.319397%, 19.271851%)" offset="0.234375"/><stop stop-opacity="1" stop-color="rgb(7.855225%, 13.508606%, 19.544983%)" offset="0.238281"/><stop stop-opacity="1" stop-color="rgb(7.966614%, 13.697815%, 19.819641%)" offset="0.242188"/><stop stop-opacity="1" stop-color="rgb(8.076477%, 13.887024%, 20.092773%)" offset="0.246094"/><stop stop-opacity="1" stop-color="rgb(8.18634%, 14.076233%, 20.365906%)" offset="0.25"/><stop stop-opacity="1" stop-color="rgb(8.172607%, 14.353943%, 20.347595%)" offset="0.253906"/><stop stop-opacity="1" stop-color="rgb(8.1604%, 14.633179%, 20.330811%)" offset="0.257812"/><stop stop-opacity="1" stop-color="rgb(8.140564%, 14.916992%, 20.294189%)" offset="0.261719"/><stop stop-opacity="1" stop-color="rgb(8.120728%, 15.202332%, 20.259094%)" offset="0.265625"/><stop stop-opacity="1" stop-color="rgb(8.099365%, 15.486145%, 20.222473%)" offset="0.269531"/><stop stop-opacity="1" stop-color="rgb(8.079529%, 15.769958%, 20.185852%)" offset="0.273438"/><stop stop-opacity="1" stop-color="rgb(8.058167%, 16.053772%, 20.149231%)" offset="0.277344"/><stop stop-opacity="1" stop-color="rgb(8.03833%, 16.339111%, 20.114136%)" offset="0.28125"/><stop stop-opacity="1" stop-color="rgb(8.016968%, 16.622925%, 20.077515%)" offset="0.285156"/><stop stop-opacity="1" stop-color="rgb(7.997131%, 16.906738%, 20.042419%)" offset="0.289062"/><stop stop-opacity="1" stop-color="rgb(7.977295%, 17.190552%, 20.005798%)" offset="0.292969"/><stop stop-opacity="1" stop-color="rgb(7.957458%, 17.475891%, 19.969177%)" offset="0.296875"/><stop stop-opacity="1" stop-color="rgb(7.936096%, 17.759705%, 19.932556%)" offset="0.300781"/><stop stop-opacity="1" stop-color="rgb(7.91626%, 18.043518%, 19.897461%)" offset="0.304688"/><stop stop-opacity="1" stop-color="rgb(7.894897%, 18.327332%, 19.86084%)" offset="0.308594"/><stop stop-opacity="1" stop-color="rgb(7.875061%, 18.612671%, 19.824219%)" offset="0.3125"/><stop stop-opacity="1" stop-color="rgb(7.853699%, 18.896484%, 19.787598%)" offset="0.316406"/><stop stop-opacity="1" stop-color="rgb(7.833862%, 19.180298%, 19.752502%)" offset="0.320312"/><stop stop-opacity="1" stop-color="rgb(7.814026%, 19.464111%, 19.715881%)" offset="0.324219"/><stop stop-opacity="1" stop-color="rgb(7.794189%, 19.749451%, 19.67926%)" offset="0.328125"/><stop stop-opacity="1" stop-color="rgb(7.772827%, 20.033264%, 19.642639%)" offset="0.332031"/><stop stop-opacity="1" stop-color="rgb(7.752991%, 20.317078%, 19.607544%)" offset="0.335938"/><stop stop-opacity="1" stop-color="rgb(7.731628%, 20.600891%, 19.570923%)" offset="0.339844"/><stop stop-opacity="1" stop-color="rgb(7.711792%, 20.88623%, 19.535828%)" offset="0.34375"/><stop stop-opacity="1" stop-color="rgb(7.691956%, 21.170044%, 19.499207%)" offset="0.347656"/><stop stop-opacity="1" stop-color="rgb(7.672119%, 21.453857%, 19.462585%)" offset="0.351562"/><stop stop-opacity="1" stop-color="rgb(7.650757%, 21.737671%, 19.425964%)" offset="0.355469"/><stop stop-opacity="1" stop-color="rgb(7.63092%, 22.02301%, 19.390869%)" offset="0.359375"/><stop stop-opacity="1" stop-color="rgb(7.609558%, 22.306824%, 19.354248%)" offset="0.363281"/><stop stop-opacity="1" stop-color="rgb(7.589722%, 22.590637%, 19.317627%)" offset="0.367188"/><stop stop-opacity="1" stop-color="rgb(7.568359%, 22.874451%, 19.281006%)" offset="0.371094"/><stop stop-opacity="1" stop-color="rgb(7.548523%, 23.15979%, 19.245911%)" offset="0.375"/><stop stop-opacity="1" stop-color="rgb(7.528687%, 23.443604%, 19.20929%)" offset="0.378906"/><stop stop-opacity="1" stop-color="rgb(7.50885%, 23.727417%, 19.172668%)" offset="0.382812"/><stop stop-opacity="1" stop-color="rgb(7.487488%, 24.01123%, 19.136047%)" offset="0.386719"/><stop stop-opacity="1" stop-color="rgb(7.467651%, 24.29657%, 19.100952%)" offset="0.390625"/><stop stop-opacity="1" stop-color="rgb(7.446289%, 24.580383%, 19.064331%)" offset="0.394531"/><stop stop-opacity="1" stop-color="rgb(7.426453%, 24.864197%, 19.029236%)" offset="0.398438"/><stop stop-opacity="1" stop-color="rgb(7.40509%, 25.14801%, 18.992615%)" offset="0.402344"/><stop stop-opacity="1" stop-color="rgb(7.385254%, 25.43335%, 18.955994%)" offset="0.40625"/><stop stop-opacity="1" stop-color="rgb(7.365417%, 25.717163%, 18.919373%)" offset="0.410156"/><stop stop-opacity="1" stop-color="rgb(7.345581%, 26.000977%, 18.884277%)" offset="0.414062"/><stop stop-opacity="1" stop-color="rgb(7.324219%, 26.28479%, 18.847656%)" offset="0.417969"/><stop stop-opacity="1" stop-color="rgb(7.304382%, 26.570129%, 18.811035%)" offset="0.421875"/><stop stop-opacity="1" stop-color="rgb(7.28302%, 26.853943%, 18.774414%)" offset="0.425781"/><stop stop-opacity="1" stop-color="rgb(7.263184%, 27.137756%, 18.739319%)" offset="0.429688"/><stop stop-opacity="1" stop-color="rgb(7.243347%, 27.42157%, 18.702698%)" offset="0.433594"/><stop stop-opacity="1" stop-color="rgb(7.223511%, 27.706909%, 18.667603%)" offset="0.4375"/><stop stop-opacity="1" stop-color="rgb(7.202148%, 27.990723%, 18.630981%)" offset="0.441406"/><stop stop-opacity="1" stop-color="rgb(7.182312%, 28.274536%, 18.59436%)" offset="0.445312"/><stop stop-opacity="1" stop-color="rgb(7.16095%, 28.55835%, 18.557739%)" offset="0.449219"/><stop stop-opacity="1" stop-color="rgb(7.141113%, 28.843689%, 18.522644%)" offset="0.453125"/><stop stop-opacity="1" stop-color="rgb(7.119751%, 29.127502%, 18.486023%)" offset="0.457031"/><stop stop-opacity="1" stop-color="rgb(7.099915%, 29.411316%, 18.449402%)" offset="0.460938"/><stop stop-opacity="1" stop-color="rgb(7.080078%, 29.695129%, 18.412781%)" offset="0.464844"/><stop stop-opacity="1" stop-color="rgb(7.060242%, 29.980469%, 18.377686%)" offset="0.46875"/><stop stop-opacity="1" stop-color="rgb(7.038879%, 30.264282%, 18.341064%)" offset="0.472656"/><stop stop-opacity="1" stop-color="rgb(7.019043%, 30.548096%, 18.304443%)" offset="0.476562"/><stop stop-opacity="1" stop-color="rgb(6.997681%, 30.831909%, 18.267822%)" offset="0.480469"/><stop stop-opacity="1" stop-color="rgb(6.977844%, 31.117249%, 18.232727%)" offset="0.484375"/><stop stop-opacity="1" stop-color="rgb(6.956482%, 31.401062%, 18.196106%)" offset="0.488281"/><stop stop-opacity="1" stop-color="rgb(6.936646%, 31.684875%, 18.161011%)" offset="0.492188"/><stop stop-opacity="1" stop-color="rgb(6.916809%, 31.968689%, 18.12439%)" offset="0.496094"/><stop stop-opacity="1" stop-color="rgb(6.896973%, 32.254028%, 18.087769%)" offset="0.5"/><stop stop-opacity="1" stop-color="rgb(6.87561%, 32.537842%, 18.051147%)" offset="0.503906"/><stop stop-opacity="1" stop-color="rgb(6.855774%, 32.821655%, 18.016052%)" offset="0.507812"/><stop stop-opacity="1" stop-color="rgb(6.834412%, 33.105469%, 17.979431%)" offset="0.511719"/><stop stop-opacity="1" stop-color="rgb(6.814575%, 33.390808%, 17.94281%)" offset="0.515625"/><stop stop-opacity="1" stop-color="rgb(6.794739%, 33.674622%, 17.906189%)" offset="0.519531"/><stop stop-opacity="1" stop-color="rgb(6.774902%, 33.958435%, 17.871094%)" offset="0.523438"/><stop stop-opacity="1" stop-color="rgb(6.75354%, 34.242249%, 17.834473%)" offset="0.527344"/><stop stop-opacity="1" stop-color="rgb(6.733704%, 34.527588%, 17.797852%)" offset="0.53125"/><stop stop-opacity="1" stop-color="rgb(6.712341%, 34.811401%, 17.76123%)" offset="0.535156"/><stop stop-opacity="1" stop-color="rgb(6.692505%, 35.095215%, 17.726135%)" offset="0.539062"/><stop stop-opacity="1" stop-color="rgb(6.671143%, 35.379028%, 17.689514%)" offset="0.542969"/><stop stop-opacity="1" stop-color="rgb(6.651306%, 35.664368%, 17.654419%)" offset="0.546875"/><stop stop-opacity="1" stop-color="rgb(6.63147%, 35.948181%, 17.617798%)" offset="0.550781"/><stop stop-opacity="1" stop-color="rgb(6.611633%, 36.231995%, 17.581177%)" offset="0.554688"/><stop stop-opacity="1" stop-color="rgb(6.590271%, 36.515808%, 17.544556%)" offset="0.558594"/><stop stop-opacity="1" stop-color="rgb(6.570435%, 36.799622%, 17.50946%)" offset="0.5625"/><stop stop-opacity="1" stop-color="rgb(6.549072%, 37.083435%, 17.472839%)" offset="0.566406"/><stop stop-opacity="1" stop-color="rgb(6.529236%, 37.368774%, 17.436218%)" offset="0.570312"/><stop stop-opacity="1" stop-color="rgb(6.507874%, 37.652588%, 17.399597%)" offset="0.574219"/><stop stop-opacity="1" stop-color="rgb(6.488037%, 37.936401%, 17.364502%)" offset="0.578125"/><stop stop-opacity="1" stop-color="rgb(6.468201%, 38.220215%, 17.327881%)" offset="0.582031"/><stop stop-opacity="1" stop-color="rgb(6.448364%, 38.505554%, 17.29126%)" offset="0.585938"/><stop stop-opacity="1" stop-color="rgb(6.427002%, 38.789368%, 17.254639%)" offset="0.589844"/><stop stop-opacity="1" stop-color="rgb(6.407166%, 39.073181%, 17.219543%)" offset="0.59375"/><stop stop-opacity="1" stop-color="rgb(6.385803%, 39.356995%, 17.182922%)" offset="0.597656"/><stop stop-opacity="1" stop-color="rgb(6.365967%, 39.642334%, 17.147827%)" offset="0.601562"/><stop stop-opacity="1" stop-color="rgb(6.344604%, 39.926147%, 17.111206%)" offset="0.605469"/><stop stop-opacity="1" stop-color="rgb(6.324768%, 40.209961%, 17.074585%)" offset="0.609375"/><stop stop-opacity="1" stop-color="rgb(6.304932%, 40.493774%, 17.037964%)" offset="0.613281"/><stop stop-opacity="1" stop-color="rgb(6.285095%, 40.779114%, 17.002869%)" offset="0.617188"/><stop stop-opacity="1" stop-color="rgb(6.263733%, 41.062927%, 16.966248%)" offset="0.621094"/><stop stop-opacity="1" stop-color="rgb(6.243896%, 41.346741%, 16.929626%)" offset="0.625"/><stop stop-opacity="1" stop-color="rgb(6.222534%, 41.630554%, 16.893005%)" offset="0.628906"/><stop stop-opacity="1" stop-color="rgb(6.202698%, 41.915894%, 16.85791%)" offset="0.632812"/><stop stop-opacity="1" stop-color="rgb(6.182861%, 42.199707%, 16.821289%)" offset="0.636719"/><stop stop-opacity="1" stop-color="rgb(6.163025%, 42.483521%, 16.784668%)" offset="0.640625"/><stop stop-opacity="1" stop-color="rgb(6.141663%, 42.767334%, 16.748047%)" offset="0.644531"/><stop stop-opacity="1" stop-color="rgb(6.121826%, 43.052673%, 16.712952%)" offset="0.648438"/><stop stop-opacity="1" stop-color="rgb(6.100464%, 43.336487%, 16.676331%)" offset="0.652344"/><stop stop-opacity="1" stop-color="rgb(6.080627%, 43.6203%, 16.641235%)" offset="0.65625"/><stop stop-opacity="1" stop-color="rgb(6.059265%, 43.904114%, 16.604614%)" offset="0.660156"/><stop stop-opacity="1" stop-color="rgb(6.039429%, 44.189453%, 16.567993%)" offset="0.664062"/><stop stop-opacity="1" stop-color="rgb(6.019592%, 44.473267%, 16.531372%)" offset="0.667969"/><stop stop-opacity="1" stop-color="rgb(5.999756%, 44.75708%, 16.496277%)" offset="0.671875"/><stop stop-opacity="1" stop-color="rgb(5.978394%, 45.040894%, 16.459656%)" offset="0.675781"/><stop stop-opacity="1" stop-color="rgb(5.958557%, 45.326233%, 16.423035%)" offset="0.679688"/><stop stop-opacity="1" stop-color="rgb(5.937195%, 45.610046%, 16.386414%)" offset="0.683594"/><stop stop-opacity="1" stop-color="rgb(5.917358%, 45.89386%, 16.351318%)" offset="0.6875"/><stop stop-opacity="1" stop-color="rgb(5.895996%, 46.177673%, 16.314697%)" offset="0.691406"/><stop stop-opacity="1" stop-color="rgb(5.87616%, 46.463013%, 16.279602%)" offset="0.695312"/><stop stop-opacity="1" stop-color="rgb(5.856323%, 46.746826%, 16.242981%)" offset="0.699219"/><stop stop-opacity="1" stop-color="rgb(5.836487%, 47.03064%, 16.20636%)" offset="0.703125"/><stop stop-opacity="1" stop-color="rgb(5.815125%, 47.314453%, 16.169739%)" offset="0.707031"/><stop stop-opacity="1" stop-color="rgb(5.795288%, 47.599792%, 16.134644%)" offset="0.710938"/><stop stop-opacity="1" stop-color="rgb(5.773926%, 47.883606%, 16.098022%)" offset="0.714844"/><stop stop-opacity="1" stop-color="rgb(5.754089%, 48.167419%, 16.061401%)" offset="0.71875"/><stop stop-opacity="1" stop-color="rgb(5.734253%, 48.451233%, 16.02478%)" offset="0.722656"/><stop stop-opacity="1" stop-color="rgb(5.714417%, 48.736572%, 15.989685%)" offset="0.726562"/><stop stop-opacity="1" stop-color="rgb(5.693054%, 49.020386%, 15.953064%)" offset="0.730469"/><stop stop-opacity="1" stop-color="rgb(5.673218%, 49.304199%, 15.916443%)" offset="0.734375"/><stop stop-opacity="1" stop-color="rgb(5.651855%, 49.588013%, 15.879822%)" offset="0.738281"/><stop stop-opacity="1" stop-color="rgb(5.632019%, 49.873352%, 15.844727%)" offset="0.742188"/><stop stop-opacity="1" stop-color="rgb(5.610657%, 50.157166%, 15.808105%)" offset="0.746094"/><stop stop-opacity="1" stop-color="rgb(5.59082%, 50.440979%, 15.77301%)" offset="0.75"/><stop stop-opacity="1" stop-color="rgb(5.570984%, 50.724792%, 15.736389%)" offset="0.753906"/><stop stop-opacity="1" stop-color="rgb(5.551147%, 51.010132%, 15.699768%)" offset="0.757812"/><stop stop-opacity="1" stop-color="rgb(5.529785%, 51.293945%, 15.663147%)" offset="0.761719"/><stop stop-opacity="1" stop-color="rgb(5.509949%, 51.577759%, 15.628052%)" offset="0.765625"/><stop stop-opacity="1" stop-color="rgb(5.488586%, 51.861572%, 15.591431%)" offset="0.769531"/><stop stop-opacity="1" stop-color="rgb(5.46875%, 52.146912%, 15.55481%)" offset="0.773438"/><stop stop-opacity="1" stop-color="rgb(5.447388%, 52.430725%, 15.518188%)" offset="0.777344"/><stop stop-opacity="1" stop-color="rgb(5.427551%, 52.714539%, 15.483093%)" offset="0.78125"/><stop stop-opacity="1" stop-color="rgb(5.407715%, 52.998352%, 15.446472%)" offset="0.785156"/><stop stop-opacity="1" stop-color="rgb(5.387878%, 53.283691%, 15.409851%)" offset="0.789062"/><stop stop-opacity="1" stop-color="rgb(5.366516%, 53.567505%, 15.37323%)" offset="0.792969"/><stop stop-opacity="1" stop-color="rgb(5.34668%, 53.851318%, 15.338135%)" offset="0.796875"/><stop stop-opacity="1" stop-color="rgb(5.325317%, 54.135132%, 15.301514%)" offset="0.800781"/><stop stop-opacity="1" stop-color="rgb(5.305481%, 54.420471%, 15.266418%)" offset="0.804688"/><stop stop-opacity="1" stop-color="rgb(5.285645%, 54.704285%, 15.229797%)" offset="0.808594"/><stop stop-opacity="1" stop-color="rgb(5.265808%, 54.988098%, 15.193176%)" offset="0.8125"/><stop stop-opacity="1" stop-color="rgb(5.244446%, 55.271912%, 15.156555%)" offset="0.816406"/><stop stop-opacity="1" stop-color="rgb(5.224609%, 55.557251%, 15.12146%)" offset="0.820312"/><stop stop-opacity="1" stop-color="rgb(5.203247%, 55.841064%, 15.084839%)" offset="0.824219"/><stop stop-opacity="1" stop-color="rgb(5.183411%, 56.124878%, 15.048218%)" offset="0.828125"/><stop stop-opacity="1" stop-color="rgb(5.162048%, 56.408691%, 15.011597%)" offset="0.832031"/><stop stop-opacity="1" stop-color="rgb(5.142212%, 56.694031%, 14.976501%)" offset="0.835938"/><stop stop-opacity="1" stop-color="rgb(5.122375%, 56.977844%, 14.93988%)" offset="0.839844"/><stop stop-opacity="1" stop-color="rgb(5.102539%, 57.261658%, 14.903259%)" offset="0.84375"/><stop stop-opacity="1" stop-color="rgb(5.101013%, 57.279968%, 14.900208%)" offset="0.875"/><stop stop-opacity="1" stop-color="rgb(5.099487%, 57.299805%, 14.898682%)" offset="1"/></linearGradient></defs><g clip-path="url(#5576cb4b8b)"><g clip-path="url(#3f0afbd775)"><path fill="url(#3a77cee02e)" d="M 11.167969 11.253906 L 11.167969 48.746094 L 41.167969 48.746094 L 41.167969 11.253906 Z M 11.167969 11.253906 " fill-rule="nonzero"/></g></g><g fill="#008037" fill-opacity="1"><g transform="translate(68.029799, 37.537205)"><g><path d="M 12.390625 -3.421875 L 4.984375 -3.421875 L 3.578125 0 L -0.203125 0 L 6.90625 -15.953125 L 10.546875 -15.953125 L 17.671875 0 L 13.8125 0 Z M 11.234375 -6.21875 L 8.703125 -12.328125 L 6.171875 -6.21875 Z M 11.234375 -6.21875 "/></g></g></g><g fill="#008037" fill-opacity="1"><g transform="translate(103.110274, 37.537205)"><g><path d="M 1.890625 -15.953125 L 5.578125 -15.953125 L 5.578125 -3 L 13.578125 -3 L 13.578125 0 L 1.890625 0 Z M 1.890625 -15.953125 "/></g></g></g><g fill="#008037" fill-opacity="1"><g transform="translate(134.500449, 37.537205)"><g><path d="M 9.515625 0.265625 C 7.890625 0.265625 6.421875 -0.0820312 5.109375 -0.78125 C 3.796875 -1.488281 2.765625 -2.46875 2.015625 -3.71875 C 1.265625 -4.976562 0.890625 -6.394531 0.890625 -7.96875 C 0.890625 -9.550781 1.265625 -10.96875 2.015625 -12.21875 C 2.765625 -13.46875 3.796875 -14.445312 5.109375 -15.15625 C 6.421875 -15.863281 7.898438 -16.21875 9.546875 -16.21875 C 10.929688 -16.21875 12.179688 -15.972656 13.296875 -15.484375 C 14.410156 -15.003906 15.347656 -14.304688 16.109375 -13.390625 L 13.734375 -11.203125 C 12.660156 -12.453125 11.328125 -13.078125 9.734375 -13.078125 C 8.742188 -13.078125 7.859375 -12.859375 7.078125 -12.421875 C 6.304688 -11.992188 5.703125 -11.390625 5.265625 -10.609375 C 4.835938 -9.835938 4.625 -8.957031 4.625 -7.96875 C 4.625 -6.988281 4.835938 -6.109375 5.265625 -5.328125 C 5.703125 -4.554688 6.304688 -3.953125 7.078125 -3.515625 C 7.859375 -3.085938 8.742188 -2.875 9.734375 -2.875 C 11.328125 -2.875 12.660156 -3.503906 13.734375 -4.765625 L 16.109375 -2.578125 C 15.347656 -1.648438 14.40625 -0.941406 13.28125 -0.453125 C 12.15625 0.0234375 10.898438 0.265625 9.515625 0.265625 Z M 9.515625 0.265625 "/></g></g></g><g fill="#008037" fill-opacity="1"><g transform="translate(168.829206, 37.537205)"><g><path d="M 12.390625 -3.421875 L 4.984375 -3.421875 L 3.578125 0 L -0.203125 0 L 6.90625 -15.953125 L 10.546875 -15.953125 L 17.671875 0 L 13.8125 0 Z M 11.234375 -6.21875 L 8.703125 -12.328125 L 6.171875 -6.21875 Z M 11.234375 -6.21875 "/></g></g></g><g fill="#000000" fill-opacity="1"><g transform="translate(203.935336, 37.537205)"><g><path d="M 12.390625 -3.421875 L 4.984375 -3.421875 L 3.578125 0 L -0.203125 0 L 6.90625 -15.953125 L 10.546875 -15.953125 L 17.671875 0 L 13.8125 0 Z M 11.234375 -6.21875 L 8.703125 -12.328125 L 6.171875 -6.21875 Z M 11.234375 -6.21875 "/></g></g></g><g fill="#000000" fill-opacity="1"><g transform="translate(239.01581, 37.537205)"><g><path d="M 1.890625 -15.953125 L 5.578125 -15.953125 L 5.578125 0 L 1.890625 0 Z M 1.890625 -15.953125 "/></g></g></g></svg>